<svg width="510" height="68" viewBox="0 0 510 68" fill="none" xmlns="http://www.w3.org/2000/svg">
<path d="M27.7831 28.176C27.8311 28.56 27.8311 29.016 27.7831 29.544C27.7831 30.072 27.7591 30.504 27.7111 30.84C27.6151 31.944 27.4471 33.024 27.2071 34.08C27.0151 35.088 26.7991 36.12 26.5591 37.176C25.8871 40.056 25.0951 42.888 24.1831 45.672C23.2711 48.408 22.3591 51.144 21.4471 53.88C21.1111 54.792 20.7991 55.68 20.5111 56.544C20.2711 57.408 19.9591 58.272 19.5751 59.136C19.5271 59.376 19.4551 59.592 19.3591 59.784C19.2631 59.928 19.1911 60.072 19.1431 60.216C19.0951 60.36 19.0471 60.432 18.9991 60.432C18.3271 60.96 17.6551 61.464 16.9831 61.944C16.3111 62.424 15.6391 62.928 14.9671 63.456C14.7751 63.168 14.6791 62.928 14.6791 62.736C14.6311 62.496 14.6551 62.112 14.7511 61.584C14.8471 61.104 14.9431 60.744 15.0391 60.504C15.2791 59.784 15.4471 59.232 15.5431 58.848C15.6871 58.464 15.9031 57.912 16.1911 57.192C16.0951 57.096 16.2871 56.88 16.7671 56.544C17.2951 56.208 17.8231 55.848 18.3511 55.464C18.6871 54.552 18.9991 53.64 19.2871 52.728C19.6231 51.816 19.9351 50.88 20.2231 49.92C19.7911 50.304 19.3591 50.64 18.9271 50.928C18.5431 51.168 18.3271 51.24 18.2791 51.144C18.0391 50.472 17.7271 49.848 17.3431 49.272C16.9591 48.648 16.5991 48 16.2631 47.328C15.9271 46.704 15.5911 46.104 15.2551 45.528C14.9671 44.904 14.6791 44.304 14.3911 43.728C13.9111 44.016 13.5031 44.28 13.1671 44.52C12.7831 44.712 12.5671 44.76 12.5191 44.664C12.6151 44.424 12.6631 44.304 12.6631 44.304C12.6151 44.256 12.6391 44.112 12.7351 43.872C12.8311 43.584 12.9271 43.296 13.0231 43.008C13.0711 42.72 13.1431 42.432 13.2391 42.144C13.2391 42.048 13.2631 41.976 13.3111 41.928C13.3111 41.832 13.3111 41.736 13.3111 41.64C12.4951 39.96 11.7031 38.256 10.9351 36.528C10.1191 34.8 9.35106 33.048 8.63106 31.272C7.38306 28.248 6.15906 25.224 4.95906 22.2C3.75906 19.128 2.60706 16.032 1.50306 12.912C1.40706 12.672 1.31106 12.408 1.21506 12.12C1.11906 11.832 1.02306 11.568 0.927062 11.328V11.256C0.927062 11.208 0.927062 11.184 0.927062 11.184C0.879062 11.136 0.855062 11.088 0.855062 11.04C0.759061 10.704 0.663062 10.392 0.567062 10.104C0.471062 9.768 0.375062 9.432 0.279062 9.096C0.231061 9 0.207061 8.904 0.207061 8.808C0.207061 8.664 0.183061 8.544 0.135061 8.448C0.135061 8.4 0.111062 8.352 0.0630622 8.304C0.0150621 8.208 0.0150621 8.136 0.0630622 8.088C0.687062 7.464 1.33506 6.888 2.00706 6.36C2.63106 5.784 3.27906 5.232 3.95106 4.704L4.16706 4.92C4.26306 5.064 4.33506 5.28 4.38306 5.568C4.43106 5.856 4.47906 6.096 4.52706 6.288C4.62306 6.624 4.69506 6.96 4.74306 7.296C4.74306 7.632 4.79106 7.968 4.88706 8.304C4.83906 8.304 4.81506 8.328 4.81506 8.376C4.76706 8.424 4.74306 8.472 4.74306 8.52C4.74306 8.568 4.71906 8.616 4.67106 8.664C4.76706 8.904 4.83906 9.168 4.88706 9.456C4.88706 9.696 4.93506 9.936 5.03106 10.176C5.79906 13.056 6.68706 15.912 7.69506 18.744C8.70306 21.528 9.75906 24.312 10.8631 27.096C10.4791 24.648 10.1431 22.2 9.85506 19.752C9.56706 17.256 9.35106 14.76 9.20706 12.264C9.15906 11.016 9.15906 9.768 9.20706 8.52C9.25506 7.272 9.47106 6.024 9.85506 4.776C10.0471 4.296 10.2631 3.912 10.5031 3.624C10.7431 3.288 11.0311 3 11.3671 2.76C11.6551 2.472 12.0391 2.184 12.5191 1.896C12.9511 1.56 13.4791 1.152 14.1031 0.671996C14.1991 0.671996 14.2951 0.695997 14.3911 0.743999C14.4391 0.791998 14.5111 0.815998 14.6071 0.815998L14.7511 0.959996C14.7511 0.959996 14.7991 1.008 14.8951 1.104C15.3751 1.68 15.7111 2.328 15.9031 3.048C16.0951 3.768 16.3111 4.488 16.5511 5.208C17.0791 7.416 17.4391 9.624 17.6311 11.832C17.8711 14.04 18.0631 16.296 18.2071 18.6C18.3031 20.904 18.3751 23.232 18.4231 25.584C18.5191 27.888 18.5191 30.216 18.4231 32.568C18.3751 32.904 18.3511 33.24 18.3511 33.576C18.3511 33.912 18.3271 34.248 18.2791 34.584C18.6631 34.056 19.0231 33.576 19.3591 33.144C19.6951 32.664 20.0551 32.184 20.4391 31.704C21.2551 30.744 22.1431 29.88 23.1031 29.112C24.1111 28.296 25.1191 27.48 26.1271 26.664C26.4631 26.376 26.8471 26.4 27.2791 26.736C27.3751 26.832 27.4231 26.928 27.4231 27.024C27.4711 27.12 27.5431 27.216 27.6391 27.312C27.7351 27.696 27.7831 27.984 27.7831 28.176ZM0.279062 8.16V8.016C0.279062 8.016 0.279062 8.064 0.279062 8.16ZM14.9671 20.976C15.0631 22.512 15.1351 24.072 15.1831 25.656C15.2311 27.192 15.2071 28.728 15.1111 30.264C15.0151 29.736 14.9191 29.208 14.8231 28.68C14.6791 28.152 14.5591 27.624 14.4631 27.096C13.9831 24.648 13.5751 22.2 13.2391 19.752C12.9031 17.256 12.6871 14.736 12.5911 12.192V9.816C12.5911 9.384 12.5911 8.976 12.5911 8.592C12.5911 8.16 12.6151 7.728 12.6631 7.296C12.7591 7.584 12.8311 7.824 12.8791 8.016C13.5511 10.128 14.0311 12.264 14.3191 14.424C14.5591 16.584 14.7751 18.768 14.9671 20.976ZM23.1751 39.552C23.4151 38.16 23.6551 36.744 23.8951 35.304C24.1831 33.864 24.2311 32.448 24.0391 31.056C23.9431 30.768 23.8951 30.552 23.8951 30.408C23.7991 30.216 23.7271 30.096 23.6791 30.048C21.8551 32.256 20.2951 34.608 18.9991 37.104C18.7111 37.632 18.4231 38.184 18.1351 38.76C17.8471 39.336 17.5831 39.912 17.3431 40.488C18.1111 41.976 18.9031 43.32 19.7191 44.52C19.9591 44.904 20.1991 45.288 20.4391 45.672C20.7271 46.056 20.9911 46.44 21.2311 46.824C21.6151 45.624 21.9751 44.424 22.3111 43.224C22.6471 42.024 22.9351 40.8 23.1751 39.552ZM54.2116 47.4C54.3076 48.168 54.4036 48.864 54.4996 49.488C54.6436 50.112 54.6676 50.784 54.5716 51.504C54.5716 51.744 54.5716 51.984 54.5716 52.224C54.5716 52.464 54.4996 52.68 54.3556 52.872C53.6836 53.592 52.9876 54.264 52.2676 54.888C51.5476 55.512 50.8276 56.136 50.1076 56.76C49.8676 56.952 49.5556 57.048 49.1716 57.048C48.9316 57.048 48.7156 57.024 48.5236 56.976C48.3796 56.976 48.2116 56.952 48.0196 56.904C47.7796 56.808 47.5396 56.712 47.2996 56.616C47.1076 56.52 46.8916 56.424 46.6516 56.328C46.0756 55.992 45.4996 55.584 44.9236 55.104C44.3956 54.672 43.8916 54.24 43.4116 53.808C42.2596 52.704 41.2036 51.552 40.2436 50.352C39.2836 49.104 38.3476 47.832 37.4356 46.536C36.9556 45.768 36.5476 45.144 36.2116 44.664C35.9236 44.136 35.6356 43.632 35.3476 43.152C35.0596 42.672 34.7716 42.168 34.4836 41.64C34.1956 41.112 33.8356 40.44 33.4036 39.624C32.1556 37.08 31.0276 34.488 30.0196 31.848C29.0116 29.208 28.1236 26.52 27.3556 23.784C27.2116 23.16 27.0676 22.56 26.9236 21.984C26.7316 21.36 26.5876 20.736 26.4916 20.112C26.0596 18.144 25.7476 16.176 25.5556 14.208C25.3156 12.192 25.3156 10.176 25.5556 8.16C25.5556 8.064 25.6276 7.776 25.7716 7.296C25.8676 6.768 25.9876 6.456 26.1316 6.36C26.2276 6.264 26.4436 6.048 26.7796 5.712C27.1156 5.328 27.5236 4.92 28.0036 4.488C28.4356 4.056 28.9156 3.672 29.4436 3.336C29.9716 3 30.4756 2.808 30.9556 2.76C31.1956 2.76 31.3876 2.784 31.5316 2.832C31.6756 2.88 31.8676 2.928 32.1076 2.976C32.4916 3.12 32.8756 3.288 33.2596 3.48C33.5956 3.624 33.9556 3.792 34.3396 3.984C34.6276 3.84 34.7956 3.768 34.8436 3.768C35.6596 4.104 36.3796 4.584 37.0036 5.208C37.6276 5.832 38.2276 6.48 38.8036 7.152C39.0436 7.44 39.2596 7.728 39.4516 8.016C39.6436 8.304 39.8356 8.592 40.0276 8.88C41.6596 11.328 43.0276 13.92 44.1316 16.656C45.2356 19.392 46.3156 22.128 47.3716 24.864C48.6676 28.608 49.9156 32.328 51.1156 36.024C52.3636 39.72 53.3956 43.512 54.2116 47.4ZM49.9636 53.376C50.2036 53.472 50.5156 53.568 50.8996 53.664C50.9956 52.992 51.0196 52.368 50.9716 51.792C50.9236 51.216 50.8756 50.592 50.8276 49.92C50.2996 45.984 49.4596 42.12 48.3076 38.328C47.2036 34.488 46.0036 30.696 44.7076 26.952C43.6516 24.264 42.5236 21.6 41.3236 18.96C40.1236 16.32 38.6356 13.848 36.8596 11.544C36.6196 11.256 36.3796 10.992 36.1396 10.752C35.9476 10.464 35.7316 10.2 35.4916 9.96C34.9636 9.48 34.4356 9 33.9076 8.52C33.3796 7.992 32.7796 7.608 32.1076 7.368C31.6276 7.704 31.3636 7.848 31.3156 7.8C30.6436 7.272 29.9476 6.864 29.2276 6.576C28.8916 8.4 28.7956 10.272 28.9396 12.192C29.0356 14.112 29.2276 15.984 29.5156 17.808C29.6116 18.432 29.7556 19.056 29.9476 19.68C30.0916 20.256 30.2116 20.88 30.3076 21.552C31.1236 25.008 32.1796 28.368 33.4756 31.632C34.7716 34.848 36.3316 37.968 38.1556 40.992C38.5396 41.52 38.8996 42.048 39.2356 42.576C39.5716 43.104 39.9316 43.632 40.3156 44.16C41.2276 45.408 42.1876 46.632 43.1956 47.832C44.2036 49.032 45.3076 50.136 46.5076 51.144C47.6116 52.104 48.7636 52.848 49.9636 53.376ZM40.6756 28.104C41.8756 31.368 43.1716 34.536 44.5636 37.608C44.6116 37.656 44.4676 37.848 44.1316 38.184C43.7956 38.472 43.4356 38.784 43.0516 39.12C42.6676 39.408 42.2836 39.672 41.8996 39.912C41.5636 40.152 41.3716 40.248 41.3236 40.2C40.6516 38.616 39.9796 37.032 39.3076 35.448C38.6836 33.864 38.0356 32.304 37.3636 30.768C36.8356 29.568 36.3076 28.368 35.7796 27.168C35.2036 25.968 34.5796 24.816 33.9076 23.712C33.8596 23.664 34.0276 23.472 34.4116 23.136C34.7956 22.752 35.2276 22.368 35.7076 21.984C36.1876 21.552 36.6436 21.192 37.0756 20.904C37.5076 20.616 37.7476 20.496 37.7956 20.544C38.3236 21.792 38.8276 23.064 39.3076 24.36C39.7876 25.608 40.2436 26.856 40.6756 28.104ZM83.1044 54.96C83.1524 55.056 82.9844 55.272 82.6004 55.608C82.2164 55.944 81.7604 56.304 81.2324 56.688C80.7524 57.072 80.2724 57.408 79.7924 57.696C79.3604 57.984 79.1204 58.08 79.0724 57.984C79.0724 57.744 79.0244 57.528 78.9284 57.336C78.8804 57.144 78.8084 56.928 78.7124 56.688C78.0884 55.056 77.4404 53.448 76.7684 51.864C76.0964 50.28 75.4244 48.648 74.7524 46.968C73.4084 43.752 72.0884 40.56 70.7924 37.392C69.5444 34.176 68.2964 30.912 67.0484 27.6C66.5204 26.112 65.9924 24.648 65.4644 23.208C64.9364 21.72 64.4084 20.256 63.8804 18.816C64.1204 20.688 64.3844 22.584 64.6724 24.504C65.0084 26.376 65.3684 28.248 65.7524 30.12C66.9044 35.832 68.2004 41.424 69.6404 46.896C69.7364 47.52 69.8564 48.144 70.0004 48.768C70.1444 49.344 70.2164 49.944 70.2164 50.568C70.2164 50.856 70.2164 51.12 70.2164 51.36C70.2164 51.648 70.1924 51.936 70.1444 52.224C70.0004 52.8 69.9284 53.328 69.9284 53.808C69.0644 54.576 68.3684 55.248 67.8404 55.824C67.3604 56.4 66.9284 56.808 66.5444 57.048C66.2084 57.288 65.8724 57.312 65.5364 57.12C65.2004 56.976 64.7444 56.544 64.1684 55.824C62.9204 54.096 61.7924 52.272 60.7844 50.352C59.8244 48.432 58.9124 46.488 58.0484 44.52C56.5124 40.968 55.0484 37.416 53.6564 33.864C52.2644 30.312 50.9684 26.712 49.7684 23.064C49.2404 21.576 48.7604 20.088 48.3284 18.6C47.8484 17.112 47.3444 15.648 46.8164 14.208C46.7684 14.16 46.9364 13.968 47.3204 13.632C47.7044 13.248 48.1604 12.864 48.6884 12.48C49.1684 12.048 49.6244 11.712 50.0564 11.472C50.4884 11.184 50.7284 11.064 50.7764 11.112C51.4004 14.28 52.1204 17.448 52.9364 20.616C53.7524 23.784 54.7124 26.904 55.8164 29.976C56.8724 33 58.0724 36 59.4164 38.976C59.6564 39.504 59.9204 40.056 60.2084 40.632C60.4964 41.16 60.7604 41.688 61.0004 42.216C61.7204 43.704 62.4884 45.168 63.3044 46.608C64.1204 48.048 65.0324 49.416 66.0404 50.712C65.9444 50.328 65.8964 49.992 65.8964 49.704C65.4644 46.776 64.9844 43.872 64.4564 40.992C63.9764 38.064 63.4724 35.16 62.9444 32.28C61.5524 24.456 60.4004 16.656 59.4884 8.88C59.3924 8.352 59.3204 7.848 59.2724 7.368C59.2244 6.84 59.1524 6.312 59.0564 5.784C58.9124 5.4 58.7924 5.016 58.6964 4.632C58.5524 4.248 58.4324 3.864 58.3364 3.48C58.2884 3.432 58.4564 3.24 58.8404 2.904C59.2244 2.52 59.6564 2.16 60.1364 1.824C60.6644 1.44 61.1444 1.128 61.5764 0.887997C62.0564 0.599998 62.3204 0.479998 62.3684 0.527997V0.671996V0.959996C62.4164 1.344 62.4884 1.728 62.5844 2.112C62.6804 2.448 62.7764 2.784 62.8724 3.12C62.9684 3.504 63.0404 3.816 63.0884 4.056C63.1844 4.248 63.2564 4.44 63.3044 4.632C63.3524 4.824 63.4004 5.04 63.4484 5.28C63.5444 5.52 63.6404 5.832 63.7364 6.216C64.6484 9.48 65.6084 12.72 66.6164 15.936C67.6724 19.104 68.7524 22.272 69.8564 25.44C71.0564 28.704 72.3284 31.896 73.6724 35.016C75.0644 38.136 76.4804 41.28 77.9204 44.448C78.5924 46.032 79.3124 47.616 80.0804 49.2C80.8484 50.736 81.6404 52.272 82.4564 53.808C82.5524 54 82.6484 54.168 82.7444 54.312C82.8884 54.504 83.0084 54.72 83.1044 54.96ZM106.733 57.768C106.877 58.296 106.949 58.656 106.949 58.848C106.949 59.04 106.805 59.208 106.517 59.352C106.277 59.496 105.845 59.688 105.221 59.928C104.645 60.216 103.829 60.744 102.773 61.512C102.725 61.512 102.677 61.488 102.629 61.44C102.485 61.536 102.437 61.488 102.485 61.296C102.293 61.104 102.125 60.912 101.981 60.72C101.837 60.576 101.693 60.408 101.549 60.216C101.405 60.072 101.261 59.928 101.117 59.784C101.021 59.64 100.901 59.496 100.757 59.352C99.4128 57.672 98.0448 56.016 96.6528 54.384C95.3088 52.8 93.9648 51.168 92.6208 49.488C91.8528 48.48 91.2048 47.64 90.6768 46.968C90.1968 46.296 89.5968 45.456 88.8768 44.448C87.5328 42.528 86.2368 40.608 84.9888 38.688C83.7888 36.768 82.5888 34.8 81.3887 32.784C81.9167 34.176 82.4688 35.568 83.0448 36.96C83.6208 38.352 84.1968 39.744 84.7728 41.136C85.3488 42.672 85.9728 44.184 86.6448 45.672C87.3168 47.16 87.9408 48.672 88.5168 50.208C88.5168 50.352 88.5648 50.52 88.6608 50.712C88.7088 50.808 88.5408 51.024 88.1568 51.36C87.7728 51.696 87.3168 52.032 86.7888 52.368C86.3088 52.752 85.8528 53.088 85.4208 53.376C84.9888 53.664 84.7488 53.76 84.7008 53.664V53.16C84.3168 51.528 83.8368 49.944 83.2608 48.408C82.6848 46.824 82.1327 45.24 81.6047 43.656C80.5007 40.632 79.3967 37.632 78.2927 34.656C77.1407 31.68 75.9647 28.704 74.7647 25.728C74.1887 24.432 73.6367 23.136 73.1087 21.84C72.5327 20.544 71.9327 19.272 71.3087 18.024C71.2127 17.928 71.3327 17.76 71.6687 17.52C71.9567 17.232 72.3167 16.944 72.7487 16.656C72.6047 16.272 72.4847 15.888 72.3887 15.504C72.2447 15.072 72.1487 14.64 72.1007 14.208C72.0527 14.16 72.2447 13.968 72.6767 13.632C73.0607 13.296 73.5167 12.96 74.0447 12.624C74.5247 12.24 75.0047 11.928 75.4847 11.688C75.9167 11.4 76.1567 11.28 76.2047 11.328C76.1087 12.192 76.2287 13.056 76.5647 13.92C76.9007 14.736 77.2127 15.528 77.5007 16.296C78.5567 18.696 79.6607 21.048 80.8127 23.352C81.9167 25.608 83.0928 27.888 84.3408 30.192C85.4928 32.256 86.6688 34.272 87.8688 36.24C89.1168 38.208 90.4368 40.128 91.8288 42C92.5488 43.008 93.1728 43.848 93.7008 44.52C94.2288 45.192 94.8768 46.008 95.6448 46.968C96.3168 47.784 96.9888 48.576 97.6608 49.344C98.3808 50.064 99.0768 50.808 99.7488 51.576C99.6528 51.336 99.5568 51.12 99.4608 50.928C99.4128 50.736 99.3408 50.52 99.2448 50.28C97.6608 45.912 96.0288 41.616 94.3488 37.392C92.7168 33.12 91.0608 28.824 89.3808 24.504C88.2288 21.528 87.0528 18.576 85.8528 15.648C84.6528 12.72 83.3568 9.816 81.9647 6.936C81.6767 6.408 81.3887 5.88 81.1007 5.352C80.8127 4.776 80.5007 4.224 80.1647 3.696C80.1167 3.648 80.2847 3.456 80.6687 3.12C81.0047 2.736 81.4127 2.376 81.8927 2.04C82.3247 1.656 82.7568 1.344 83.1888 1.104C83.6208 0.815997 83.8608 0.695997 83.9088 0.743999C84.1488 1.32 84.3888 1.896 84.6288 2.472C84.8688 3.048 85.1088 3.648 85.3488 4.272C86.5008 7.296 87.6048 10.344 88.6608 13.416C89.7648 16.44 90.8928 19.464 92.0448 22.488C93.6288 26.808 95.2608 31.08 96.9408 35.304C98.6688 39.48 100.469 43.656 102.341 47.832C103.109 49.512 103.853 51.168 104.573 52.8C105.341 54.432 106.061 56.088 106.733 57.768ZM129.442 55.896C128.77 56.424 128.122 56.976 127.498 57.552C126.922 58.128 126.298 58.68 125.626 59.208C125.098 58.728 124.714 58.152 124.474 57.48C124.234 56.808 123.922 56.184 123.538 55.608C122.434 53.448 121.378 51.288 120.37 49.128C119.41 46.92 118.45 44.712 117.49 42.504C117.394 42.168 117.274 41.856 117.13 41.568C116.986 41.28 116.866 40.992 116.77 40.704L113.53 41.784C113.722 42.648 113.89 43.536 114.034 44.448C114.178 45.312 114.274 46.2 114.322 47.112C114.322 47.496 114.322 47.88 114.322 48.264C114.322 48.6 114.298 48.96 114.25 49.344C113.434 50.016 112.786 50.616 112.306 51.144C111.874 51.72 111.466 52.128 111.082 52.368C110.746 52.608 110.386 52.68 110.002 52.584C109.666 52.488 109.21 52.104 108.634 51.432L107.554 49.992C107.026 49.272 106.546 48.528 106.114 47.76C105.73 46.992 105.346 46.2 104.962 45.384C104.674 45.528 104.362 45.696 104.026 45.888C103.69 46.032 103.402 46.152 103.162 46.248C102.874 46.344 102.682 46.416 102.586 46.464C102.442 46.512 102.25 46.584 102.01 46.68C101.914 46.584 102.13 46.248 102.658 45.672C103.186 45.048 103.714 44.472 104.242 43.944C103.57 42.504 102.922 41.04 102.298 39.552C101.674 38.064 101.098 36.552 100.57 35.016L99.49 31.56C99.442 31.464 99.418 31.368 99.418 31.272C99.418 31.128 99.394 31.008 99.346 30.912C99.202 30.672 99.154 30.528 99.202 30.48C99.778 29.856 100.402 29.28 101.074 28.752C101.698 28.176 102.322 27.6 102.946 27.024C103.186 27.216 103.402 27.432 103.594 27.672C103.738 27.864 103.882 28.08 104.026 28.32C104.026 28.416 103.834 28.656 103.45 29.04C103.546 29.568 103.666 30.096 103.81 30.624C103.906 31.152 104.026 31.68 104.17 32.208C104.698 33.888 105.274 35.544 105.898 37.176C106.57 38.808 107.314 40.416 108.13 42C108.37 41.904 108.562 41.832 108.706 41.784C108.898 41.688 109.114 41.592 109.354 41.496C108.922 39.144 108.466 36.816 107.986 34.512C107.554 32.16 107.098 29.832 106.618 27.528C106.042 24.696 105.49 21.888 104.962 19.104C104.386 16.32 103.81 13.512 103.234 10.68C103.042 9.72 102.826 8.784 102.586 7.872C102.346 6.912 102.154 5.952 102.01 4.992C101.914 4.464 102.01 3.912 102.298 3.336C102.538 2.712 102.898 2.184 103.378 1.752C103.81 1.272 104.314 0.959999 104.89 0.815998C105.418 0.623998 105.898 0.695998 106.33 1.032C106.714 1.416 106.978 1.896 107.122 2.472C107.266 3 107.434 3.528 107.626 4.056C108.922 8.664 110.338 13.272 111.874 17.88C112.978 21.24 114.154 24.552 115.402 27.816C116.698 31.032 118.042 34.272 119.434 37.536C119.962 37.344 120.466 37.176 120.946 37.032C121.474 36.84 122.002 36.624 122.53 36.384C122.818 36.288 123.034 36.216 123.178 36.168C123.37 36.072 123.586 35.952 123.826 35.808C123.922 35.76 123.994 35.712 124.042 35.664C124.138 35.616 124.234 35.568 124.33 35.52C124.426 35.472 124.474 35.448 124.474 35.448C124.426 35.448 124.402 35.472 124.402 35.52C124.834 35.184 125.05 35.088 125.05 35.232C125.146 35.328 125.194 35.424 125.194 35.52C125.194 35.616 125.17 35.688 125.122 35.736C124.546 36.264 124.042 36.744 123.61 37.176C123.226 37.56 122.866 37.896 122.53 38.184C122.194 38.472 121.858 38.712 121.522 38.904C121.186 39.096 120.778 39.288 120.298 39.48C120.346 39.672 120.442 39.864 120.586 40.056C122.602 44.472 124.762 48.696 127.066 52.728C127.354 53.16 127.618 53.592 127.858 54.024C128.098 54.456 128.362 54.888 128.65 55.32C128.746 55.416 128.842 55.536 128.938 55.68C129.082 55.824 129.202 55.896 129.298 55.896H129.442ZM109.786 43.944C109.738 43.848 109.714 43.752 109.714 43.656C109.714 43.512 109.69 43.392 109.642 43.296C109.354 43.392 109.138 43.488 108.994 43.584C109.282 44.112 109.618 44.664 110.002 45.24L109.786 43.944ZM113.098 39.84C113.578 39.648 114.058 39.48 114.538 39.336C115.018 39.144 115.498 38.952 115.978 38.76C113.434 32.712 111.058 26.592 108.85 20.4C108.994 21.216 109.138 22.008 109.282 22.776C109.426 23.544 109.594 24.312 109.786 25.08C110.314 27.576 110.842 30.048 111.37 32.496C111.946 34.944 112.522 37.392 113.098 39.84ZM139.493 33.288C140.261 34.488 140.933 35.736 141.509 37.032C142.133 38.328 142.421 39.72 142.373 41.208C142.373 41.688 142.349 42.096 142.301 42.432C142.253 42.72 142.181 43.008 142.085 43.296C142.037 43.584 141.941 43.896 141.797 44.232C141.701 44.568 141.581 44.952 141.437 45.384C141.245 45.72 141.053 46.056 140.861 46.392C140.717 46.728 140.549 47.064 140.357 47.4C139.349 48.936 138.101 50.28 136.613 51.432C135.173 52.632 133.757 53.784 132.365 54.888C132.317 54.84 132.413 54.624 132.653 54.24C132.941 53.904 133.277 53.52 133.661 53.088C133.805 52.752 134.141 52.416 134.669 52.08C134.861 51.888 135.005 51.768 135.101 51.72L135.317 51.504C135.701 51.072 135.989 50.736 136.181 50.496C136.421 50.208 136.613 49.944 136.757 49.704C136.901 49.464 137.045 49.2 137.189 48.912C137.381 48.624 137.621 48.24 137.909 47.76C138.197 46.944 138.413 46.32 138.557 45.888C138.749 45.408 138.869 44.712 138.917 43.8C138.965 42.36 138.701 40.992 138.125 39.696C137.597 38.4 136.973 37.152 136.253 35.952C134.717 33.648 133.181 31.392 131.645 29.184C130.157 26.976 128.789 24.648 127.541 22.2C127.493 22.152 127.469 22.128 127.469 22.128C127.469 22.08 127.445 22.032 127.397 21.984C128.501 27.648 129.941 33.168 131.717 38.544C132.149 39.792 132.581 41.064 133.013 42.36C133.493 43.608 134.045 44.832 134.669 46.032C134.717 46.08 134.645 46.2 134.453 46.392C134.261 46.584 134.021 46.8 133.733 47.04C133.445 47.28 133.109 47.544 132.725 47.832C132.389 48.12 132.077 48.36 131.789 48.552C131.309 48.936 130.829 49.32 130.349 49.704C129.869 50.088 129.605 50.232 129.557 50.136C129.173 49.416 128.909 48.912 128.765 48.624C128.621 48.336 128.501 48.12 128.405 47.976C128.357 47.784 128.261 47.544 128.117 47.256C127.973 46.92 127.709 46.344 127.325 45.528C125.933 42.6 124.613 39.648 123.365 36.672C122.069 33.696 120.845 30.696 119.693 27.672C119.165 26.28 118.661 24.888 118.181 23.496C117.653 22.056 117.173 20.616 116.741 19.176C117.557 18.456 118.181 17.832 118.613 17.304C119.045 16.728 119.405 16.32 119.693 16.08C119.981 15.792 120.269 15.696 120.557 15.792C120.845 15.84 121.229 16.128 121.709 16.656C121.805 16.704 121.781 16.824 121.637 17.016C121.445 17.16 121.205 17.352 120.917 17.592C120.965 17.832 121.013 18.048 121.061 18.24C121.109 18.432 121.157 18.624 121.205 18.816C121.445 19.92 121.733 21 122.069 22.056C122.357 23.064 122.645 24.096 122.933 25.152C123.605 27.072 124.301 28.992 125.021 30.912C125.693 32.784 126.437 34.656 127.253 36.528C126.581 33.744 125.981 30.96 125.453 28.176C124.877 25.392 124.349 22.56 123.869 19.68C123.437 17.04 123.053 14.4 122.717 11.76C122.333 9.12 122.021 6.48 121.781 3.84C121.781 3.744 121.829 3.672 121.925 3.624V3.552C121.877 3.504 122.069 3.312 122.501 2.976C122.885 2.592 123.341 2.232 123.869 1.896C124.349 1.512 124.829 1.2 125.309 0.959996C125.741 0.671997 125.981 0.551997 126.029 0.599997C125.789 1.608 125.741 2.616 125.885 3.624C125.981 4.584 126.101 5.544 126.245 6.504C126.629 8.856 127.229 11.112 128.045 13.272C128.861 15.432 129.749 17.568 130.709 19.68C131.909 22.128 133.277 24.456 134.813 26.664C136.397 28.872 137.957 31.08 139.493 33.288ZM165.702 58.56C165.846 58.608 165.678 58.776 165.198 59.064C164.382 59.88 163.782 60.528 163.398 61.008C163.014 61.488 162.726 61.824 162.534 62.016C162.342 62.208 162.174 62.256 162.03 62.16C161.886 62.112 161.622 61.92 161.238 61.584C160.518 60.432 159.87 59.232 159.294 57.984C158.766 56.736 158.142 55.536 157.422 54.384C155.358 50.448 153.126 46.728 150.726 43.224C149.958 42.072 149.19 40.92 148.422 39.768C147.654 38.568 146.862 37.392 146.046 36.24C145.95 36.144 145.782 35.928 145.542 35.592C145.302 35.256 145.062 35.088 144.822 35.088C144.63 35.232 144.51 35.328 144.462 35.376C144.414 35.376 144.486 35.28 144.678 35.088H144.75C144.702 35.088 144.654 35.112 144.606 35.16C144.51 35.064 144.438 34.968 144.39 34.872C144.294 34.776 144.198 34.704 144.102 34.656C144.054 34.656 144.03 34.68 144.03 34.728C144.03 34.728 144.006 34.728 143.958 34.728C144.006 34.728 144.03 34.728 144.03 34.728C144.03 34.68 144.054 34.656 144.102 34.656C143.91 34.464 143.814 34.32 143.814 34.224C143.814 34.128 143.934 34.032 144.174 33.936C144.414 33.792 144.75 33.6 145.182 33.36C145.614 33.12 146.166 32.76 146.838 32.28L148.566 30.552C148.998 30.12 149.406 29.712 149.79 29.328C150.222 28.896 150.63 28.44 151.014 27.96C148.902 25.512 146.862 23.04 144.894 20.544C142.926 18.048 140.91 15.576 138.846 13.128C136.782 10.632 134.742 8.232 132.726 5.928C132.63 5.832 132.558 5.712 132.51 5.568C132.414 5.424 132.318 5.28 132.222 5.136C131.982 4.608 132.006 4.128 132.294 3.696C132.582 3.216 132.966 2.808 133.446 2.472C133.926 2.088 134.43 1.776 134.958 1.536C135.438 1.248 135.798 1.008 136.038 0.815998C136.518 0.719996 136.998 0.767996 137.478 0.959996C137.91 1.104 138.318 1.296 138.702 1.536C140.958 2.64 142.974 3.888 144.75 5.28C147.054 7.056 149.142 8.952 151.014 10.968C151.494 11.448 151.974 11.928 152.454 12.408C152.934 12.888 153.486 13.272 154.11 13.56C154.158 13.656 154.014 13.896 153.678 14.28C153.342 14.664 152.934 15.072 152.454 15.504C151.974 15.888 151.518 16.248 151.086 16.584C150.654 16.92 150.414 17.04 150.366 16.944C149.838 16.56 149.334 16.104 148.854 15.576C148.374 15.048 147.894 14.52 147.414 13.992C146.502 12.888 145.542 11.88 144.534 10.968C143.526 10.056 142.47 9.168 141.366 8.304C141.03 8.064 140.718 7.848 140.43 7.656C140.142 7.416 139.83 7.2 139.494 7.008C139.926 7.584 140.358 8.16 140.79 8.736C141.174 9.312 141.582 9.888 142.014 10.464C143.694 12.72 145.374 14.952 147.054 17.16C148.734 19.32 150.486 21.432 152.31 23.496C152.646 23.88 152.958 24.24 153.246 24.576C153.582 24.864 153.918 25.2 154.254 25.584C154.926 25.248 155.286 25.128 155.334 25.224C154.902 25.752 154.446 26.232 153.966 26.664C153.534 27.096 153.102 27.552 152.67 28.032C152.046 28.704 151.398 29.352 150.726 29.976C150.054 30.552 149.382 31.152 148.71 31.776C149.382 31.2 149.67 30.96 149.574 31.056C149.478 31.152 149.19 31.392 148.71 31.776C148.95 31.968 149.142 32.184 149.286 32.424C149.43 32.664 149.598 32.904 149.79 33.144C150.51 34.392 151.23 35.616 151.95 36.816C152.67 38.016 153.414 39.24 154.182 40.488C155.142 42.024 156.078 43.584 156.99 45.168C157.95 46.752 158.886 48.336 159.798 49.92L158.502 44.088C158.262 42.984 157.998 41.904 157.71 40.848C157.47 39.744 157.254 38.64 157.062 37.536C156.966 37.008 157.038 36.48 157.278 35.952C157.566 35.376 157.926 34.896 158.358 34.512C158.838 34.08 159.366 33.768 159.942 33.576C160.518 33.336 161.094 33.288 161.67 33.432C161.814 33.528 161.886 33.576 161.886 33.576C161.886 33.576 161.982 33.624 162.174 33.72C162.222 33.768 162.126 33.936 161.886 34.224C161.646 34.464 161.358 34.752 161.022 35.088C161.022 35.424 161.046 35.736 161.094 36.024C161.142 36.312 161.19 36.624 161.238 36.96C161.334 37.44 161.406 37.896 161.454 38.328C161.502 38.76 161.574 39.216 161.67 39.696C161.718 40.032 161.766 40.344 161.814 40.632C161.862 40.92 161.91 41.208 161.958 41.496C162.342 43.656 162.774 45.792 163.254 47.904C163.782 50.016 164.334 52.152 164.91 54.312C165.054 54.936 165.174 55.536 165.27 56.112C165.414 56.736 165.534 57.36 165.63 57.984C165.63 58.08 165.654 58.176 165.702 58.272C165.75 58.368 165.75 58.464 165.702 58.56ZM196.13 63.456C196.178 63.552 196.226 63.624 196.274 63.672C196.37 63.768 196.37 63.84 196.274 63.888C195.65 64.608 195.146 65.256 194.762 65.832C194.378 66.408 194.018 66.84 193.682 67.128C193.394 67.464 193.106 67.608 192.818 67.56C192.53 67.56 192.17 67.296 191.738 66.768C190.73 65.232 189.842 63.6 189.074 61.872C188.354 60.192 187.61 58.512 186.842 56.832C185.642 53.808 184.538 50.76 183.53 47.688C182.57 44.616 181.778 41.472 181.154 38.256C180.722 36 180.362 33.744 180.074 31.488C179.306 32.064 178.514 32.64 177.698 33.216C176.93 33.744 176.21 34.296 175.538 34.872C175.202 35.112 174.914 35.328 174.674 35.52C174.482 35.664 174.314 35.808 174.17 35.952C174.026 36.048 173.858 36.168 173.666 36.312C173.522 36.456 173.33 36.624 173.09 36.816C173.378 37.824 173.666 38.832 173.954 39.84C174.242 40.848 174.578 41.856 174.962 42.864C175.538 44.544 176.138 46.224 176.762 47.904C177.386 49.584 178.082 51.24 178.85 52.872C178.85 52.968 178.802 53.064 178.706 53.16C178.802 53.256 178.874 53.352 178.922 53.448C179.018 53.592 179.114 53.736 179.21 53.88L179.282 53.952C179.33 54.048 179.162 54.264 178.778 54.6C178.394 54.936 177.938 55.296 177.41 55.68C176.93 56.112 176.45 56.472 175.97 56.76C175.538 57.048 175.298 57.144 175.25 57.048C175.25 57.048 175.274 57.024 175.322 56.976C175.226 56.784 175.154 56.616 175.106 56.472C175.106 56.328 175.058 56.16 174.962 55.968H174.89C174.89 55.824 174.866 55.704 174.818 55.608C174.482 54.792 174.122 54 173.738 53.232C173.354 52.512 172.994 51.744 172.658 50.928C171.89 49.248 171.146 47.592 170.426 45.96C169.706 44.328 168.986 42.672 168.266 40.992C168.122 41.136 167.978 41.304 167.834 41.496C167.642 41.64 167.45 41.784 167.258 41.928C166.922 42.264 166.682 42.528 166.538 42.72C166.442 42.816 166.37 42.888 166.322 42.936C166.274 42.936 166.226 42.984 166.178 43.08L165.746 43.512C165.794 43.608 165.674 43.776 165.386 44.016C165.098 44.208 164.738 44.448 164.306 44.736C163.874 45.024 163.442 45.312 163.01 45.6C162.578 45.84 162.218 46.008 161.93 46.104C161.498 46.344 161.234 46.416 161.138 46.32C161.426 46.08 161.618 45.96 161.714 45.96C161.762 45.912 161.834 45.84 161.93 45.744C162.554 45.024 163.274 44.304 164.09 43.584C164.714 42.96 165.338 42.312 165.962 41.64C166.538 40.968 167.138 40.296 167.762 39.624C167.426 38.856 167.114 38.112 166.826 37.392C166.538 36.672 166.226 35.928 165.89 35.16C164.69 32.136 163.514 29.136 162.362 26.16C161.162 23.136 160.01 20.112 158.906 17.088C158.618 16.416 158.354 15.744 158.114 15.072C157.826 14.4 157.538 13.728 157.25 13.056C157.154 12.768 157.082 12.576 157.034 12.48C156.986 12.384 156.938 12.312 156.89 12.264C156.794 12.168 156.77 12.072 156.818 11.976C157.442 11.352 158.09 10.8 158.762 10.32C159.434 9.792 160.106 9.24 160.778 8.664C161.066 8.808 161.306 8.976 161.498 9.168C161.69 9.36 161.906 9.576 162.146 9.816C162.242 9.912 161.954 10.248 161.282 10.824C161.474 11.4 161.666 12 161.858 12.624C162.002 13.2 162.17 13.776 162.362 14.352C163.226 17.52 164.21 20.592 165.314 23.568C166.37 26.544 167.522 29.544 168.77 32.568C168.626 31.896 168.482 31.248 168.338 30.624C168.194 29.952 168.074 29.28 167.978 28.608C167.786 27.6 167.642 26.76 167.546 26.088C167.402 25.416 167.282 24.768 167.186 24.144C167.09 23.472 167.018 22.8 166.97 22.128C166.874 21.456 166.754 20.616 166.61 19.608C166.226 17.064 165.938 14.544 165.746 12.048C165.554 9.504 165.434 6.936 165.386 4.344C165.29 4.344 165.338 4.248 165.53 4.056V3.624C165.482 3.576 165.674 3.384 166.106 3.048C166.49 2.664 166.946 2.304 167.474 1.968C167.954 1.584 168.41 1.272 168.842 1.032C169.274 0.743998 169.514 0.623996 169.562 0.671996C169.514 1.344 169.538 1.992 169.634 2.616C169.73 3.24 169.826 3.864 169.922 4.488C170.114 5.736 170.33 6.984 170.57 8.232C170.858 9.432 171.194 10.656 171.578 11.904C171.914 13.008 172.37 14.064 172.946 15.072C173.522 16.032 174.146 16.992 174.818 17.952C175.442 18.72 175.994 19.512 176.474 20.328C177.002 21.144 177.458 22.008 177.842 22.92C178.37 24.456 178.466 25.944 178.13 27.384C178.082 27.528 178.034 27.696 177.986 27.888C177.938 28.032 177.89 28.2 177.842 28.392C177.266 29.784 176.522 31.104 175.61 32.352C174.698 33.552 173.762 34.704 172.802 35.808C172.802 35.904 172.826 35.976 172.874 36.024C173.786 35.256 174.698 34.512 175.61 33.792C176.522 33.024 177.458 32.256 178.418 31.488L179.282 30.84C179.282 30.84 179.306 30.792 179.354 30.696L179.57 30.48C179.522 30.432 179.57 30.336 179.714 30.192C179.906 30.048 180.122 29.88 180.362 29.688C180.65 29.448 180.962 29.184 181.298 28.896C181.682 28.56 182.042 28.272 182.378 28.032C182.762 27.792 183.098 27.6 183.386 27.456C183.674 27.312 183.842 27.264 183.89 27.312C183.938 28.704 184.01 30.12 184.106 31.56C184.202 32.952 184.322 34.344 184.466 35.736C184.85 38.472 185.402 41.16 186.122 43.8C186.89 46.392 187.778 48.984 188.786 51.576C188.978 52.056 189.17 52.512 189.362 52.944C189.554 53.424 189.746 53.928 189.938 54.456C190.13 54.84 190.298 55.2 190.442 55.536C190.586 55.872 190.754 56.232 190.946 56.616C191.33 56.328 191.666 56.088 191.954 55.896C192.242 55.704 192.41 55.656 192.458 55.752C192.554 55.992 192.65 56.232 192.746 56.472C192.89 56.712 193.01 56.952 193.106 57.192C193.586 58.152 194.042 59.112 194.474 60.072C194.954 61.032 195.434 61.992 195.914 62.952C195.962 63.096 196.034 63.264 196.13 63.456ZM171.218 20.976C170.882 20.496 170.57 20.04 170.282 19.608C169.946 19.176 169.658 18.696 169.418 18.168C169.514 19.032 169.61 19.8 169.706 20.472C169.802 21.096 169.898 21.72 169.994 22.344C170.042 22.92 170.138 23.544 170.282 24.216C170.378 24.888 170.498 25.68 170.642 26.592C170.882 27.84 171.122 29.088 171.362 30.336C171.65 31.536 171.962 32.76 172.298 34.008C172.634 33.528 172.922 33.048 173.162 32.568C173.45 32.088 173.714 31.584 173.954 31.056C174.002 30.864 174.05 30.696 174.098 30.552C174.146 30.408 174.194 30.24 174.242 30.048C174.482 29.376 174.578 28.68 174.53 27.96C174.482 27.24 174.338 26.544 174.098 25.872C173.762 24.96 173.33 24.096 172.802 23.28C172.322 22.464 171.794 21.696 171.218 20.976ZM249.838 55.536C249.886 55.632 249.718 55.848 249.334 56.184C248.95 56.52 248.494 56.856 247.966 57.192C247.486 57.576 247.03 57.912 246.598 58.2C246.166 58.488 245.926 58.608 245.878 58.56V57.984C245.734 57.312 245.566 56.664 245.374 56.04C245.182 55.464 244.966 54.84 244.726 54.168C244.246 52.872 243.766 51.6 243.286 50.352C242.806 49.056 242.302 47.784 241.774 46.536C240.142 42.456 238.534 38.4 236.95 34.368C235.414 30.288 233.878 26.184 232.342 22.056C231.814 20.616 231.286 19.176 230.758 17.736C230.23 16.296 229.678 14.856 229.102 13.416L229.318 16.008C229.462 17.448 229.582 18.72 229.678 19.824C229.822 20.928 230.014 22.224 230.254 23.712C230.638 26.016 231.07 28.32 231.55 30.624C232.03 32.88 232.606 35.136 233.278 37.392C234.142 40.272 235.078 43.08 236.086 45.816C236.182 46.008 236.23 46.104 236.23 46.104C236.23 46.152 236.23 46.176 236.23 46.176C236.278 46.176 236.302 46.2 236.302 46.248C236.302 46.296 236.326 46.32 236.374 46.32C236.566 46.752 236.518 46.992 236.23 47.04C235.942 47.088 235.318 47.4 234.358 47.976C233.542 48.792 233.038 49.344 232.846 49.632C232.654 49.92 232.486 49.848 232.342 49.416C232.342 49.272 232.294 49.104 232.198 48.912V48.768C232.15 48.72 232.126 48.672 232.126 48.624L231.91 48.192C231.238 47.088 230.494 46.056 229.678 45.096C228.91 44.088 228.19 43.032 227.518 41.928C226.99 41.16 226.51 40.44 226.078 39.768C225.646 39.048 225.166 38.28 224.638 37.464C223.39 35.448 222.238 33.408 221.182 31.344C220.078 29.232 218.998 27.12 217.942 25.008C217.846 24.816 217.75 24.672 217.654 24.576C217.75 24.816 217.846 25.056 217.942 25.296C218.038 25.488 218.134 25.704 218.23 25.944C219.286 28.968 220.39 31.968 221.542 34.944C222.646 37.872 223.822 40.8 225.07 43.728C225.406 44.544 225.742 45.336 226.078 46.104C226.462 46.824 226.822 47.592 227.158 48.408C227.206 48.456 227.038 48.648 226.654 48.984C226.318 49.32 225.91 49.68 225.43 50.064C224.95 50.448 224.494 50.784 224.062 51.072C223.63 51.36 223.39 51.456 223.342 51.36C223.198 50.496 222.958 49.656 222.622 48.84C222.334 47.976 222.046 47.112 221.758 46.248C220.702 43.224 219.622 40.248 218.518 37.32C217.414 34.344 216.262 31.368 215.062 28.392C214.342 26.712 213.622 25.032 212.902 23.352C212.134 21.624 211.27 19.968 210.31 18.384C210.262 18.24 210.19 18.072 210.094 17.88C210.046 17.784 209.998 17.736 209.95 17.736C209.854 17.688 209.83 17.616 209.878 17.52C210.454 16.848 210.958 16.2 211.39 15.576C211.774 14.952 212.158 14.496 212.542 14.208L210.814 10.752C210.574 10.224 210.31 9.672 210.022 9.096C209.734 8.52 209.638 7.92 209.734 7.296C209.878 6.816 209.974 6.528 210.022 6.432C210.07 6.288 210.214 6.168 210.454 6.072C210.694 5.928 211.054 5.712 211.534 5.424C212.014 5.088 212.758 4.488 213.766 3.624C213.862 3.528 214.03 3.504 214.27 3.552C214.462 3.552 214.63 3.552 214.774 3.552C214.822 3.6 214.75 3.744 214.558 3.984C214.366 4.176 214.126 4.44 213.838 4.776C213.742 5.256 213.79 5.784 213.982 6.36C214.174 6.936 214.342 7.44 214.486 7.872C215.446 10.416 216.478 12.912 217.582 15.36C218.638 17.76 219.718 20.184 220.822 22.632C221.83 24.792 222.886 26.904 223.99 28.968C225.142 30.984 226.366 33 227.662 35.016C228.046 35.544 228.358 36 228.598 36.384C228.886 36.72 229.15 37.08 229.39 37.464C228.718 34.248 228.142 31.056 227.662 27.888C227.182 24.672 226.75 21.432 226.366 18.168C226.126 15.96 225.862 13.776 225.574 11.616C225.334 9.456 225.07 7.272 224.782 5.064C224.686 4.392 224.59 3.912 224.494 3.624C224.446 3.336 224.518 3.096 224.71 2.904C224.902 2.712 225.286 2.496 225.862 2.256C226.486 1.968 227.398 1.488 228.598 0.815998C228.694 0.719996 228.742 0.767996 228.742 0.959996C228.79 1.152 228.838 1.296 228.886 1.392C228.982 1.536 229.03 1.704 229.03 1.896C229.078 2.04 229.15 2.184 229.246 2.328C230.302 5.256 231.286 8.184 232.198 11.112C233.158 14.04 234.118 16.992 235.078 19.968C236.47 24.144 237.958 28.248 239.542 32.28C241.174 36.264 242.878 40.248 244.654 44.232C245.47 46.056 246.31 47.88 247.174 49.704C248.086 51.48 248.902 53.28 249.622 55.104L249.838 55.536ZM267.61 47.4C267.706 48.168 267.802 48.864 267.898 49.488C268.042 50.112 268.066 50.784 267.97 51.504C267.97 51.744 267.97 51.984 267.97 52.224C267.97 52.464 267.898 52.68 267.754 52.872C267.082 53.592 266.386 54.264 265.666 54.888C264.946 55.512 264.226 56.136 263.506 56.76C263.266 56.952 262.954 57.048 262.57 57.048C262.33 57.048 262.114 57.024 261.922 56.976C261.778 56.976 261.61 56.952 261.418 56.904C261.178 56.808 260.938 56.712 260.698 56.616C260.506 56.52 260.29 56.424 260.05 56.328C259.474 55.992 258.898 55.584 258.322 55.104C257.794 54.672 257.29 54.24 256.81 53.808C255.658 52.704 254.602 51.552 253.642 50.352C252.682 49.104 251.746 47.832 250.834 46.536C250.354 45.768 249.946 45.144 249.61 44.664C249.322 44.136 249.034 43.632 248.746 43.152C248.458 42.672 248.17 42.168 247.882 41.64C247.594 41.112 247.234 40.44 246.802 39.624C245.554 37.08 244.426 34.488 243.418 31.848C242.41 29.208 241.522 26.52 240.754 23.784C240.61 23.16 240.466 22.56 240.322 21.984C240.13 21.36 239.986 20.736 239.89 20.112C239.458 18.144 239.146 16.176 238.954 14.208C238.714 12.192 238.714 10.176 238.954 8.16C238.954 8.064 239.026 7.776 239.17 7.296C239.266 6.768 239.386 6.456 239.53 6.36C239.626 6.264 239.842 6.048 240.178 5.712C240.514 5.328 240.922 4.92 241.402 4.488C241.834 4.056 242.314 3.672 242.842 3.336C243.37 3 243.874 2.808 244.354 2.76C244.594 2.76 244.786 2.784 244.93 2.832C245.074 2.88 245.266 2.928 245.506 2.976C245.89 3.12 246.274 3.288 246.658 3.48C246.994 3.624 247.354 3.792 247.738 3.984C248.026 3.84 248.194 3.768 248.242 3.768C249.058 4.104 249.778 4.584 250.402 5.208C251.026 5.832 251.626 6.48 252.202 7.152C252.442 7.44 252.658 7.728 252.85 8.016C253.042 8.304 253.234 8.592 253.426 8.88C255.058 11.328 256.426 13.92 257.53 16.656C258.634 19.392 259.714 22.128 260.77 24.864C262.066 28.608 263.314 32.328 264.514 36.024C265.762 39.72 266.794 43.512 267.61 47.4ZM263.362 53.376C263.602 53.472 263.914 53.568 264.298 53.664C264.394 52.992 264.418 52.368 264.37 51.792C264.322 51.216 264.274 50.592 264.226 49.92C263.698 45.984 262.858 42.12 261.706 38.328C260.602 34.488 259.402 30.696 258.106 26.952C257.05 24.264 255.922 21.6 254.722 18.96C253.522 16.32 252.034 13.848 250.258 11.544C250.018 11.256 249.778 10.992 249.538 10.752C249.346 10.464 249.13 10.2 248.89 9.96C248.362 9.48 247.834 9 247.306 8.52C246.778 7.992 246.178 7.608 245.506 7.368C245.026 7.704 244.762 7.848 244.714 7.8C244.042 7.272 243.346 6.864 242.626 6.576C242.29 8.4 242.194 10.272 242.338 12.192C242.434 14.112 242.626 15.984 242.914 17.808C243.01 18.432 243.154 19.056 243.346 19.68C243.49 20.256 243.61 20.88 243.706 21.552C244.522 25.008 245.578 28.368 246.874 31.632C248.17 34.848 249.73 37.968 251.554 40.992C251.938 41.52 252.298 42.048 252.634 42.576C252.97 43.104 253.33 43.632 253.714 44.16C254.626 45.408 255.586 46.632 256.594 47.832C257.602 49.032 258.706 50.136 259.906 51.144C261.01 52.104 262.162 52.848 263.362 53.376ZM254.074 28.104C255.274 31.368 256.57 34.536 257.962 37.608C258.01 37.656 257.866 37.848 257.53 38.184C257.194 38.472 256.834 38.784 256.45 39.12C256.066 39.408 255.682 39.672 255.298 39.912C254.962 40.152 254.77 40.248 254.722 40.2C254.05 38.616 253.378 37.032 252.706 35.448C252.082 33.864 251.434 32.304 250.762 30.768C250.234 29.568 249.706 28.368 249.178 27.168C248.602 25.968 247.978 24.816 247.306 23.712C247.258 23.664 247.426 23.472 247.81 23.136C248.194 22.752 248.626 22.368 249.106 21.984C249.586 21.552 250.042 21.192 250.474 20.904C250.906 20.616 251.146 20.496 251.194 20.544C251.722 21.792 252.226 23.064 252.706 24.36C253.186 25.608 253.642 26.856 254.074 28.104ZM264.463 41.208C264.751 40.92 264.967 40.728 265.111 40.632C264.967 40.728 264.799 40.872 264.607 41.064C264.415 41.256 264.367 41.304 264.463 41.208ZM290.095 56.4C289.999 57.12 289.831 57.744 289.591 58.272C289.543 58.32 289.519 58.368 289.519 58.416C289.519 58.464 289.495 58.512 289.447 58.56C289.495 58.656 289.303 58.848 288.871 59.136C288.439 59.472 287.959 59.784 287.431 60.072C286.903 60.408 286.399 60.696 285.919 60.936C285.487 61.224 285.247 61.32 285.199 61.224L285.415 61.008C285.607 60.72 285.727 60.432 285.775 60.144C285.871 59.904 285.967 59.616 286.063 59.28C286.063 59.184 286.063 59.064 286.063 58.92C286.111 58.824 286.135 58.728 286.135 58.632C286.087 58.104 285.943 57.6 285.703 57.12C285.463 56.688 285.247 56.208 285.055 55.68C284.239 53.904 283.423 52.152 282.607 50.424C281.839 48.648 281.095 46.848 280.375 45.024C279.703 43.392 279.055 41.784 278.431 40.2C277.807 38.568 277.183 36.936 276.559 35.304C275.119 35.592 273.799 35.976 272.599 36.456C273.895 40.008 275.311 43.56 276.847 47.112C277.039 47.496 277.159 47.784 277.207 47.976C277.303 48.12 277.351 48.24 277.351 48.336C277.399 48.384 277.447 48.48 277.495 48.624C277.591 48.72 277.711 48.936 277.855 49.272C277.903 49.32 277.735 49.512 277.351 49.848C277.015 50.184 276.607 50.544 276.127 50.928C275.647 51.264 275.191 51.576 274.759 51.864C274.375 52.152 274.159 52.248 274.111 52.152C274.015 51.816 273.943 51.576 273.895 51.432C273.847 51.336 273.799 51.24 273.751 51.144C273.751 51.048 273.727 50.928 273.679 50.784C273.631 50.592 273.535 50.28 273.391 49.848C272.719 47.832 272.047 45.864 271.375 43.944C270.703 41.976 270.031 39.984 269.359 37.968C268.831 38.208 268.303 38.496 267.775 38.832C267.247 39.12 266.719 39.432 266.191 39.768C265.999 39.912 265.831 40.056 265.687 40.2C265.543 40.296 265.375 40.416 265.183 40.56L265.111 40.632C265.351 40.44 265.591 40.248 265.831 40.056C266.023 39.864 266.239 39.672 266.479 39.48C265.855 39.864 265.207 40.248 264.535 40.632C263.863 40.968 263.503 41.088 263.455 40.992C264.319 40.224 265.207 39.48 266.119 38.76C266.983 37.992 267.895 37.272 268.855 36.6C268.711 36.12 268.567 35.664 268.423 35.232C268.231 34.752 268.063 34.272 267.919 33.792C266.671 30.144 265.399 26.52 264.103 22.92C262.807 19.32 261.463 15.72 260.071 12.12C259.543 10.776 259.015 9.432 258.487 8.088C257.911 6.744 257.287 5.448 256.615 4.2C257.623 3.336 258.391 2.64 258.919 2.112C259.399 1.536 259.759 1.152 259.999 0.959996C260.239 0.719996 260.431 0.719996 260.575 0.959996C260.719 1.152 260.959 1.584 261.295 2.256C261.439 2.592 261.583 2.928 261.727 3.264C261.871 3.6 262.063 3.912 262.303 4.2C262.303 4.296 262.135 4.512 261.799 4.848L263.311 9.6C264.511 13.296 265.735 16.968 266.983 20.616C268.183 24.264 269.431 27.912 270.727 31.56C270.967 32.088 271.183 32.64 271.375 33.216C271.519 33.744 271.711 34.272 271.951 34.8C272.191 34.704 272.431 34.608 272.671 34.512C272.911 34.368 273.271 34.2 273.751 34.008C274.471 33.672 275.143 33.408 275.767 33.216C275.335 32.016 274.903 30.84 274.471 29.688C274.087 28.488 273.679 27.288 273.247 26.088C272.575 24.12 271.903 22.176 271.231 20.256C270.511 18.288 269.887 16.296 269.359 14.28C269.359 14.232 269.311 13.992 269.215 13.56C269.119 13.08 269.119 12.792 269.215 12.696C269.695 12.216 270.127 11.76 270.511 11.328C270.847 10.896 271.183 10.512 271.519 10.176C271.807 9.84 272.119 9.6 272.455 9.456C272.791 9.312 273.199 9.312 273.679 9.456C274.399 9.792 275.023 10.152 275.551 10.536C275.599 10.632 275.383 10.896 274.903 11.328C274.471 11.76 273.991 12.216 273.463 12.696C273.799 14.568 274.231 16.416 274.759 18.24C275.287 20.064 275.815 21.888 276.343 23.712C276.775 25.152 277.231 26.592 277.711 28.032C278.239 29.424 278.767 30.816 279.295 32.208C281.647 31.728 284.071 31.368 286.567 31.128C286.615 31.176 286.495 31.392 286.207 31.776C285.919 32.112 285.583 32.472 285.199 32.856C284.815 33.24 284.455 33.576 284.119 33.864C283.783 34.152 283.591 34.272 283.543 34.224C282.967 34.272 282.391 34.32 281.815 34.368C281.287 34.416 280.735 34.488 280.159 34.584C280.687 35.928 281.215 37.272 281.743 38.616C282.319 39.912 282.895 41.208 283.471 42.504C284.287 44.28 285.127 46.032 285.991 47.76C286.855 49.44 287.767 51.12 288.727 52.8C288.967 53.376 289.255 53.952 289.591 54.528C289.927 55.104 290.095 55.728 290.095 56.4ZM314.083 55.896C313.411 56.424 312.763 56.976 312.139 57.552C311.563 58.128 310.939 58.68 310.267 59.208C309.739 58.728 309.355 58.152 309.115 57.48C308.875 56.808 308.563 56.184 308.179 55.608C307.075 53.448 306.019 51.288 305.011 49.128C304.051 46.92 303.091 44.712 302.131 42.504C302.035 42.168 301.915 41.856 301.771 41.568C301.627 41.28 301.507 40.992 301.411 40.704L298.171 41.784C298.363 42.648 298.531 43.536 298.675 44.448C298.819 45.312 298.915 46.2 298.963 47.112C298.963 47.496 298.963 47.88 298.963 48.264C298.963 48.6 298.939 48.96 298.891 49.344C298.075 50.016 297.427 50.616 296.947 51.144C296.515 51.72 296.107 52.128 295.723 52.368C295.387 52.608 295.027 52.68 294.643 52.584C294.307 52.488 293.851 52.104 293.275 51.432L292.195 49.992C291.667 49.272 291.187 48.528 290.755 47.76C290.371 46.992 289.987 46.2 289.603 45.384C289.315 45.528 289.003 45.696 288.667 45.888C288.331 46.032 288.043 46.152 287.803 46.248C287.515 46.344 287.323 46.416 287.227 46.464C287.083 46.512 286.891 46.584 286.651 46.68C286.555 46.584 286.771 46.248 287.299 45.672C287.827 45.048 288.355 44.472 288.883 43.944C288.211 42.504 287.563 41.04 286.939 39.552C286.315 38.064 285.739 36.552 285.211 35.016L284.131 31.56C284.083 31.464 284.059 31.368 284.059 31.272C284.059 31.128 284.035 31.008 283.987 30.912C283.843 30.672 283.795 30.528 283.843 30.48C284.419 29.856 285.043 29.28 285.715 28.752C286.339 28.176 286.963 27.6 287.587 27.024C287.827 27.216 288.043 27.432 288.235 27.672C288.379 27.864 288.523 28.08 288.667 28.32C288.667 28.416 288.475 28.656 288.091 29.04C288.187 29.568 288.307 30.096 288.451 30.624C288.547 31.152 288.667 31.68 288.811 32.208C289.339 33.888 289.915 35.544 290.539 37.176C291.211 38.808 291.955 40.416 292.771 42C293.011 41.904 293.203 41.832 293.347 41.784C293.539 41.688 293.755 41.592 293.995 41.496C293.563 39.144 293.107 36.816 292.627 34.512C292.195 32.16 291.739 29.832 291.259 27.528C290.683 24.696 290.131 21.888 289.603 19.104C289.027 16.32 288.451 13.512 287.875 10.68C287.683 9.72 287.467 8.784 287.227 7.872C286.987 6.912 286.795 5.952 286.651 4.992C286.555 4.464 286.651 3.912 286.939 3.336C287.179 2.712 287.539 2.184 288.019 1.752C288.451 1.272 288.955 0.959999 289.531 0.815998C290.059 0.623998 290.539 0.695998 290.971 1.032C291.355 1.416 291.619 1.896 291.763 2.472C291.907 3 292.075 3.528 292.267 4.056C293.563 8.664 294.979 13.272 296.515 17.88C297.619 21.24 298.795 24.552 300.043 27.816C301.339 31.032 302.683 34.272 304.075 37.536C304.603 37.344 305.107 37.176 305.587 37.032C306.115 36.84 306.643 36.624 307.171 36.384C307.459 36.288 307.675 36.216 307.819 36.168C308.011 36.072 308.227 35.952 308.467 35.808C308.563 35.76 308.635 35.712 308.683 35.664C308.779 35.616 308.875 35.568 308.971 35.52C309.067 35.472 309.115 35.448 309.115 35.448C309.067 35.448 309.043 35.472 309.043 35.52C309.475 35.184 309.691 35.088 309.691 35.232C309.787 35.328 309.835 35.424 309.835 35.52C309.835 35.616 309.811 35.688 309.763 35.736C309.187 36.264 308.683 36.744 308.251 37.176C307.867 37.56 307.507 37.896 307.171 38.184C306.835 38.472 306.499 38.712 306.163 38.904C305.827 39.096 305.419 39.288 304.939 39.48C304.987 39.672 305.083 39.864 305.227 40.056C307.243 44.472 309.403 48.696 311.707 52.728C311.995 53.16 312.259 53.592 312.499 54.024C312.739 54.456 313.003 54.888 313.291 55.32C313.387 55.416 313.483 55.536 313.579 55.68C313.723 55.824 313.843 55.896 313.939 55.896H314.083ZM294.427 43.944C294.379 43.848 294.355 43.752 294.355 43.656C294.355 43.512 294.331 43.392 294.283 43.296C293.995 43.392 293.779 43.488 293.635 43.584C293.923 44.112 294.259 44.664 294.643 45.24L294.427 43.944ZM297.739 39.84C298.219 39.648 298.699 39.48 299.179 39.336C299.659 39.144 300.139 38.952 300.619 38.76C298.075 32.712 295.699 26.592 293.491 20.4C293.635 21.216 293.779 22.008 293.923 22.776C294.067 23.544 294.235 24.312 294.427 25.08C294.955 27.576 295.483 30.048 296.011 32.496C296.587 34.944 297.163 37.392 297.739 39.84ZM340.189 55.536C340.237 55.632 340.069 55.848 339.685 56.184C339.301 56.52 338.845 56.856 338.317 57.192C337.837 57.576 337.381 57.912 336.949 58.2C336.517 58.488 336.277 58.608 336.229 58.56V57.984C336.085 57.312 335.917 56.664 335.725 56.04C335.533 55.464 335.317 54.84 335.077 54.168C334.597 52.872 334.117 51.6 333.637 50.352C333.157 49.056 332.653 47.784 332.125 46.536C330.493 42.456 328.885 38.4 327.301 34.368C325.765 30.288 324.229 26.184 322.693 22.056C322.165 20.616 321.637 19.176 321.109 17.736C320.581 16.296 320.029 14.856 319.453 13.416L319.669 16.008C319.813 17.448 319.933 18.72 320.029 19.824C320.173 20.928 320.365 22.224 320.605 23.712C320.989 26.016 321.421 28.32 321.901 30.624C322.381 32.88 322.957 35.136 323.629 37.392C324.493 40.272 325.429 43.08 326.437 45.816C326.533 46.008 326.581 46.104 326.581 46.104C326.581 46.152 326.581 46.176 326.581 46.176C326.629 46.176 326.653 46.2 326.653 46.248C326.653 46.296 326.677 46.32 326.725 46.32C326.917 46.752 326.869 46.992 326.581 47.04C326.293 47.088 325.669 47.4 324.709 47.976C323.893 48.792 323.389 49.344 323.197 49.632C323.005 49.92 322.837 49.848 322.693 49.416C322.693 49.272 322.645 49.104 322.549 48.912V48.768C322.501 48.72 322.477 48.672 322.477 48.624L322.261 48.192C321.589 47.088 320.845 46.056 320.029 45.096C319.261 44.088 318.541 43.032 317.869 41.928C317.341 41.16 316.861 40.44 316.429 39.768C315.997 39.048 315.517 38.28 314.989 37.464C313.741 35.448 312.589 33.408 311.533 31.344C310.429 29.232 309.349 27.12 308.293 25.008C308.197 24.816 308.101 24.672 308.005 24.576C308.101 24.816 308.197 25.056 308.293 25.296C308.389 25.488 308.485 25.704 308.581 25.944C309.637 28.968 310.741 31.968 311.893 34.944C312.997 37.872 314.173 40.8 315.421 43.728C315.757 44.544 316.093 45.336 316.429 46.104C316.813 46.824 317.173 47.592 317.509 48.408C317.557 48.456 317.389 48.648 317.005 48.984C316.669 49.32 316.261 49.68 315.781 50.064C315.301 50.448 314.845 50.784 314.413 51.072C313.981 51.36 313.741 51.456 313.693 51.36C313.549 50.496 313.309 49.656 312.973 48.84C312.685 47.976 312.397 47.112 312.109 46.248C311.053 43.224 309.973 40.248 308.869 37.32C307.765 34.344 306.613 31.368 305.413 28.392C304.693 26.712 303.973 25.032 303.253 23.352C302.485 21.624 301.621 19.968 300.661 18.384C300.613 18.24 300.541 18.072 300.445 17.88C300.397 17.784 300.349 17.736 300.301 17.736C300.205 17.688 300.181 17.616 300.229 17.52C300.805 16.848 301.309 16.2 301.741 15.576C302.125 14.952 302.509 14.496 302.893 14.208L301.165 10.752C300.925 10.224 300.661 9.672 300.373 9.096C300.085 8.52 299.989 7.92 300.085 7.296C300.229 6.816 300.325 6.528 300.373 6.432C300.421 6.288 300.565 6.168 300.805 6.072C301.045 5.928 301.405 5.712 301.885 5.424C302.365 5.088 303.109 4.488 304.117 3.624C304.213 3.528 304.381 3.504 304.621 3.552C304.813 3.552 304.981 3.552 305.125 3.552C305.173 3.6 305.101 3.744 304.909 3.984C304.717 4.176 304.477 4.44 304.189 4.776C304.093 5.256 304.141 5.784 304.333 6.36C304.525 6.936 304.693 7.44 304.837 7.872C305.797 10.416 306.829 12.912 307.933 15.36C308.989 17.76 310.069 20.184 311.173 22.632C312.181 24.792 313.237 26.904 314.341 28.968C315.493 30.984 316.717 33 318.013 35.016C318.397 35.544 318.709 36 318.949 36.384C319.237 36.72 319.501 37.08 319.741 37.464C319.069 34.248 318.493 31.056 318.013 27.888C317.533 24.672 317.101 21.432 316.717 18.168C316.477 15.96 316.213 13.776 315.925 11.616C315.685 9.456 315.421 7.272 315.133 5.064C315.037 4.392 314.941 3.912 314.845 3.624C314.797 3.336 314.869 3.096 315.061 2.904C315.253 2.712 315.637 2.496 316.213 2.256C316.837 1.968 317.749 1.488 318.949 0.815998C319.045 0.719996 319.093 0.767996 319.093 0.959996C319.141 1.152 319.189 1.296 319.237 1.392C319.333 1.536 319.381 1.704 319.381 1.896C319.429 2.04 319.501 2.184 319.597 2.328C320.653 5.256 321.637 8.184 322.549 11.112C323.509 14.04 324.469 16.992 325.429 19.968C326.821 24.144 328.309 28.248 329.893 32.28C331.525 36.264 333.229 40.248 335.005 44.232C335.821 46.056 336.661 47.88 337.525 49.704C338.437 51.48 339.253 53.28 339.973 55.104L340.189 55.536ZM356.178 58.56C356.322 58.608 356.154 58.776 355.674 59.064C354.858 59.88 354.258 60.528 353.874 61.008C353.49 61.488 353.202 61.824 353.01 62.016C352.818 62.208 352.65 62.256 352.506 62.16C352.362 62.112 352.098 61.92 351.714 61.584C350.994 60.432 350.346 59.232 349.77 57.984C349.242 56.736 348.618 55.536 347.898 54.384C345.834 50.448 343.602 46.728 341.202 43.224C340.434 42.072 339.666 40.92 338.898 39.768C338.13 38.568 337.338 37.392 336.522 36.24C336.426 36.144 336.258 35.928 336.018 35.592C335.778 35.256 335.538 35.088 335.298 35.088C335.106 35.232 334.986 35.328 334.938 35.376C334.89 35.376 334.962 35.28 335.154 35.088H335.226C335.178 35.088 335.13 35.112 335.082 35.16C334.986 35.064 334.914 34.968 334.866 34.872C334.77 34.776 334.674 34.704 334.578 34.656C334.53 34.656 334.506 34.68 334.506 34.728C334.506 34.728 334.482 34.728 334.434 34.728C334.482 34.728 334.506 34.728 334.506 34.728C334.506 34.68 334.53 34.656 334.578 34.656C334.386 34.464 334.29 34.32 334.29 34.224C334.29 34.128 334.41 34.032 334.65 33.936C334.89 33.792 335.226 33.6 335.658 33.36C336.09 33.12 336.642 32.76 337.314 32.28L339.042 30.552C339.474 30.12 339.882 29.712 340.266 29.328C340.698 28.896 341.106 28.44 341.49 27.96C339.378 25.512 337.338 23.04 335.37 20.544C333.402 18.048 331.386 15.576 329.322 13.128C327.258 10.632 325.218 8.232 323.202 5.928C323.106 5.832 323.034 5.712 322.986 5.568C322.89 5.424 322.794 5.28 322.698 5.136C322.458 4.608 322.482 4.128 322.77 3.696C323.058 3.216 323.442 2.808 323.922 2.472C324.402 2.088 324.906 1.776 325.434 1.536C325.914 1.248 326.274 1.008 326.514 0.815998C326.994 0.719996 327.474 0.767996 327.954 0.959996C328.386 1.104 328.794 1.296 329.178 1.536C331.434 2.64 333.45 3.888 335.226 5.28C337.53 7.056 339.618 8.952 341.49 10.968C341.97 11.448 342.45 11.928 342.93 12.408C343.41 12.888 343.962 13.272 344.586 13.56C344.634 13.656 344.49 13.896 344.154 14.28C343.818 14.664 343.41 15.072 342.93 15.504C342.45 15.888 341.994 16.248 341.562 16.584C341.13 16.92 340.89 17.04 340.842 16.944C340.314 16.56 339.81 16.104 339.33 15.576C338.85 15.048 338.37 14.52 337.89 13.992C336.978 12.888 336.018 11.88 335.01 10.968C334.002 10.056 332.946 9.168 331.842 8.304C331.506 8.064 331.194 7.848 330.906 7.656C330.618 7.416 330.306 7.2 329.97 7.008C330.402 7.584 330.834 8.16 331.266 8.736C331.65 9.312 332.058 9.888 332.49 10.464C334.17 12.72 335.85 14.952 337.53 17.16C339.21 19.32 340.962 21.432 342.786 23.496C343.122 23.88 343.434 24.24 343.722 24.576C344.058 24.864 344.394 25.2 344.73 25.584C345.402 25.248 345.762 25.128 345.81 25.224C345.378 25.752 344.922 26.232 344.442 26.664C344.01 27.096 343.578 27.552 343.146 28.032C342.522 28.704 341.874 29.352 341.202 29.976C340.53 30.552 339.858 31.152 339.186 31.776C339.858 31.2 340.146 30.96 340.05 31.056C339.954 31.152 339.666 31.392 339.186 31.776C339.426 31.968 339.618 32.184 339.762 32.424C339.906 32.664 340.074 32.904 340.266 33.144C340.986 34.392 341.706 35.616 342.426 36.816C343.146 38.016 343.89 39.24 344.658 40.488C345.618 42.024 346.554 43.584 347.466 45.168C348.426 46.752 349.362 48.336 350.274 49.92L348.978 44.088C348.738 42.984 348.474 41.904 348.186 40.848C347.946 39.744 347.73 38.64 347.538 37.536C347.442 37.008 347.514 36.48 347.754 35.952C348.042 35.376 348.402 34.896 348.834 34.512C349.314 34.08 349.842 33.768 350.418 33.576C350.994 33.336 351.57 33.288 352.146 33.432C352.29 33.528 352.362 33.576 352.362 33.576C352.362 33.576 352.458 33.624 352.65 33.72C352.698 33.768 352.602 33.936 352.362 34.224C352.122 34.464 351.834 34.752 351.498 35.088C351.498 35.424 351.522 35.736 351.57 36.024C351.618 36.312 351.666 36.624 351.714 36.96C351.81 37.44 351.882 37.896 351.93 38.328C351.978 38.76 352.05 39.216 352.146 39.696C352.194 40.032 352.242 40.344 352.29 40.632C352.338 40.92 352.386 41.208 352.434 41.496C352.818 43.656 353.25 45.792 353.73 47.904C354.258 50.016 354.81 52.152 355.386 54.312C355.53 54.936 355.65 55.536 355.746 56.112C355.89 56.736 356.01 57.36 356.106 57.984C356.106 58.08 356.13 58.176 356.178 58.272C356.226 58.368 356.226 58.464 356.178 58.56ZM373.071 33.288C373.839 34.488 374.511 35.736 375.087 37.032C375.711 38.328 375.999 39.72 375.951 41.208C375.951 41.688 375.927 42.096 375.879 42.432C375.831 42.72 375.759 43.008 375.663 43.296C375.615 43.584 375.519 43.896 375.375 44.232C375.279 44.568 375.159 44.952 375.015 45.384C374.823 45.72 374.631 46.056 374.439 46.392C374.295 46.728 374.127 47.064 373.935 47.4C372.927 48.936 371.679 50.28 370.191 51.432C368.751 52.632 367.335 53.784 365.943 54.888C365.895 54.84 365.991 54.624 366.231 54.24C366.519 53.904 366.855 53.52 367.239 53.088C367.383 52.752 367.719 52.416 368.247 52.08C368.439 51.888 368.583 51.768 368.679 51.72L368.895 51.504C369.279 51.072 369.567 50.736 369.759 50.496C369.999 50.208 370.191 49.944 370.335 49.704C370.479 49.464 370.623 49.2 370.767 48.912C370.959 48.624 371.199 48.24 371.487 47.76C371.775 46.944 371.991 46.32 372.135 45.888C372.327 45.408 372.447 44.712 372.495 43.8C372.543 42.36 372.279 40.992 371.703 39.696C371.175 38.4 370.551 37.152 369.831 35.952C368.295 33.648 366.759 31.392 365.223 29.184C363.735 26.976 362.367 24.648 361.119 22.2C361.071 22.152 361.047 22.128 361.047 22.128C361.047 22.08 361.023 22.032 360.975 21.984C362.079 27.648 363.519 33.168 365.295 38.544C365.727 39.792 366.159 41.064 366.591 42.36C367.071 43.608 367.623 44.832 368.247 46.032C368.295 46.08 368.223 46.2 368.031 46.392C367.839 46.584 367.599 46.8 367.311 47.04C367.023 47.28 366.687 47.544 366.303 47.832C365.967 48.12 365.655 48.36 365.367 48.552C364.887 48.936 364.407 49.32 363.927 49.704C363.447 50.088 363.183 50.232 363.135 50.136C362.751 49.416 362.487 48.912 362.343 48.624C362.199 48.336 362.079 48.12 361.983 47.976C361.935 47.784 361.839 47.544 361.695 47.256C361.551 46.92 361.287 46.344 360.903 45.528C359.511 42.6 358.191 39.648 356.943 36.672C355.647 33.696 354.423 30.696 353.271 27.672C352.743 26.28 352.239 24.888 351.759 23.496C351.231 22.056 350.751 20.616 350.319 19.176C351.135 18.456 351.759 17.832 352.191 17.304C352.623 16.728 352.983 16.32 353.271 16.08C353.559 15.792 353.847 15.696 354.135 15.792C354.423 15.84 354.807 16.128 355.287 16.656C355.383 16.704 355.359 16.824 355.215 17.016C355.023 17.16 354.783 17.352 354.495 17.592C354.543 17.832 354.591 18.048 354.639 18.24C354.687 18.432 354.735 18.624 354.783 18.816C355.023 19.92 355.311 21 355.647 22.056C355.935 23.064 356.223 24.096 356.511 25.152C357.183 27.072 357.879 28.992 358.599 30.912C359.271 32.784 360.015 34.656 360.831 36.528C360.159 33.744 359.559 30.96 359.031 28.176C358.455 25.392 357.927 22.56 357.447 19.68C357.015 17.04 356.631 14.4 356.295 11.76C355.911 9.12 355.599 6.48 355.359 3.84C355.359 3.744 355.407 3.672 355.503 3.624V3.552C355.455 3.504 355.647 3.312 356.079 2.976C356.463 2.592 356.919 2.232 357.447 1.896C357.927 1.512 358.407 1.2 358.887 0.959996C359.319 0.671997 359.559 0.551997 359.607 0.599997C359.367 1.608 359.319 2.616 359.463 3.624C359.559 4.584 359.679 5.544 359.823 6.504C360.207 8.856 360.807 11.112 361.623 13.272C362.439 15.432 363.327 17.568 364.287 19.68C365.487 22.128 366.855 24.456 368.391 26.664C369.975 28.872 371.535 31.08 373.071 33.288ZM436.388 63.456C436.436 63.552 436.484 63.624 436.532 63.672C436.628 63.768 436.628 63.84 436.532 63.888C435.908 64.608 435.404 65.256 435.02 65.832C434.636 66.408 434.276 66.84 433.94 67.128C433.652 67.464 433.364 67.608 433.076 67.56C432.788 67.56 432.428 67.296 431.996 66.768C430.988 65.232 430.1 63.6 429.332 61.872C428.612 60.192 427.868 58.512 427.1 56.832C425.9 53.808 424.796 50.76 423.788 47.688C422.828 44.616 422.036 41.472 421.412 38.256C420.98 36 420.62 33.744 420.332 31.488C419.564 32.064 418.772 32.64 417.956 33.216C417.188 33.744 416.468 34.296 415.796 34.872C415.46 35.112 415.172 35.328 414.932 35.52C414.74 35.664 414.572 35.808 414.428 35.952C414.284 36.048 414.116 36.168 413.924 36.312C413.78 36.456 413.588 36.624 413.348 36.816C413.636 37.824 413.924 38.832 414.212 39.84C414.5 40.848 414.836 41.856 415.22 42.864C415.796 44.544 416.396 46.224 417.02 47.904C417.644 49.584 418.34 51.24 419.108 52.872C419.108 52.968 419.06 53.064 418.964 53.16C419.06 53.256 419.132 53.352 419.18 53.448C419.276 53.592 419.372 53.736 419.468 53.88L419.54 53.952C419.588 54.048 419.42 54.264 419.036 54.6C418.652 54.936 418.196 55.296 417.668 55.68C417.188 56.112 416.708 56.472 416.228 56.76C415.796 57.048 415.556 57.144 415.508 57.048C415.508 57.048 415.532 57.024 415.58 56.976C415.484 56.784 415.412 56.616 415.364 56.472C415.364 56.328 415.316 56.16 415.22 55.968H415.148C415.148 55.824 415.124 55.704 415.076 55.608C414.74 54.792 414.38 54 413.996 53.232C413.612 52.512 413.252 51.744 412.916 50.928C412.148 49.248 411.404 47.592 410.684 45.96C409.964 44.328 409.244 42.672 408.524 40.992C408.38 41.136 408.236 41.304 408.092 41.496C407.9 41.64 407.708 41.784 407.516 41.928C407.18 42.264 406.94 42.528 406.796 42.72C406.7 42.816 406.628 42.888 406.58 42.936C406.532 42.936 406.484 42.984 406.436 43.08L406.004 43.512C406.052 43.608 405.932 43.776 405.644 44.016C405.356 44.208 404.996 44.448 404.564 44.736C404.132 45.024 403.7 45.312 403.268 45.6C402.836 45.84 402.476 46.008 402.188 46.104C401.756 46.344 401.492 46.416 401.396 46.32C401.684 46.08 401.876 45.96 401.972 45.96C402.02 45.912 402.092 45.84 402.188 45.744C402.812 45.024 403.532 44.304 404.348 43.584C404.972 42.96 405.596 42.312 406.22 41.64C406.796 40.968 407.396 40.296 408.02 39.624C407.684 38.856 407.372 38.112 407.084 37.392C406.796 36.672 406.484 35.928 406.148 35.16C404.948 32.136 403.772 29.136 402.62 26.16C401.42 23.136 400.268 20.112 399.164 17.088C398.876 16.416 398.612 15.744 398.372 15.072C398.084 14.4 397.796 13.728 397.508 13.056C397.412 12.768 397.34 12.576 397.292 12.48C397.244 12.384 397.196 12.312 397.148 12.264C397.052 12.168 397.028 12.072 397.076 11.976C397.7 11.352 398.348 10.8 399.02 10.32C399.692 9.792 400.364 9.24 401.036 8.664C401.324 8.808 401.564 8.976 401.756 9.168C401.948 9.36 402.164 9.576 402.404 9.816C402.5 9.912 402.212 10.248 401.54 10.824C401.732 11.4 401.924 12 402.116 12.624C402.26 13.2 402.428 13.776 402.62 14.352C403.484 17.52 404.468 20.592 405.572 23.568C406.628 26.544 407.78 29.544 409.028 32.568C408.884 31.896 408.74 31.248 408.596 30.624C408.452 29.952 408.332 29.28 408.236 28.608C408.044 27.6 407.9 26.76 407.804 26.088C407.66 25.416 407.54 24.768 407.444 24.144C407.348 23.472 407.276 22.8 407.228 22.128C407.132 21.456 407.012 20.616 406.868 19.608C406.484 17.064 406.196 14.544 406.004 12.048C405.812 9.504 405.692 6.936 405.644 4.344C405.548 4.344 405.596 4.248 405.788 4.056V3.624C405.74 3.576 405.932 3.384 406.364 3.048C406.748 2.664 407.204 2.304 407.732 1.968C408.212 1.584 408.668 1.272 409.1 1.032C409.532 0.743998 409.772 0.623996 409.82 0.671996C409.772 1.344 409.796 1.992 409.892 2.616C409.988 3.24 410.084 3.864 410.18 4.488C410.372 5.736 410.588 6.984 410.828 8.232C411.116 9.432 411.452 10.656 411.836 11.904C412.172 13.008 412.628 14.064 413.204 15.072C413.78 16.032 414.404 16.992 415.076 17.952C415.7 18.72 416.252 19.512 416.732 20.328C417.26 21.144 417.716 22.008 418.1 22.92C418.628 24.456 418.724 25.944 418.388 27.384C418.34 27.528 418.292 27.696 418.244 27.888C418.196 28.032 418.148 28.2 418.1 28.392C417.524 29.784 416.78 31.104 415.868 32.352C414.956 33.552 414.02 34.704 413.06 35.808C413.06 35.904 413.084 35.976 413.132 36.024C414.044 35.256 414.956 34.512 415.868 33.792C416.78 33.024 417.716 32.256 418.676 31.488L419.54 30.84C419.54 30.84 419.564 30.792 419.612 30.696L419.828 30.48C419.78 30.432 419.828 30.336 419.972 30.192C420.164 30.048 420.38 29.88 420.62 29.688C420.908 29.448 421.22 29.184 421.556 28.896C421.94 28.56 422.3 28.272 422.636 28.032C423.02 27.792 423.356 27.6 423.644 27.456C423.932 27.312 424.1 27.264 424.148 27.312C424.196 28.704 424.268 30.12 424.364 31.56C424.46 32.952 424.58 34.344 424.724 35.736C425.108 38.472 425.66 41.16 426.38 43.8C427.148 46.392 428.036 48.984 429.044 51.576C429.236 52.056 429.428 52.512 429.62 52.944C429.812 53.424 430.004 53.928 430.196 54.456C430.388 54.84 430.556 55.2 430.7 55.536C430.844 55.872 431.012 56.232 431.204 56.616C431.588 56.328 431.924 56.088 432.212 55.896C432.5 55.704 432.668 55.656 432.716 55.752C432.812 55.992 432.908 56.232 433.004 56.472C433.148 56.712 433.268 56.952 433.364 57.192C433.844 58.152 434.3 59.112 434.732 60.072C435.212 61.032 435.692 61.992 436.172 62.952C436.22 63.096 436.292 63.264 436.388 63.456ZM411.476 20.976C411.14 20.496 410.828 20.04 410.54 19.608C410.204 19.176 409.916 18.696 409.676 18.168C409.772 19.032 409.868 19.8 409.964 20.472C410.06 21.096 410.156 21.72 410.252 22.344C410.3 22.92 410.396 23.544 410.54 24.216C410.636 24.888 410.756 25.68 410.9 26.592C411.14 27.84 411.38 29.088 411.62 30.336C411.908 31.536 412.22 32.76 412.556 34.008C412.892 33.528 413.18 33.048 413.42 32.568C413.708 32.088 413.972 31.584 414.212 31.056C414.26 30.864 414.308 30.696 414.356 30.552C414.404 30.408 414.452 30.24 414.5 30.048C414.74 29.376 414.836 28.68 414.788 27.96C414.74 27.24 414.596 26.544 414.356 25.872C414.02 24.96 413.588 24.096 413.06 23.28C412.58 22.464 412.052 21.696 411.476 20.976ZM457.38 55.896C456.708 56.424 456.06 56.976 455.436 57.552C454.86 58.128 454.236 58.68 453.564 59.208C453.036 58.728 452.652 58.152 452.412 57.48C452.172 56.808 451.86 56.184 451.476 55.608C450.372 53.448 449.316 51.288 448.308 49.128C447.348 46.92 446.388 44.712 445.428 42.504C445.332 42.168 445.212 41.856 445.068 41.568C444.924 41.28 444.804 40.992 444.708 40.704L441.468 41.784C441.66 42.648 441.828 43.536 441.972 44.448C442.116 45.312 442.212 46.2 442.26 47.112C442.26 47.496 442.26 47.88 442.26 48.264C442.26 48.6 442.236 48.96 442.188 49.344C441.372 50.016 440.724 50.616 440.244 51.144C439.812 51.72 439.404 52.128 439.02 52.368C438.684 52.608 438.324 52.68 437.939 52.584C437.604 52.488 437.148 52.104 436.572 51.432L435.492 49.992C434.964 49.272 434.484 48.528 434.052 47.76C433.668 46.992 433.284 46.2 432.899 45.384C432.611 45.528 432.299 45.696 431.963 45.888C431.627 46.032 431.339 46.152 431.099 46.248C430.811 46.344 430.619 46.416 430.523 46.464C430.379 46.512 430.187 46.584 429.947 46.68C429.851 46.584 430.067 46.248 430.595 45.672C431.123 45.048 431.651 44.472 432.179 43.944C431.507 42.504 430.859 41.04 430.235 39.552C429.611 38.064 429.035 36.552 428.507 35.016L427.427 31.56C427.379 31.464 427.355 31.368 427.355 31.272C427.355 31.128 427.331 31.008 427.283 30.912C427.139 30.672 427.091 30.528 427.139 30.48C427.715 29.856 428.339 29.28 429.011 28.752C429.635 28.176 430.259 27.6 430.883 27.024C431.123 27.216 431.339 27.432 431.531 27.672C431.675 27.864 431.819 28.08 431.963 28.32C431.963 28.416 431.771 28.656 431.387 29.04C431.483 29.568 431.603 30.096 431.747 30.624C431.843 31.152 431.963 31.68 432.107 32.208C432.635 33.888 433.212 35.544 433.836 37.176C434.508 38.808 435.252 40.416 436.068 42C436.308 41.904 436.5 41.832 436.644 41.784C436.836 41.688 437.052 41.592 437.292 41.496C436.86 39.144 436.404 36.816 435.924 34.512C435.492 32.16 435.036 29.832 434.556 27.528C433.98 24.696 433.428 21.888 432.899 19.104C432.323 16.32 431.747 13.512 431.171 10.68C430.979 9.72 430.763 8.784 430.523 7.872C430.283 6.912 430.091 5.952 429.947 4.992C429.851 4.464 429.947 3.912 430.235 3.336C430.475 2.712 430.835 2.184 431.315 1.752C431.747 1.272 432.251 0.959999 432.827 0.815998C433.355 0.623998 433.836 0.695998 434.268 1.032C434.652 1.416 434.916 1.896 435.06 2.472C435.204 3 435.372 3.528 435.563 4.056C436.86 8.664 438.276 13.272 439.812 17.88C440.916 21.24 442.092 24.552 443.34 27.816C444.636 31.032 445.98 34.272 447.372 37.536C447.9 37.344 448.404 37.176 448.884 37.032C449.412 36.84 449.94 36.624 450.468 36.384C450.756 36.288 450.972 36.216 451.116 36.168C451.308 36.072 451.524 35.952 451.764 35.808C451.86 35.76 451.932 35.712 451.98 35.664C452.076 35.616 452.172 35.568 452.268 35.52C452.364 35.472 452.412 35.448 452.412 35.448C452.364 35.448 452.34 35.472 452.34 35.52C452.772 35.184 452.988 35.088 452.988 35.232C453.084 35.328 453.132 35.424 453.132 35.52C453.132 35.616 453.108 35.688 453.06 35.736C452.484 36.264 451.98 36.744 451.548 37.176C451.164 37.56 450.804 37.896 450.468 38.184C450.132 38.472 449.796 38.712 449.46 38.904C449.124 39.096 448.716 39.288 448.236 39.48C448.284 39.672 448.38 39.864 448.524 40.056C450.54 44.472 452.7 48.696 455.004 52.728C455.292 53.16 455.556 53.592 455.796 54.024C456.036 54.456 456.3 54.888 456.588 55.32C456.684 55.416 456.78 55.536 456.876 55.68C457.02 55.824 457.14 55.896 457.236 55.896H457.38ZM437.724 43.944C437.676 43.848 437.652 43.752 437.652 43.656C437.652 43.512 437.628 43.392 437.58 43.296C437.292 43.392 437.076 43.488 436.932 43.584C437.22 44.112 437.556 44.664 437.939 45.24L437.724 43.944ZM441.036 39.84C441.516 39.648 441.996 39.48 442.476 39.336C442.956 39.144 443.436 38.952 443.916 38.76C441.372 32.712 438.996 26.592 436.788 20.4C436.932 21.216 437.076 22.008 437.22 22.776C437.364 23.544 437.532 24.312 437.724 25.08C438.252 27.576 438.78 30.048 439.308 32.496C439.884 34.944 440.46 37.392 441.036 39.84ZM462.822 54.24C462.966 54.528 463.062 54.72 463.11 54.816C463.158 54.96 463.206 55.056 463.254 55.104C463.302 55.2 463.35 55.272 463.398 55.32C463.446 55.416 463.518 55.584 463.614 55.824C463.662 55.92 463.494 56.136 463.11 56.472C462.774 56.808 462.366 57.144 461.886 57.48C461.406 57.864 460.95 58.2 460.518 58.488C460.086 58.776 459.846 58.872 459.798 58.776C459.702 58.536 459.654 58.368 459.654 58.272C459.654 58.176 459.63 58.08 459.582 57.984C459.582 57.936 459.558 57.84 459.51 57.696C459.462 57.6 459.366 57.408 459.222 57.12C458.358 54.912 457.494 52.728 456.63 50.568C455.766 48.36 454.926 46.128 454.11 43.872C453.966 44.016 453.87 44.136 453.822 44.232C453.87 44.328 453.702 44.544 453.318 44.88C452.886 45.168 452.406 45.48 451.878 45.816C451.35 46.104 450.846 46.392 450.366 46.68C449.886 46.92 449.622 46.992 449.574 46.896C450.246 46.176 450.942 45.504 451.662 44.88C452.334 44.208 453.03 43.56 453.75 42.936C452.454 39.288 451.206 35.64 450.006 31.992C448.758 28.344 447.51 24.648 446.262 20.904C445.59 18.888 444.918 16.872 444.246 14.856C443.526 12.84 442.854 10.8 442.23 8.736C442.23 8.64 442.182 8.4 442.086 8.016C441.99 7.584 441.966 7.344 442.014 7.296C442.494 6.864 442.926 6.408 443.31 5.928C443.694 5.448 444.054 5.04 444.39 4.704C444.726 4.32 445.062 4.08 445.398 3.984C445.734 3.888 446.094 4.008 446.478 4.344C446.718 4.584 446.91 4.824 447.054 5.064C447.198 5.256 447.366 5.472 447.558 5.712C447.606 5.808 447.51 5.976 447.27 6.216C447.03 6.456 446.718 6.744 446.334 7.08C446.718 9.048 447.174 10.992 447.702 12.912C448.182 14.784 448.686 16.68 449.214 18.6C449.502 19.656 449.79 20.688 450.078 21.696C450.366 22.704 450.678 23.712 451.014 24.72C450.726 19.728 450.726 14.736 451.014 9.744C451.11 8.784 451.182 7.848 451.23 6.936C451.278 6.024 451.302 5.088 451.302 4.128C451.974 3.552 452.55 3 453.03 2.472C453.462 1.896 453.87 1.464 454.254 1.176C454.638 0.839996 454.998 0.695997 455.334 0.743999C455.67 0.791998 456.054 1.128 456.486 1.752C456.918 2.472 457.326 3.192 457.71 3.912C458.094 4.632 458.454 5.376 458.79 6.144C459.366 7.44 459.894 8.736 460.374 10.032C460.854 11.328 461.262 12.672 461.598 14.064C461.838 15.12 462.054 16.176 462.246 17.232C462.438 18.24 462.51 19.272 462.462 20.328V20.76C462.462 21 462.462 21.12 462.462 21.12C462.03 21.552 461.574 22.032 461.094 22.56C460.662 23.088 460.254 23.544 459.87 23.928C459.486 24.264 459.126 24.48 458.79 24.576C458.454 24.672 458.19 24.504 457.998 24.072C457.854 23.832 457.71 23.592 457.566 23.352C457.47 23.064 457.35 22.8 457.206 22.56C457.158 22.512 457.278 22.368 457.566 22.128C457.854 21.84 458.19 21.528 458.574 21.192C458.526 20.472 458.43 19.752 458.286 19.032C458.19 18.264 458.07 17.544 457.926 16.872C457.686 15.48 457.302 14.136 456.774 12.84C456.294 11.544 455.766 10.272 455.19 9.024C455.094 8.784 454.974 8.568 454.83 8.376C454.686 8.184 454.566 7.968 454.47 7.728C454.086 10.896 453.846 14.088 453.75 17.304C453.654 20.472 453.75 23.64 454.038 26.808C454.134 27.624 454.254 28.416 454.398 29.184C454.494 29.904 454.59 30.648 454.686 31.416C454.926 32.808 455.094 33.768 455.19 34.296C455.286 34.824 455.358 35.256 455.406 35.592C455.502 35.928 455.598 36.336 455.694 36.816C455.838 37.248 456.078 38.112 456.414 39.408C456.414 39.504 456.366 39.576 456.27 39.624C456.366 39.816 456.438 40.008 456.486 40.2C456.534 40.344 456.606 40.536 456.702 40.776C457.326 40.296 457.974 39.864 458.646 39.48C459.606 38.808 460.59 38.232 461.598 37.752C462.606 37.272 463.638 36.816 464.694 36.384C464.742 36.432 464.622 36.648 464.334 37.032C464.046 37.416 463.71 37.824 463.326 38.256C462.942 38.64 462.582 39 462.246 39.336C461.91 39.624 461.718 39.744 461.67 39.696C460.854 40.032 460.062 40.368 459.294 40.704C458.574 41.04 457.854 41.424 457.134 41.856C457.998 44.016 458.886 46.128 459.798 48.192C460.758 50.208 461.766 52.224 462.822 54.24ZM482.369 52.584C482.417 52.68 482.225 52.896 481.793 53.232C481.409 53.568 480.953 53.904 480.425 54.24C479.945 54.624 479.465 54.936 478.985 55.176C478.553 55.464 478.313 55.56 478.265 55.464C478.361 55.176 478.385 54.888 478.337 54.6C478.337 54.312 478.337 54.024 478.337 53.736C478.193 53.064 478.001 52.392 477.761 51.72C477.521 51.096 477.281 50.448 477.041 49.776C476.225 47.76 475.433 45.792 474.665 43.872C473.849 41.952 473.033 39.984 472.217 37.968C470.969 34.944 469.697 31.944 468.401 28.968C467.105 25.944 465.761 22.92 464.369 19.896C463.505 17.928 462.641 15.96 461.777 13.992C460.913 12.024 460.145 10.032 459.473 8.016C459.233 7.296 459.041 6.576 458.897 5.856C458.705 5.136 458.561 4.392 458.465 3.624C458.417 3.576 458.609 3.384 459.041 3.048C459.425 2.712 459.881 2.376 460.409 2.04C460.937 1.656 461.441 1.344 461.921 1.104C462.353 0.815997 462.593 0.695997 462.641 0.743999C462.545 1.512 462.569 2.28 462.713 3.048C462.857 3.768 463.001 4.464 463.145 5.136C463.721 7.296 464.393 9.384 465.161 11.4C465.929 13.416 466.721 15.432 467.537 17.448C468.785 20.472 470.081 23.496 471.425 26.52C472.721 29.496 474.017 32.496 475.313 35.52C476.177 37.44 477.041 39.36 477.905 41.28C478.769 43.152 479.681 45.048 480.641 46.968C480.881 47.592 481.145 48.216 481.433 48.84C481.769 49.464 482.033 50.112 482.225 50.784C482.369 51.408 482.417 52.008 482.369 52.584ZM486.91 55.464C486.91 55.464 486.862 55.44 486.766 55.392H486.91V55.464ZM486.694 55.392H486.766H486.694ZM508.87 61.08C508.87 61.128 508.894 61.176 508.942 61.224C508.99 61.32 508.99 61.392 508.942 61.44C507.79 62.592 506.926 63.552 506.35 64.32C505.822 65.088 505.318 65.232 504.838 64.752C504.694 64.896 504.67 64.848 504.766 64.608L504.334 63.96C503.662 62.424 503.014 60.864 502.39 59.28C501.814 57.744 501.19 56.208 500.518 54.672C499.366 51.744 498.238 48.816 497.134 45.888C496.03 42.96 494.974 39.984 493.966 36.96C493.294 35.088 492.646 33.216 492.022 31.344C491.446 29.472 490.918 27.576 490.438 25.656C489.19 26.904 487.87 28.08 486.478 29.184C485.134 30.288 483.766 31.392 482.374 32.496C482.902 33.648 483.43 34.8 483.958 35.952C484.486 37.056 485.014 38.184 485.542 39.336C486.406 41.112 487.222 42.912 487.99 44.736C488.758 46.56 489.502 48.384 490.222 50.208C490.414 50.592 490.558 51 490.654 51.432C490.798 51.864 490.918 52.272 491.014 52.656C491.062 52.752 490.918 52.92 490.582 53.16C490.246 53.448 489.838 53.736 489.358 54.024C488.878 54.312 488.398 54.6 487.918 54.888C487.486 55.176 487.15 55.344 486.91 55.392C487.006 55.2 486.982 54.792 486.838 54.168C486.694 53.544 486.598 53.16 486.55 53.016C485.398 49.224 484.03 45.48 482.446 41.784C481.918 40.632 481.414 39.48 480.934 38.328C480.454 37.176 479.95 36 479.422 34.8C478.846 35.28 478.27 35.736 477.694 36.168C477.118 36.6 476.542 37.032 475.966 37.464C475.918 37.512 475.774 37.632 475.534 37.824C475.294 38.016 475.126 38.112 475.03 38.112C474.502 38.016 474.334 37.824 474.526 37.536C474.718 37.2 474.862 36.936 474.958 36.744C475.486 35.64 475.942 34.56 476.326 33.504C476.662 32.4 477.022 31.296 477.406 30.192C476.878 28.944 476.35 27.72 475.822 26.52C475.294 25.272 474.766 24.024 474.238 22.776C473.23 20.472 472.246 18.192 471.286 15.936C470.326 13.632 469.462 11.28 468.694 8.88C468.502 8.112 468.334 7.344 468.19 6.576C467.998 5.808 467.974 5.04 468.118 4.272C468.07 4.176 468.262 3.96 468.694 3.624C469.078 3.288 469.534 2.952 470.062 2.616C470.59 2.28 471.094 1.992 471.574 1.752C472.054 1.512 472.318 1.44 472.366 1.536C471.982 2.208 471.862 2.976 472.006 3.84C472.102 4.656 472.222 5.4 472.366 6.072C472.942 8.568 473.662 10.992 474.526 13.344C475.39 15.696 476.302 18.048 477.262 20.4C477.55 21.168 477.838 21.912 478.126 22.632C478.414 23.352 478.726 24.096 479.062 24.864C479.638 22.8 480.19 20.76 480.718 18.744C481.246 16.68 481.726 14.616 482.158 12.552C482.35 11.592 482.518 10.632 482.662 9.672C482.806 8.664 482.878 7.68 482.878 6.72C482.878 6.528 482.902 6.384 482.95 6.288C482.95 6.192 483.022 6.096 483.166 6C483.31 5.904 483.526 5.808 483.814 5.712C484.102 5.568 484.486 5.352 484.966 5.064C486.07 4.104 486.694 3.528 486.838 3.336C486.982 3.096 487.03 3.24 486.982 3.768C486.886 4.056 486.886 4.416 486.982 4.848C486.934 4.848 486.91 4.872 486.91 4.92C486.862 4.968 486.838 5.016 486.838 5.064C486.838 5.064 486.814 5.088 486.766 5.136C486.622 5.952 486.454 6.768 486.262 7.584C486.118 8.352 485.95 9.144 485.758 9.96C485.134 12.552 484.486 15.096 483.814 17.592C483.142 20.04 482.446 22.512 481.726 25.008C481.534 25.632 481.366 26.232 481.222 26.808C481.03 27.384 480.838 27.984 480.646 28.608C480.886 29.136 481.126 29.664 481.366 30.192C481.558 30.672 481.774 31.176 482.014 31.704C482.542 31.32 483.07 30.912 483.598 30.48C484.126 30.048 484.654 29.64 485.182 29.256C485.326 29.16 485.47 29.04 485.614 28.896C486.094 28.464 486.55 28.032 486.982 27.6C487.414 27.12 487.846 26.64 488.278 26.16C488.614 25.728 488.926 25.296 489.214 24.864C489.55 24.432 489.79 23.952 489.934 23.424V23.28C489.934 23.088 489.934 22.992 489.934 22.992C489.934 22.944 489.958 22.92 490.006 22.92C490.006 22.68 489.982 22.536 489.934 22.488C489.886 22.392 489.886 22.344 489.934 22.344C490.03 22.296 490.15 22.248 490.294 22.2C490.486 22.152 490.798 22.032 491.23 21.84C492.142 20.976 492.838 20.304 493.318 19.824C493.798 19.344 494.062 19.44 494.11 20.112C494.158 20.112 494.158 20.136 494.11 20.184V20.328C494.062 20.424 494.038 20.52 494.038 20.616C494.038 20.712 494.014 20.808 493.966 20.904C493.966 21 493.966 21.12 493.966 21.264C494.014 21.408 494.038 21.528 494.038 21.624C494.278 23.832 494.686 26.016 495.262 28.176C495.838 30.288 496.438 32.424 497.062 34.584C498.022 37.608 499.054 40.584 500.158 43.512C501.31 46.392 502.51 49.272 503.758 52.152C504.43 53.64 505.078 55.128 505.702 56.616C506.374 58.104 507.166 59.544 508.078 60.936C508.126 60.984 508.15 61.032 508.15 61.08C508.198 61.128 508.246 61.176 508.294 61.224C508.63 61.08 508.822 61.032 508.87 61.08Z" fill="black"/>
</svg>
