<svg width="197" height="141" viewBox="0 0 197 141" fill="none" xmlns="http://www.w3.org/2000/svg">
<path d="M51.0996 20.4711C51.7168 20.7802 52.2017 21.1115 52.5544 21.4648C52.9512 21.774 52.9953 22.326 52.6867 23.121C52.5103 23.6069 52.2458 24.0264 51.8931 24.3798C51.5846 24.6889 51.2539 25.0202 50.9012 25.3735C50.9453 25.4618 50.791 25.6385 50.4384 25.9035C50.0857 26.1243 49.6889 26.3672 49.2481 26.6322C48.8072 26.8972 48.3884 27.1402 47.9917 27.361C47.639 27.5376 47.4406 27.6039 47.3965 27.5597C47.7492 27.2064 48.168 26.7868 48.6529 26.301C49.1819 25.8152 49.4464 25.3073 49.4464 24.7773C49.4464 24.2914 49.3142 23.9602 49.0497 23.7835C48.8293 23.6069 48.5427 23.4081 48.19 23.1873C47.8814 23.0989 47.5949 23.0106 47.3304 22.9223C47.0659 22.7898 46.7793 22.6794 46.4707 22.591C45.545 22.3702 44.5751 22.2377 43.5611 22.1935C42.5913 22.1052 41.6435 22.061 40.7177 22.061C38.6016 22.061 36.4856 22.1714 34.3695 22.3923C32.2975 22.5689 30.2035 22.8119 28.0874 23.121C27.4702 23.2535 26.831 23.386 26.1698 23.5185C25.5085 23.6069 24.8472 23.6952 24.1859 23.7835C24.1859 23.8277 24.208 23.8719 24.2521 23.916C24.2521 23.916 24.2521 23.9381 24.2521 23.9823C24.4725 24.6889 24.715 25.3956 24.9795 26.1022C25.244 26.7647 25.5085 27.4493 25.773 28.156C26.9192 31.3359 28.1756 34.4717 29.5422 37.5634C30.9089 40.655 32.3636 43.7025 33.9066 46.7058C34.4356 47.81 35.0969 48.9583 35.8904 50.1508C35.9345 50.2391 35.7802 50.4378 35.4275 50.747C35.1189 51.0562 34.7442 51.3653 34.3034 51.6745C33.8625 52.0278 33.4437 52.337 33.047 52.602C32.6943 52.867 32.4959 52.9553 32.4518 52.867C31.9669 51.6303 31.4379 50.3716 30.8648 49.0908C29.5422 45.9108 28.2638 42.7529 27.0294 39.6171C25.7509 36.4371 24.5386 33.2351 23.3924 30.011C23.0397 29.0835 22.7091 28.156 22.4005 27.2285C22.0919 26.2568 21.7613 25.3073 21.4086 24.3798C19.9979 24.6889 18.6313 25.0202 17.3087 25.3735C15.9421 25.7268 14.5975 26.1022 13.275 26.4997C13.0546 26.7647 12.8121 27.0297 12.5476 27.2947C12.239 27.5597 11.9745 27.8026 11.7541 28.0235C11.4896 28.2443 11.2691 28.421 11.0928 28.5535C10.9165 28.686 10.8063 28.7301 10.7622 28.686C10.145 28.5976 9.50575 28.6197 8.84448 28.7522C8.18321 28.8406 7.54399 28.951 6.9268 29.0835C6.00102 29.3043 5.07525 29.5693 4.14947 29.8785C3.22369 30.1876 2.31996 30.5189 1.43826 30.8722C1.0415 31.1372 0.865162 31.2034 0.909246 31.0709L0.84312 31.1372C0.754951 31.1372 0.688823 31.1814 0.644738 31.2697C0.600654 31.3139 0.534527 31.3139 0.446358 31.2697C0.0495956 31.1372 -0.0826586 30.9605 0.049595 30.7397C0.18185 30.4747 0.446358 30.1876 0.84312 29.8785C1.23988 29.5251 1.70277 29.1939 2.23179 28.8847C2.71672 28.5756 3.15756 28.2885 3.55432 28.0235V27.9572C3.55432 27.9131 3.64249 27.891 3.81883 27.891C3.907 27.8026 3.97313 27.7585 4.01722 27.7585C4.14947 27.6701 4.30377 27.626 4.4801 27.626C4.61236 27.5818 4.76665 27.5156 4.94299 27.4272C5.73652 27.1622 6.17736 27.0297 6.26553 27.0297C6.30962 26.9856 6.33166 26.9635 6.33166 26.9635C6.33166 26.9635 6.41983 26.9414 6.59617 26.8972C6.7725 26.8089 7.34561 26.5881 8.31547 26.2347C10.3874 25.5281 12.4594 24.8877 14.5314 24.3135C16.6034 23.7394 18.6974 23.2094 20.8135 22.7235C19.9318 20.2944 19.0721 17.8873 18.2345 15.5023C17.3528 13.1174 16.4491 10.7324 15.5233 8.34742C14.9943 6.88993 14.3991 5.43245 13.7379 3.97496C13.6497 3.70996 13.5615 3.51122 13.4734 3.37872C13.4293 3.29038 13.3852 3.22413 13.3411 3.17997C13.2529 3.1358 13.2309 3.06955 13.275 2.98122C13.8922 2.45123 14.5094 1.94331 15.1265 1.45749C15.7437 0.971657 16.3609 0.485828 16.9781 0C17.1544 0.176665 17.3087 0.353331 17.441 0.529996C17.5732 0.706659 17.7275 0.905407 17.9039 1.12624C18.1243 1.34707 18.3227 1.54582 18.499 1.72248C18.6313 1.89915 18.8076 2.09789 19.028 2.31873C19.0721 2.36289 18.984 2.49539 18.7635 2.71622C18.5431 2.93706 18.2566 3.20205 17.9039 3.51121C18.0361 3.90871 18.1684 4.32829 18.3006 4.76995C18.3888 5.16745 18.499 5.56494 18.6313 5.96244C19.4248 8.65658 20.2404 11.3507 21.078 14.0449C21.8715 16.739 22.7091 19.4331 23.5908 22.1273C23.9435 22.039 24.2962 21.9727 24.6488 21.9285C24.9574 21.8844 25.2881 21.8181 25.6407 21.7298C26.3902 21.5973 27.1396 21.4869 27.8891 21.3985C28.6385 21.266 29.3879 21.1335 30.1374 21.001C32.2975 20.6919 34.4356 20.449 36.5517 20.2723C38.7118 20.0515 40.872 19.8969 43.0321 19.8086C44.002 19.7644 44.9939 19.7644 46.0078 19.8086C47.0659 19.8086 48.1019 19.8748 49.1158 20.0073C49.4685 20.0956 49.7991 20.184 50.1077 20.2723C50.4163 20.3165 50.7469 20.3827 51.0996 20.4711Z" fill="black"/>
<path d="M49.8205 35.0459C49.8646 35.1342 49.7323 35.3109 49.4237 35.5759C49.1592 35.7967 48.8286 36.0617 48.4318 36.3709C48.0351 36.6801 47.6383 36.9671 47.2415 37.2321C46.8888 37.453 46.6243 37.5855 46.448 37.6296C46.7125 38.3363 46.977 39.0209 47.2415 39.6834C47.5501 40.3459 47.8587 41.0084 48.1673 41.6708C48.2555 41.8033 48.3216 41.9579 48.3657 42.1346C48.4539 42.2671 48.542 42.3996 48.6302 42.5321C48.6302 42.5763 48.6743 42.6867 48.7624 42.8633C48.9388 42.775 49.027 42.775 49.027 42.8633C49.071 42.9075 49.0931 42.9517 49.0931 42.9958C49.0931 43.04 49.1151 43.1062 49.1592 43.1946C49.2915 43.5479 49.3796 43.7908 49.4237 43.9233C49.4678 44.0558 49.4017 44.1442 49.2253 44.1883C49.0931 44.2767 48.8506 44.3429 48.4979 44.3871C48.1453 44.4754 47.6603 44.6521 47.0431 44.9171C46.1615 45.5796 45.6324 45.9991 45.4561 46.1758C45.3238 46.3525 45.2136 46.1316 45.1255 45.5133C45.0373 45.0716 44.9271 44.7846 44.7948 44.6521C44.7507 44.4754 44.7067 44.3208 44.6626 44.1883C44.6185 44.0558 44.5744 43.9012 44.5303 43.7246C44.1776 42.7529 43.825 41.7813 43.4723 40.8096C43.1196 39.8379 42.7669 38.8663 42.4143 37.8946C41.6207 37.983 40.8272 38.0934 40.0337 38.2259C39.2402 38.3584 38.4687 38.535 37.7192 38.7559C37.9837 39.3742 38.2483 39.9925 38.5128 40.6109C38.8214 41.185 39.152 41.7592 39.5047 42.3333C39.7692 42.6867 39.9676 42.9075 40.0998 42.9958C40.2321 43.04 40.2321 43.0842 40.0998 43.1283C39.9676 43.1725 39.681 43.2608 39.2402 43.3933C38.7993 43.4817 38.116 43.7467 37.1902 44.1883C36.6612 44.5858 36.2865 44.895 36.0661 45.1158C35.8897 45.3808 35.7795 45.5354 35.7354 45.5796C35.6913 45.6237 35.6913 45.5796 35.7354 45.4471C35.7795 45.3587 35.7795 45.1821 35.7354 44.9171C35.7354 44.9171 35.7134 44.9391 35.6693 44.9833C35.6693 44.9391 35.6913 44.895 35.7354 44.8508C35.6913 44.8066 35.6693 44.6962 35.6693 44.5196C35.3607 43.7687 35.0521 42.9958 34.7435 42.2008C34.4349 41.4058 34.1263 40.6329 33.8177 39.8821C33.5532 39.9704 33.2887 40.0588 33.0242 40.1471C32.7597 40.2354 32.4732 40.3459 32.1646 40.4784C31.9882 40.5667 31.7458 40.6992 31.4372 40.8759C31.0845 41.0084 30.9743 41.0304 31.1065 40.9421C31.1947 40.8538 31.2829 40.8096 31.3711 40.8096C31.4592 40.7654 31.5474 40.6992 31.6356 40.6109C31.0184 40.8759 30.4453 41.0967 29.9163 41.2733C29.3432 41.45 29.0346 41.4942 28.9905 41.4058C29.2109 41.2292 29.3652 41.1188 29.4534 41.0746C29.5415 41.0304 29.7179 40.9421 29.9824 40.8096L33.3549 38.8221C33.2226 38.4246 33.0463 38.005 32.8258 37.5634C31.9442 35.3109 31.0625 33.0805 30.1808 30.8722C29.2991 28.6197 28.4394 26.3672 27.6018 24.1148C27.0287 22.6131 26.4556 21.1335 25.8825 19.6761C25.2653 18.1744 24.7143 16.6728 24.2293 15.1711C24.1853 15.0828 24.1632 14.9944 24.1632 14.9061C24.1632 14.8178 24.1412 14.7294 24.0971 14.6411C24.0971 14.5528 24.075 14.4644 24.031 14.3761C23.9869 14.2878 23.9869 14.2215 24.031 14.1774C24.6041 13.7799 25.111 13.4045 25.5519 13.0511C25.9486 12.6536 26.3234 12.3445 26.676 12.1236C26.9846 11.9028 27.3153 11.7703 27.6679 11.7261C27.9765 11.682 28.3513 11.7924 28.7921 12.0574C28.8362 12.1015 28.6378 12.3003 28.197 12.6536V13.0511C28.5055 14.6411 28.9244 16.1869 29.4534 17.6886C29.9383 19.1902 30.4232 20.714 30.9082 22.2598C31.6576 24.5564 32.4952 26.8089 33.421 29.0172C34.3468 31.1814 35.2946 33.3897 36.2644 35.6422C36.3967 35.9072 36.529 36.1942 36.6612 36.5034C36.7935 36.7684 36.9257 37.0334 37.058 37.2984C37.2784 37.2542 37.4547 37.2101 37.587 37.1659C37.7633 37.1217 37.9617 37.0555 38.1821 36.9671C38.7552 36.7905 39.3283 36.6359 39.9014 36.5034C40.5186 36.3709 41.1358 36.2384 41.753 36.1059C41.5326 35.5317 41.2901 34.9576 41.0256 34.3834C40.8052 33.8093 40.5847 33.2351 40.3643 32.6609C39.3063 29.9668 38.2483 27.2727 37.1902 24.5785C36.1322 21.8844 35.0301 19.1902 33.8839 16.4961C33.5312 15.7011 33.2006 14.9061 32.892 14.1111C32.5834 13.272 32.2527 12.4549 31.9001 11.6599C31.8119 11.4391 31.7237 11.152 31.6356 10.7986C31.5915 10.7103 31.5474 10.622 31.5033 10.5336C31.4151 10.4011 31.4151 10.3128 31.5033 10.2686C32.1205 9.73866 32.7597 9.27491 33.421 8.87741C34.0823 8.47992 34.7435 8.03826 35.4048 7.55243C35.6252 7.68492 35.8016 7.83951 35.9338 8.01617C36.1102 8.19284 36.2644 8.39158 36.3967 8.61242C36.4408 8.65658 36.1983 8.87741 35.6693 9.27491C35.7575 9.53991 35.8236 9.8049 35.8677 10.0699C35.9118 10.3349 35.9779 10.5778 36.0661 10.7986C36.1983 11.2403 36.3085 11.6157 36.3967 11.9249C36.4849 12.1899 36.573 12.4549 36.6612 12.7199C36.7494 12.9849 36.8375 13.272 36.9257 13.5811C37.0139 13.8461 37.1241 14.1994 37.2564 14.6411C38.2262 17.4236 39.2181 20.1619 40.2321 22.856C41.2901 25.506 42.3922 28.2001 43.5384 30.9384C43.8911 31.6893 44.2217 32.4401 44.5303 33.1909C44.8389 33.9418 45.1475 34.6926 45.4561 35.4434C45.8529 35.3992 46.2496 35.3551 46.6464 35.3109C47.0431 35.2667 47.4399 35.2226 47.8367 35.1784C48.1893 35.1342 48.4318 35.1122 48.5641 35.1122C48.6963 35.1122 48.8065 35.1122 48.8947 35.1122C48.9829 35.1122 49.071 35.1122 49.1592 35.1122C49.2915 35.068 49.5119 35.0459 49.8205 35.0459Z" fill="black"/>
<path d="M64.2284 41.6046C64.2725 41.6929 64.1182 41.8917 63.7655 42.2008C63.4128 42.51 62.994 42.8412 62.5091 43.1946C62.0683 43.5037 61.6495 43.7908 61.2527 44.0558C60.8559 44.2767 60.6355 44.3429 60.5914 44.2546H54.1771C53.8244 44.2546 53.4056 44.2546 52.9207 44.2546C52.4798 44.2546 52.1492 44.1 51.9288 43.7908C51.8847 43.7025 51.8627 43.6362 51.8627 43.5921C51.8627 43.5479 51.8406 43.5037 51.7965 43.4596C51.8406 42.9296 52.017 42.4658 52.3256 42.0683C52.6341 41.6267 52.9427 41.185 53.2513 40.7434C53.9126 39.9042 54.4857 39.065 54.9706 38.2259C54.9706 38.1817 54.9706 38.1596 54.9706 38.1596C55.0147 38.1155 55.0368 38.0713 55.0368 38.0271C54.9927 37.7621 54.7061 37.4309 54.1771 37.0334C53.6481 36.5917 53.2954 36.2605 53.1191 36.0396C52.017 34.8913 50.981 33.6988 50.0111 32.4622C48.9972 31.2255 48.0493 29.9226 47.1676 28.5535C46.9472 28.2001 46.7488 27.8689 46.5725 27.5597C46.3962 27.2506 46.2198 26.9193 46.0435 26.566C45.0736 24.8877 44.214 23.1652 43.4645 21.3985C42.671 19.5877 41.9877 17.7548 41.4146 15.8998C41.1942 15.0607 40.9958 14.2215 40.8195 13.3824C40.6431 12.499 40.577 11.6157 40.6211 10.7324C40.6211 10.6441 40.6211 10.5557 40.6211 10.4674C40.577 10.3349 40.599 10.2245 40.6872 10.1362C41.3044 9.65032 41.9657 9.20866 42.671 8.81117C43.3764 8.3695 44.0597 7.92784 44.721 7.48618H45.0516C45.4924 7.57451 45.9553 7.83951 46.4403 8.28117C46.8811 8.72283 47.2779 9.05408 47.6305 9.27491C48.6004 10.1141 49.5262 10.9974 50.4079 11.9249C51.2896 12.8082 52.1272 13.7578 52.9207 14.7736C53.4056 15.3919 53.8685 16.0323 54.3094 16.6948C54.7502 17.3132 55.1911 17.9757 55.6319 18.6823C55.676 18.7707 55.4776 18.9473 55.0368 19.2123C54.64 19.4773 54.1991 19.7644 53.7142 20.0736C53.2293 20.3386 52.7664 20.5815 52.3256 20.8023C51.8847 20.979 51.6422 21.0231 51.5982 20.9348C51.2896 20.184 50.9369 19.4773 50.5401 18.8148C50.1434 18.1523 49.7246 17.5119 49.2837 16.8936C48.6224 16.0103 47.9171 15.1711 47.1676 14.3761C46.3741 13.5811 45.5365 12.8082 44.6548 12.0574C44.6989 12.4107 44.743 12.742 44.7871 13.0511C44.8312 13.3603 44.8973 13.6694 44.9855 13.9786C45.4263 15.8778 46.0214 17.7327 46.7709 19.5436C47.4762 21.3102 48.3359 23.0327 49.3498 24.711C49.5262 25.0202 49.7246 25.3293 49.945 25.6385C50.1213 25.9477 50.3197 26.2568 50.5401 26.566C51.4218 27.9351 52.3917 29.216 53.4497 30.4085C54.5077 31.6009 55.6319 32.7272 56.8222 33.7872C57.0426 34.0963 57.4173 34.4055 57.9463 34.7147C58.5194 35.0238 58.8721 35.3551 59.0044 35.7084V36.1059C59.0044 36.2826 58.9823 36.4151 58.9383 36.5034C58.8501 36.7684 58.7178 37.0334 58.5415 37.2984C58.3651 37.5192 58.2109 37.74 58.0786 37.9609C57.9463 38.1817 57.8582 38.3142 57.8141 38.3584C57.77 38.4025 57.7259 38.4467 57.6818 38.4909C57.6378 38.4909 57.5937 38.535 57.5496 38.6234C57.5055 38.6675 57.4173 38.8 57.2851 39.0209C57.0647 39.3742 56.8001 39.7496 56.4916 40.1471C56.227 40.5004 56.0507 40.92 55.9625 41.4058V41.4721C56.0948 41.5604 56.3813 41.6267 56.8222 41.6708C57.3071 41.6708 57.6378 41.6708 57.8141 41.6708H62.3107C62.6193 41.6708 62.9279 41.6708 63.2365 41.6708C63.5451 41.6708 63.8757 41.6488 64.2284 41.6046Z" fill="black"/>
<path d="M103.601 20.4711C104.218 20.7802 104.703 21.1115 105.056 21.4648C105.452 21.774 105.496 22.326 105.188 23.121C105.012 23.6069 104.747 24.0264 104.394 24.3798C104.086 24.6889 103.755 25.0202 103.402 25.3735C103.447 25.4618 103.292 25.6385 102.94 25.9035C102.587 26.1243 102.19 26.3672 101.749 26.6322C101.308 26.8972 100.89 27.1402 100.493 27.361C100.14 27.5376 99.9418 27.6039 99.8977 27.5597C100.25 27.2064 100.669 26.7868 101.154 26.301C101.683 25.8152 101.948 25.3073 101.948 24.7773C101.948 24.2914 101.815 23.9602 101.551 23.7835C101.33 23.6069 101.044 23.4081 100.691 23.1873C100.383 23.0989 100.096 23.0106 99.8316 22.9223C99.5671 22.7898 99.2805 22.6794 98.9719 22.591C98.0462 22.3702 97.0763 22.2377 96.0624 22.1935C95.0925 22.1052 94.1447 22.061 93.2189 22.061C91.1028 22.061 88.9868 22.1714 86.8707 22.3923C84.7987 22.5689 82.7047 22.8119 80.5886 23.121C79.9715 23.2535 79.3322 23.386 78.6709 23.5185C78.0097 23.6069 77.3484 23.6952 76.6871 23.7835C76.6871 23.8277 76.7092 23.8719 76.7533 23.916C76.7533 23.916 76.7533 23.9381 76.7533 23.9823C76.9737 24.6889 77.2162 25.3956 77.4807 26.1022C77.7452 26.7647 78.0097 27.4493 78.2742 28.156C79.4204 31.3359 80.6768 34.4717 82.0434 37.5634C83.4101 40.655 84.8648 43.7025 86.4078 46.7058C86.9368 47.81 87.5981 48.9583 88.3916 50.1508C88.4357 50.2391 88.2814 50.4378 87.9287 50.747C87.6201 51.0562 87.2454 51.3653 86.8046 51.6745C86.3637 52.0278 85.9449 52.337 85.5482 52.602C85.1955 52.867 84.9971 52.9553 84.953 52.867C84.4681 51.6303 83.9391 50.3716 83.366 49.0908C82.0434 45.9108 80.765 42.7529 79.5306 39.6171C78.2521 36.4371 77.0398 33.2351 75.8936 30.011C75.5409 29.0835 75.2103 28.156 74.9017 27.2285C74.5931 26.2568 74.2625 25.3073 73.9098 24.3798C72.4991 24.6889 71.1325 25.0202 69.8099 25.3735C68.4433 25.7268 67.0987 26.1022 65.7762 26.4997C65.5558 26.7647 65.3133 27.0297 65.0488 27.2947C64.7402 27.5597 64.4757 27.8026 64.2553 28.0235C63.9908 28.2443 63.7703 28.421 63.594 28.5535C63.4177 28.686 63.3074 28.7301 63.2634 28.686C62.6462 28.5976 62.007 28.6197 61.3457 28.7522C60.6844 28.8406 60.0452 28.951 59.428 29.0835C58.5022 29.3043 57.5764 29.5693 56.6507 29.8785C55.7249 30.1876 54.8212 30.5189 53.9395 30.8722C53.5427 31.1372 53.3664 31.2034 53.4104 31.0709L53.3443 31.1372C53.2562 31.1372 53.19 31.1814 53.1459 31.2697C53.1019 31.3139 53.0357 31.3139 52.9476 31.2697C52.5508 31.1372 52.4185 30.9605 52.5508 30.7397C52.6831 30.4747 52.9476 30.1876 53.3443 29.8785C53.7411 29.5251 54.204 29.1939 54.733 28.8847C55.2179 28.5756 55.6588 28.2885 56.0555 28.0235V27.9572C56.0555 27.9131 56.1437 27.891 56.32 27.891C56.4082 27.8026 56.4743 27.7585 56.5184 27.7585C56.6507 27.6701 56.805 27.626 56.9813 27.626C57.1136 27.5818 57.2679 27.5156 57.4442 27.4272C58.2377 27.1622 58.6786 27.0297 58.7667 27.0297C58.8108 26.9856 58.8329 26.9635 58.8329 26.9635C58.8329 26.9635 58.921 26.9414 59.0974 26.8972C59.2737 26.8089 59.8468 26.5881 60.8167 26.2347C62.8886 25.5281 64.9606 24.8877 67.0326 24.3135C69.1046 23.7394 71.1986 23.2094 73.3147 22.7235C72.433 20.2944 71.5733 17.8873 70.7357 15.5023C69.854 13.1174 68.9503 10.7324 68.0245 8.34742C67.4955 6.88993 66.9004 5.43245 66.2391 3.97496C66.1509 3.70996 66.0627 3.51122 65.9746 3.37872C65.9305 3.29038 65.8864 3.22413 65.8423 3.17997C65.7541 3.1358 65.7321 3.06955 65.7762 2.98122C66.3934 2.45123 67.0106 1.94331 67.6277 1.45749C68.2449 0.971657 68.8621 0.485828 69.4793 0C69.6556 0.176665 69.8099 0.353331 69.9422 0.529996C70.0744 0.706659 70.2287 0.905407 70.4051 1.12624C70.6255 1.34707 70.8239 1.54582 71.0002 1.72248C71.1325 1.89915 71.3088 2.09789 71.5292 2.31873C71.5733 2.36289 71.4852 2.49539 71.2647 2.71622C71.0443 2.93706 70.7578 3.20205 70.4051 3.51121C70.5373 3.90871 70.6696 4.32829 70.8018 4.76995C70.89 5.16745 71.0002 5.56494 71.1325 5.96244C71.926 8.65658 72.7416 11.3507 73.5792 14.0449C74.3727 16.739 75.2103 19.4331 76.092 22.1273C76.4447 22.039 76.7974 21.9727 77.15 21.9285C77.4586 21.8844 77.7893 21.8181 78.1419 21.7298C78.8914 21.5973 79.6408 21.4869 80.3902 21.3985C81.1397 21.266 81.8891 21.1335 82.6386 21.001C84.7987 20.6919 86.9368 20.449 89.0529 20.2723C91.213 20.0515 93.3732 19.8969 95.5333 19.8086C96.5032 19.7644 97.4951 19.7644 98.509 19.8086C99.5671 19.8086 100.603 19.8748 101.617 20.0073C101.97 20.0956 102.3 20.184 102.609 20.2723C102.918 20.3165 103.248 20.3827 103.601 20.4711Z" fill="black"/>
<path d="M102.322 35.0459C102.366 35.1342 102.234 35.3109 101.925 35.5759C101.66 35.7967 101.33 36.0617 100.933 36.3709C100.536 36.6801 100.139 36.9671 99.7427 37.2321C99.39 37.453 99.1255 37.5855 98.9492 37.6296C99.2137 38.3363 99.4782 39.0209 99.7427 39.6834C100.051 40.3459 100.36 41.0084 100.668 41.6708C100.757 41.8033 100.823 41.9579 100.867 42.1346C100.955 42.2671 101.043 42.3996 101.131 42.5321C101.131 42.5763 101.175 42.6867 101.264 42.8633C101.44 42.775 101.528 42.775 101.528 42.8633C101.572 42.9075 101.594 42.9517 101.594 42.9958C101.594 43.04 101.616 43.1062 101.66 43.1946C101.793 43.5479 101.881 43.7908 101.925 43.9233C101.969 44.0558 101.903 44.1442 101.727 44.1883C101.594 44.2767 101.352 44.3429 100.999 44.3871C100.646 44.4754 100.162 44.6521 99.5443 44.9171C98.6627 45.5796 98.1336 45.9991 97.9573 46.1758C97.825 46.3525 97.7148 46.1316 97.6267 45.5133C97.5385 45.0716 97.4283 44.7846 97.296 44.6521C97.2519 44.4754 97.2079 44.3208 97.1638 44.1883C97.1197 44.0558 97.0756 43.9012 97.0315 43.7246C96.6788 42.7529 96.3262 41.7813 95.9735 40.8096C95.6208 39.8379 95.2681 38.8663 94.9155 37.8946C94.1219 37.983 93.3284 38.0934 92.5349 38.2259C91.7414 38.3584 90.9699 38.535 90.2204 38.7559C90.4849 39.3742 90.7495 39.9925 91.014 40.6109C91.3226 41.185 91.6532 41.7592 92.0059 42.3333C92.2704 42.6867 92.4688 42.9075 92.601 42.9958C92.7333 43.04 92.7333 43.0842 92.601 43.1283C92.4688 43.1725 92.1822 43.2608 91.7414 43.3933C91.3005 43.4817 90.6172 43.7467 89.6914 44.1883C89.1624 44.5858 88.7877 44.895 88.5673 45.1158C88.3909 45.3808 88.2807 45.5354 88.2366 45.5796C88.1925 45.6237 88.1925 45.5796 88.2366 45.4471C88.2807 45.3587 88.2807 45.1821 88.2366 44.9171C88.2366 44.9171 88.2146 44.9391 88.1705 44.9833C88.1705 44.9391 88.1925 44.895 88.2366 44.8508C88.1925 44.8066 88.1705 44.6962 88.1705 44.5196C87.8619 43.7687 87.5533 42.9958 87.2447 42.2008C86.9361 41.4058 86.6275 40.6329 86.319 39.8821C86.0544 39.9704 85.7899 40.0588 85.5254 40.1471C85.2609 40.2354 84.9744 40.3459 84.6658 40.4784C84.4894 40.5667 84.247 40.6992 83.9384 40.8759C83.5857 41.0084 83.4755 41.0304 83.6077 40.9421C83.6959 40.8538 83.7841 40.8096 83.8723 40.8096C83.9604 40.7654 84.0486 40.6992 84.1368 40.6109C83.5196 40.8759 82.9465 41.0967 82.4175 41.2733C81.8444 41.45 81.5358 41.4942 81.4917 41.4058C81.7121 41.2292 81.8664 41.1188 81.9546 41.0746C82.0427 41.0304 82.2191 40.9421 82.4836 40.8096L85.8561 38.8221C85.7238 38.4246 85.5475 38.005 85.327 37.5634C84.4454 35.3109 83.5637 33.0805 82.682 30.8722C81.8003 28.6197 80.9406 26.3672 80.103 24.1148C79.5299 22.6131 78.9568 21.1335 78.3837 19.6761C77.7665 18.1744 77.2155 16.6728 76.7305 15.1711C76.6865 15.0828 76.6644 14.9944 76.6644 14.9061C76.6644 14.8178 76.6424 14.7294 76.5983 14.6411C76.5983 14.5528 76.5762 14.4644 76.5322 14.3761C76.4881 14.2878 76.4881 14.2215 76.5322 14.1774C77.1053 13.7799 77.6122 13.4045 78.0531 13.0511C78.4498 12.6536 78.8246 12.3445 79.1772 12.1236C79.4858 11.9028 79.8165 11.7703 80.1691 11.7261C80.4777 11.682 80.8524 11.7924 81.2933 12.0574C81.3374 12.1015 81.139 12.3003 80.6982 12.6536V13.0511C81.0067 14.6411 81.4256 16.1869 81.9546 17.6886C82.4395 19.1902 82.9244 20.714 83.4094 22.2598C84.1588 24.5564 84.9964 26.8089 85.9222 29.0172C86.848 31.1814 87.7958 33.3897 88.7656 35.6422C88.8979 35.9072 89.0302 36.1942 89.1624 36.5034C89.2947 36.7684 89.4269 37.0334 89.5592 37.2984C89.7796 37.2542 89.9559 37.2101 90.0882 37.1659C90.2645 37.1217 90.4629 37.0555 90.6833 36.9671C91.2564 36.7905 91.8295 36.6359 92.4026 36.5034C93.0198 36.3709 93.637 36.2384 94.2542 36.1059C94.0338 35.5317 93.7913 34.9576 93.5268 34.3834C93.3064 33.8093 93.0859 33.2351 92.8655 32.6609C91.8075 29.9668 90.7495 27.2727 89.6914 24.5785C88.6334 21.8844 87.5313 19.1902 86.3851 16.4961C86.0324 15.7011 85.7018 14.9061 85.3932 14.1111C85.0846 13.272 84.7539 12.4549 84.4013 11.6599C84.3131 11.4391 84.2249 11.152 84.1368 10.7986C84.0927 10.7103 84.0486 10.622 84.0045 10.5336C83.9163 10.4011 83.9163 10.3128 84.0045 10.2686C84.6217 9.73866 85.2609 9.27491 85.9222 8.87741C86.5835 8.47992 87.2447 8.03826 87.906 7.55243C88.1264 7.68492 88.3028 7.83951 88.435 8.01617C88.6114 8.19284 88.7656 8.39158 88.8979 8.61242C88.942 8.65658 88.6995 8.87741 88.1705 9.27491C88.2587 9.53991 88.3248 9.8049 88.3689 10.0699C88.413 10.3349 88.4791 10.5778 88.5673 10.7986C88.6995 11.2403 88.8097 11.6157 88.8979 11.9249C88.9861 12.1899 89.0742 12.4549 89.1624 12.7199C89.2506 12.9849 89.3388 13.272 89.4269 13.5811C89.5151 13.8461 89.6253 14.1994 89.7576 14.6411C90.7274 17.4236 91.7193 20.1619 92.7333 22.856C93.7913 25.506 94.8934 28.2001 96.0396 30.9384C96.3923 31.6893 96.7229 32.4401 97.0315 33.1909C97.3401 33.9418 97.6487 34.6926 97.9573 35.4434C98.3541 35.3992 98.7508 35.3551 99.1476 35.3109C99.5443 35.2667 99.9411 35.2226 100.338 35.1784C100.691 35.1342 100.933 35.1122 101.065 35.1122C101.198 35.1122 101.308 35.1122 101.396 35.1122C101.484 35.1122 101.572 35.1122 101.66 35.1122C101.793 35.068 102.013 35.0459 102.322 35.0459Z" fill="black"/>
<path d="M118.978 40.5446C119.198 40.8538 119.309 41.0746 119.309 41.2071C119.353 41.2954 119.242 41.3838 118.978 41.4721C118.713 41.5604 118.273 41.715 117.655 41.9358C117.038 42.1125 116.179 42.4217 115.076 42.8633V42.9296H115.01C114.922 42.9296 114.878 42.8854 114.878 42.7971C114.878 42.7088 114.878 42.6425 114.878 42.5983C114.79 42.4217 114.746 42.2892 114.746 42.2008C114.702 42.0683 114.636 41.9138 114.547 41.7371C114.547 41.6929 114.569 41.6488 114.614 41.6046C113.996 40.1913 113.401 38.7559 112.828 37.2984C112.299 35.7967 111.77 34.3172 111.241 32.8597C111.197 32.7713 111.153 32.683 111.109 32.5947C111.109 32.5064 111.087 32.418 111.043 32.3297C111.175 33.3013 111.307 34.2509 111.439 35.1784C111.572 36.1059 111.682 37.0555 111.77 38.0271C111.814 38.6455 111.858 39.2638 111.902 39.8821C111.946 40.5004 111.946 41.1188 111.902 41.7371C111.902 41.9579 111.902 42.1567 111.902 42.3333C111.902 42.4658 111.88 42.6425 111.836 42.8633C111.131 43.3492 110.448 43.835 109.786 44.3208C109.169 44.8508 108.486 45.3366 107.736 45.7783C107.56 45.9108 107.362 45.9108 107.141 45.7783C106.921 45.6458 106.766 45.5354 106.678 45.4471C106.193 44.9612 105.797 44.4533 105.488 43.9233C105.179 43.3492 104.849 42.775 104.496 42.2008C104.143 41.5825 103.835 41.0083 103.57 40.4784C102.689 38.7559 101.873 36.9892 101.124 35.1784C100.374 33.3676 99.6909 31.5347 99.0737 29.6797C98.721 28.6639 98.3904 27.626 98.0818 26.566C97.7732 25.506 97.5969 24.4239 97.5528 23.3198C98.7431 22.6131 99.5807 22.061 100.066 21.6635C100.506 21.266 100.837 21.001 101.058 20.8685C101.234 20.736 101.41 20.736 101.587 20.8685C101.763 20.9569 102.16 21.1335 102.777 21.3985C102.821 21.4427 102.733 21.5752 102.512 21.796C102.248 22.0169 101.939 22.2377 101.587 22.4585C101.587 22.8119 101.609 23.1652 101.653 23.5185C101.697 23.8277 101.741 24.1148 101.785 24.3798C101.829 24.7331 101.895 25.0423 101.983 25.3073C102.027 25.5723 102.094 25.8152 102.182 26.036C102.226 26.2568 102.292 26.4997 102.38 26.7647C102.424 27.0297 102.49 27.361 102.578 27.7585C103.107 29.6576 103.703 31.5126 104.364 33.3234C105.069 35.1342 105.907 36.8788 106.877 38.5571C107.053 38.8663 107.229 39.1534 107.406 39.4184C107.582 39.6834 107.758 39.9704 107.935 40.2796C108.023 40.3679 108.067 40.4563 108.067 40.5446C108.111 40.5888 108.177 40.655 108.265 40.7434V39.8159C108.265 38.27 108.199 36.7463 108.067 35.2447C107.935 33.6988 107.758 32.153 107.538 30.6072C107.185 27.6481 106.7 24.711 106.083 21.796C105.51 18.8811 104.915 15.9661 104.298 13.0511C104.21 12.6536 104.099 12.2561 103.967 11.8586C103.879 11.417 103.791 10.9974 103.703 10.5999C103.614 10.4232 103.548 10.2687 103.504 10.1362C103.504 10.0037 103.46 9.84907 103.372 9.6724C103.328 9.62824 103.504 9.47366 103.901 9.20866C104.342 8.94366 104.805 8.67867 105.29 8.41367C105.819 8.1045 106.304 7.86159 106.744 7.68492C107.185 7.50826 107.428 7.44201 107.472 7.48618C107.648 8.67866 107.869 9.84907 108.133 10.9974C108.442 12.1015 108.75 13.2278 109.059 14.3761C110.514 20.0736 112.299 25.6385 114.415 31.0709C115.032 32.4843 115.65 33.9197 116.267 35.3772C116.884 36.7905 117.567 38.1596 118.317 39.4846H118.515C118.559 39.6171 118.625 39.7717 118.713 39.9484C118.758 40.0367 118.78 40.1029 118.78 40.1471C118.78 40.1913 118.802 40.2575 118.846 40.3459C118.934 40.4784 118.978 40.5446 118.978 40.5446Z" fill="black"/>
<path d="M134.007 24.181C134.051 24.2693 133.875 24.4681 133.478 24.7773C133.125 25.0864 132.706 25.4177 132.221 25.771C131.781 26.0802 131.362 26.3672 130.965 26.6322C130.568 26.8531 130.348 26.9193 130.304 26.831C130.216 26.7868 130.127 26.7647 130.039 26.7647C130.26 27.2506 130.414 27.7806 130.502 28.3547C130.634 28.8847 130.789 29.3926 130.965 29.8785C131.406 31.5568 131.803 33.2572 132.155 34.9797C132.552 36.7021 132.772 38.4467 132.817 40.2134C132.817 40.2575 132.795 40.4784 132.75 40.8759C132.75 41.2292 132.706 41.5383 132.618 41.8033L132.42 42.2008C131.759 42.6425 131.185 43.0621 130.7 43.4596C130.216 43.8571 129.753 44.1442 129.312 44.3208C128.871 44.5416 128.43 44.63 127.989 44.5858C127.548 44.5417 127.064 44.2987 126.534 43.8571C126.314 43.6804 126.116 43.5258 125.939 43.3933C125.807 43.2167 125.653 43.04 125.476 42.8633C125.256 42.6425 125.036 42.4217 124.815 42.2008C124.639 41.98 124.463 41.7371 124.286 41.4721C123.14 40.1029 122.126 38.6675 121.244 37.1659C120.363 35.6642 119.547 34.1184 118.798 32.5284C118.18 32.8376 117.519 33.1247 116.814 33.3897C116.108 33.6105 115.734 33.6768 115.69 33.5884C116.042 33.1468 116.439 32.7272 116.88 32.3297C117.277 31.9322 117.696 31.5568 118.136 31.2034C117.916 30.7176 117.718 30.276 117.541 29.8785C117.365 29.4368 117.166 28.9951 116.946 28.5535C115.888 25.9035 114.896 23.2535 113.97 20.6036C113 17.9094 112.251 15.149 111.722 12.3224C111.634 11.969 111.568 11.6378 111.524 11.3286C111.48 10.9753 111.48 10.622 111.524 10.2686C111.524 10.1803 111.524 10.092 111.524 10.0037C111.48 9.87115 111.502 9.76074 111.59 9.6724C112.163 9.27491 112.648 8.8995 113.045 8.54617C113.441 8.14867 113.816 7.83951 114.169 7.61868C114.521 7.35368 114.874 7.19909 115.227 7.15493C115.535 7.11076 115.932 7.1991 116.417 7.41993C117.166 7.81742 117.85 8.32533 118.467 8.94366C119.04 9.51782 119.569 10.1362 120.054 10.7986C120.803 11.8586 121.509 12.9628 122.17 14.1111C122.831 15.2594 123.449 16.4298 124.022 17.6223C124.374 18.2848 124.661 18.9694 124.881 19.6761C125.146 20.3386 125.3 21.0452 125.344 21.796C125.388 21.8844 125.19 22.061 124.749 22.326C124.352 22.5469 123.889 22.7898 123.36 23.0548C122.831 23.2756 122.346 23.4964 121.906 23.7173C121.465 23.8939 121.222 23.9381 121.178 23.8498C121.31 23.0989 121.266 22.3923 121.046 21.7298C120.826 21.0231 120.583 20.3606 120.319 19.7423C119.79 18.5057 119.216 17.3352 118.599 16.2311C117.938 15.0828 117.211 14.0007 116.417 12.9849C116.285 12.8082 116.153 12.6536 116.02 12.5211C115.888 12.3886 115.756 12.234 115.624 12.0574C115.888 14.0449 116.285 16.0103 116.814 17.9536C117.299 19.8527 117.872 21.7298 118.533 23.5848C118.754 24.1589 118.974 24.711 119.194 25.241C119.415 25.771 119.635 26.3231 119.856 26.8972C120.032 27.2506 120.208 27.626 120.385 28.0235C120.517 28.421 120.693 28.7964 120.914 29.1497C122.457 28.1339 124.022 27.2285 125.609 26.4335C127.196 25.6385 128.893 24.9981 130.7 24.5123C131.229 24.4239 131.781 24.3135 132.354 24.181C132.927 24.0043 133.478 24.0043 134.007 24.181ZM129.047 40.8759C129.091 39.33 128.937 37.8063 128.584 36.3046C128.276 34.803 127.879 33.3013 127.394 31.7997C127.306 31.5789 127.196 31.2697 127.063 30.8722C126.931 30.4747 126.777 30.0772 126.601 29.6797C126.424 29.238 126.226 28.8406 126.005 28.4872C125.785 28.1339 125.543 27.891 125.278 27.7585C125.058 27.8468 124.859 27.9351 124.683 28.0235C124.507 28.0676 124.33 28.1339 124.154 28.2222C124.022 28.2664 123.889 28.3106 123.757 28.3547C123.669 28.3989 123.581 28.4431 123.493 28.4872C123.14 28.7522 122.787 29.0172 122.435 29.2822C122.082 29.5472 121.729 29.8564 121.377 30.2097C122.258 31.888 123.184 33.5222 124.154 35.1122C125.168 36.658 126.314 38.1375 127.593 39.5509C127.813 39.7717 128.033 39.9704 128.254 40.1471C128.474 40.3238 128.695 40.5225 128.915 40.7434C129.003 40.8317 129.047 40.8759 129.047 40.8759Z" fill="black"/>
<path d="M150.345 24.181C150.389 24.2693 150.213 24.4681 149.816 24.7773C149.463 25.0864 149.044 25.4177 148.559 25.771C148.119 26.0802 147.7 26.3672 147.303 26.6322C146.906 26.8531 146.686 26.9193 146.642 26.831C146.554 26.7868 146.465 26.7647 146.377 26.7647C146.598 27.2506 146.752 27.7806 146.84 28.3547C146.972 28.8847 147.127 29.3926 147.303 29.8785C147.744 31.5568 148.141 33.2572 148.493 34.9797C148.89 36.7021 149.11 38.4467 149.155 40.2134C149.155 40.2575 149.133 40.4784 149.088 40.8759C149.088 41.2292 149.044 41.5383 148.956 41.8033L148.758 42.2008C148.097 42.6425 147.523 43.0621 147.038 43.4596C146.554 43.8571 146.091 44.1442 145.65 44.3208C145.209 44.5416 144.768 44.63 144.327 44.5858C143.886 44.5417 143.402 44.2987 142.872 43.8571C142.652 43.6804 142.454 43.5258 142.277 43.3933C142.145 43.2167 141.991 43.04 141.814 42.8633C141.594 42.6425 141.374 42.4217 141.153 42.2008C140.977 41.98 140.801 41.7371 140.624 41.4721C139.478 40.1029 138.464 38.6675 137.582 37.1659C136.701 35.6642 135.885 34.1184 135.136 32.5284C134.518 32.8376 133.857 33.1247 133.152 33.3897C132.446 33.6105 132.072 33.6768 132.028 33.5884C132.38 33.1468 132.777 32.7272 133.218 32.3297C133.615 31.9322 134.034 31.5568 134.474 31.2034C134.254 30.7176 134.056 30.276 133.879 29.8785C133.703 29.4368 133.505 28.9951 133.284 28.5535C132.226 25.9035 131.234 23.2535 130.308 20.6036C129.339 17.9094 128.589 15.149 128.06 12.3224C127.972 11.969 127.906 11.6378 127.862 11.3286C127.818 10.9753 127.818 10.622 127.862 10.2686C127.862 10.1803 127.862 10.092 127.862 10.0037C127.818 9.87115 127.84 9.76074 127.928 9.6724C128.501 9.27491 128.986 8.8995 129.383 8.54617C129.779 8.14867 130.154 7.83951 130.507 7.61868C130.859 7.35368 131.212 7.19909 131.565 7.15493C131.873 7.11076 132.27 7.1991 132.755 7.41993C133.505 7.81742 134.188 8.32533 134.805 8.94366C135.378 9.51782 135.907 10.1362 136.392 10.7986C137.141 11.8586 137.847 12.9628 138.508 14.1111C139.169 15.2594 139.787 16.4298 140.36 17.6223C140.712 18.2848 140.999 18.9694 141.219 19.6761C141.484 20.3386 141.638 21.0452 141.682 21.796C141.726 21.8844 141.528 22.061 141.087 22.326C140.69 22.5469 140.227 22.7898 139.698 23.0548C139.169 23.2756 138.684 23.4964 138.244 23.7173C137.803 23.8939 137.56 23.9381 137.516 23.8498C137.648 23.0989 137.604 22.3923 137.384 21.7298C137.164 21.0231 136.921 20.3606 136.657 19.7423C136.128 18.5057 135.554 17.3352 134.937 16.2311C134.276 15.0828 133.549 14.0007 132.755 12.9849C132.623 12.8082 132.491 12.6536 132.358 12.5211C132.226 12.3886 132.094 12.234 131.962 12.0574C132.226 14.0449 132.623 16.0103 133.152 17.9536C133.637 19.8527 134.21 21.7298 134.871 23.5848C135.092 24.1589 135.312 24.711 135.532 25.241C135.753 25.771 135.973 26.3231 136.194 26.8972C136.37 27.2506 136.546 27.626 136.723 28.0235C136.855 28.421 137.031 28.7964 137.252 29.1497C138.795 28.1339 140.36 27.2285 141.947 26.4335C143.534 25.6385 145.231 24.9981 147.038 24.5123C147.568 24.4239 148.119 24.3135 148.692 24.181C149.265 24.0043 149.816 24.0043 150.345 24.181ZM145.385 40.8759C145.429 39.33 145.275 37.8063 144.922 36.3046C144.614 34.803 144.217 33.3013 143.732 31.7997C143.644 31.5789 143.534 31.2697 143.402 30.8722C143.269 30.4747 143.115 30.0772 142.939 29.6797C142.762 29.238 142.564 28.8406 142.343 28.4872C142.123 28.1339 141.881 27.891 141.616 27.7585C141.396 27.8468 141.197 27.9351 141.021 28.0235C140.845 28.0676 140.668 28.1339 140.492 28.2222C140.36 28.2664 140.227 28.3106 140.095 28.3547C140.007 28.3989 139.919 28.4431 139.831 28.4872C139.478 28.7522 139.125 29.0172 138.773 29.2822C138.42 29.5472 138.067 29.8564 137.715 30.2097C138.596 31.888 139.522 33.5222 140.492 35.1122C141.506 36.658 142.652 38.1375 143.931 39.5509C144.151 39.7717 144.371 39.9704 144.592 40.1471C144.812 40.3238 145.033 40.5225 145.253 40.7434C145.341 40.8317 145.385 40.8759 145.385 40.8759Z" fill="black"/>
<path d="M160.07 41.9358C160.202 42.3333 160.269 42.5983 160.269 42.7308C160.269 42.8192 160.114 42.9075 159.806 42.9958C159.541 43.04 159.1 43.1504 158.483 43.3271C157.866 43.4596 157.028 43.7687 155.97 44.2546C155.97 44.2546 155.948 44.2104 155.904 44.1221C155.596 44.2104 155.441 44.2325 155.441 44.1883C155.441 44.1883 155.574 44.1221 155.838 43.9896C155.794 43.9454 155.772 43.9012 155.772 43.8571C155.772 43.8129 155.75 43.7467 155.706 43.6583C155.662 43.57 155.64 43.5037 155.64 43.4596C155.64 43.4154 155.706 43.3271 155.838 43.1946C155.838 43.0621 155.794 42.8633 155.706 42.5983C155.529 41.98 155.353 41.3838 155.177 40.8096C155 40.1913 154.802 39.5729 154.582 38.9546C153.832 36.7463 153.061 34.5822 152.267 32.4622C151.474 30.298 150.636 28.156 149.754 26.036C148.873 24.0485 148.013 22.0831 147.175 20.1398C146.294 18.1523 145.368 16.1648 144.398 14.1774C144.31 13.9565 144.2 13.7357 144.067 13.5149C143.935 13.2499 143.825 12.9849 143.737 12.7199C143.693 12.6315 143.627 12.5653 143.538 12.5211C143.45 12.477 143.45 12.4107 143.538 12.3224C144.376 11.6599 145.015 11.1299 145.456 10.7324C145.853 10.2907 146.183 9.98157 146.448 9.8049C146.668 9.58407 146.867 9.49574 147.043 9.53991C147.219 9.58407 147.484 9.76074 147.837 10.0699C148.057 10.2466 148.255 10.4232 148.432 10.5999C148.608 10.7766 148.807 10.9532 149.027 11.1299C149.071 11.1741 148.784 11.4391 148.167 11.9249V12.0574C148.917 14.1332 149.688 16.1869 150.482 18.2186C151.275 20.2061 152.091 22.2156 152.928 24.2473C153.81 26.3672 154.67 28.4872 155.507 30.6072C156.389 32.7272 157.271 34.8472 158.152 36.9671C158.505 37.8063 158.814 38.6455 159.078 39.4846C159.387 40.2796 159.717 41.0967 160.07 41.9358Z" fill="black"/>
<path d="M175.887 34.5159C176.284 35.2667 176.592 36.0396 176.813 36.8346C177.033 37.6296 176.967 38.4246 176.614 39.2196C176.526 39.308 176.438 39.4184 176.35 39.5509C176.306 39.6834 176.24 39.8159 176.151 39.9484C175.755 40.39 175.446 40.6992 175.226 40.8759C175.049 41.0525 174.829 41.2292 174.564 41.4058C174.3 41.5383 173.925 41.7371 173.44 42.0021C172.955 42.2229 172.184 42.5983 171.126 43.1283C171.038 43.2167 170.905 43.2608 170.729 43.2608C170.597 43.2608 170.464 43.2608 170.332 43.2608C169.803 43.305 169.318 43.2167 168.877 42.9958C168.437 42.775 167.974 42.5542 167.489 42.3333C165.505 40.92 163.786 39.1092 162.331 36.9009C161.934 36.2826 161.626 35.6422 161.405 34.9797C161.141 34.273 160.986 33.5443 160.942 32.7934C160.942 32.7051 160.964 32.6388 161.008 32.5947C161.008 32.5505 161.008 32.4843 161.008 32.3959C160.964 32.3076 161.163 32.153 161.603 31.9322C162 31.6672 162.441 31.4022 162.926 31.1372C163.455 30.8722 163.94 30.6735 164.381 30.541C164.822 30.3643 165.064 30.298 165.108 30.3422C165.064 30.4305 165.042 30.4968 165.042 30.541C165.042 30.5851 165.02 30.6514 164.976 30.7397C164.888 31.4464 164.932 32.153 165.108 32.8597C165.329 33.5222 165.615 34.1626 165.968 34.7809C166.056 34.9134 166.144 35.068 166.232 35.2447C166.365 35.3772 166.475 35.5317 166.563 35.7084C167.753 37.4309 169.274 38.8442 171.126 39.9484C171.39 40.0809 171.655 40.2134 171.919 40.3459C172.228 40.4342 172.536 40.5225 172.845 40.6109C173.11 39.9484 173.154 39.2859 172.977 38.6234C172.801 37.9609 172.559 37.3205 172.25 36.7021C172.162 36.4813 172.052 36.3046 171.919 36.1721C171.831 35.9955 171.743 35.8188 171.655 35.6422C170.905 34.4938 170.024 33.478 169.01 32.5947C167.996 31.7114 166.982 30.828 165.968 29.9447C164.425 28.6197 162.904 27.3168 161.405 26.036C159.906 24.711 158.451 23.3198 157.041 21.8623C156.071 20.7581 155.167 19.6319 154.33 18.4836C153.492 17.3352 152.787 16.0986 152.213 14.7736C151.993 14.1553 151.795 13.537 151.618 12.9186C151.442 12.2561 151.486 11.6157 151.751 10.9974C152.456 10.5999 153.161 10.2024 153.867 9.8049C154.528 9.36324 155.211 8.96575 155.917 8.61242C156.005 8.56825 156.159 8.56825 156.379 8.61242C156.6 8.61242 156.732 8.61242 156.776 8.61242C157.482 8.70075 158.165 8.83324 158.826 9.00991C159.179 9.09824 159.465 9.16449 159.686 9.20866C159.906 9.25283 160.193 9.36324 160.545 9.53991C161.78 10.0257 162.97 10.7766 164.116 11.7924C164.866 12.5432 165.593 13.294 166.298 14.0449C167.048 14.7957 167.731 15.6128 168.348 16.4961C168.657 16.9378 168.944 17.4015 169.208 17.8873C169.517 18.329 169.759 18.8148 169.935 19.3448C169.98 19.4331 169.781 19.6098 169.34 19.8748C168.944 20.1398 168.481 20.4048 167.952 20.6698C167.467 20.9348 167.004 21.1777 166.563 21.3985C166.122 21.5752 165.88 21.6194 165.836 21.531C165.747 21.0452 165.571 20.5815 165.307 20.1398C165.086 19.654 164.822 19.1681 164.513 18.6823C163.94 17.799 163.301 16.9819 162.595 16.2311C161.934 15.4803 161.229 14.7515 160.479 14.0449C159.73 13.3824 158.98 12.8745 158.231 12.5211C157.437 12.1236 156.578 11.8145 155.652 11.5936C155.74 11.8145 155.806 12.0132 155.85 12.1899C155.895 12.3665 155.939 12.5211 155.983 12.6536C156.468 14.0228 157.129 15.2815 157.966 16.4298C158.76 17.5782 159.62 18.6823 160.545 19.7423C161.824 21.2881 163.213 22.7014 164.711 23.9823C166.254 25.2631 167.797 26.5439 169.34 27.8247C170.354 28.7081 171.368 29.5914 172.382 30.4747C173.44 31.358 174.388 32.3739 175.226 33.5222C175.358 33.6988 175.468 33.8755 175.556 34.0522C175.689 34.1847 175.799 34.3393 175.887 34.5159Z" fill="black"/>
<path d="M196.992 35.0459C197.036 35.1342 196.904 35.3109 196.595 35.5759C196.33 35.7967 196 36.0617 195.603 36.3709C195.206 36.6801 194.81 36.9671 194.413 37.2321C194.06 37.453 193.796 37.5855 193.619 37.6296C193.884 38.3363 194.148 39.0209 194.413 39.6834C194.721 40.3459 195.03 41.0084 195.339 41.6708C195.427 41.8033 195.493 41.9579 195.537 42.1346C195.625 42.2671 195.713 42.3996 195.801 42.5321C195.801 42.5763 195.846 42.6867 195.934 42.8633C196.11 42.775 196.198 42.775 196.198 42.8633C196.242 42.9075 196.264 42.9517 196.264 42.9958C196.264 43.04 196.286 43.1062 196.33 43.1946C196.463 43.5479 196.551 43.7908 196.595 43.9233C196.639 44.0558 196.573 44.1442 196.397 44.1883C196.264 44.2767 196.022 44.3429 195.669 44.3871C195.317 44.4754 194.832 44.6521 194.214 44.9171C193.333 45.5796 192.804 45.9991 192.627 46.1758C192.495 46.3525 192.385 46.1316 192.297 45.5133C192.209 45.0716 192.098 44.7846 191.966 44.6521C191.922 44.4754 191.878 44.3208 191.834 44.1883C191.79 44.0558 191.746 43.9012 191.702 43.7246C191.349 42.7529 190.996 41.7813 190.644 40.8096C190.291 39.8379 189.938 38.8663 189.586 37.8946C188.792 37.983 187.998 38.0934 187.205 38.2259C186.411 38.3584 185.64 38.535 184.891 38.7559C185.155 39.3742 185.42 39.9925 185.684 40.6109C185.993 41.185 186.323 41.7592 186.676 42.3333C186.94 42.6867 187.139 42.9075 187.271 42.9958C187.403 43.04 187.403 43.0842 187.271 43.1283C187.139 43.1725 186.852 43.2608 186.411 43.3933C185.971 43.4817 185.287 43.7467 184.361 44.1883C183.832 44.5858 183.458 44.895 183.237 45.1158C183.061 45.3808 182.951 45.5354 182.907 45.5796C182.863 45.6237 182.863 45.5796 182.907 45.4471C182.951 45.3587 182.951 45.1821 182.907 44.9171C182.907 44.9171 182.885 44.9391 182.841 44.9833C182.841 44.9391 182.863 44.895 182.907 44.8508C182.863 44.8066 182.841 44.6962 182.841 44.5196C182.532 43.7687 182.223 42.9958 181.915 42.2008C181.606 41.4058 181.298 40.6329 180.989 39.8821C180.724 39.9704 180.46 40.0588 180.195 40.1471C179.931 40.2354 179.644 40.3459 179.336 40.4784C179.16 40.5667 178.917 40.6992 178.608 40.8759C178.256 41.0084 178.146 41.0304 178.278 40.9421C178.366 40.8538 178.454 40.8096 178.542 40.8096C178.63 40.7654 178.719 40.6992 178.807 40.6109C178.19 40.8759 177.617 41.0967 177.088 41.2733C176.514 41.45 176.206 41.4942 176.162 41.4058C176.382 41.2292 176.536 41.1188 176.625 41.0746C176.713 41.0304 176.889 40.9421 177.154 40.8096L180.526 38.8221C180.394 38.4246 180.218 38.005 179.997 37.5634C179.115 35.3109 178.234 33.0805 177.352 30.8722C176.47 28.6197 175.611 26.3672 174.773 24.1148C174.2 22.6131 173.627 21.1335 173.054 19.6761C172.437 18.1744 171.886 16.6728 171.401 15.1711C171.357 15.0828 171.334 14.9944 171.334 14.9061C171.334 14.8178 171.312 14.7294 171.268 14.6411C171.268 14.5528 171.246 14.4644 171.202 14.3761C171.158 14.2878 171.158 14.2215 171.202 14.1774C171.775 13.7799 172.282 13.4045 172.723 13.0511C173.12 12.6536 173.495 12.3445 173.847 12.1236C174.156 11.9028 174.487 11.7703 174.839 11.7261C175.148 11.682 175.523 11.7924 175.963 12.0574C176.007 12.1015 175.809 12.3003 175.368 12.6536V13.0511C175.677 14.6411 176.096 16.1869 176.625 17.6886C177.11 19.1902 177.594 20.714 178.079 22.2598C178.829 24.5564 179.666 26.8089 180.592 29.0172C181.518 31.1814 182.466 33.3897 183.436 35.6422C183.568 35.9072 183.7 36.1942 183.832 36.5034C183.965 36.7684 184.097 37.0334 184.229 37.2984C184.45 37.2542 184.626 37.2101 184.758 37.1659C184.935 37.1217 185.133 37.0555 185.353 36.9671C185.926 36.7905 186.5 36.6359 187.073 36.5034C187.69 36.3709 188.307 36.2384 188.924 36.1059C188.704 35.5317 188.461 34.9576 188.197 34.3834C187.976 33.8093 187.756 33.2351 187.536 32.6609C186.478 29.9668 185.42 27.2727 184.361 24.5785C183.303 21.8844 182.201 19.1902 181.055 16.4961C180.702 15.7011 180.372 14.9061 180.063 14.1111C179.755 13.272 179.424 12.4549 179.071 11.6599C178.983 11.4391 178.895 11.152 178.807 10.7986C178.763 10.7103 178.719 10.622 178.675 10.5336C178.586 10.4011 178.586 10.3128 178.675 10.2686C179.292 9.73866 179.931 9.27491 180.592 8.87741C181.254 8.47992 181.915 8.03826 182.576 7.55243C182.796 7.68492 182.973 7.83951 183.105 8.01617C183.281 8.19284 183.436 8.39158 183.568 8.61242C183.612 8.65658 183.37 8.87741 182.841 9.27491C182.929 9.53991 182.995 9.8049 183.039 10.0699C183.083 10.3349 183.149 10.5778 183.237 10.7986C183.37 11.2403 183.48 11.6157 183.568 11.9249C183.656 12.1899 183.744 12.4549 183.832 12.7199C183.921 12.9849 184.009 13.272 184.097 13.5811C184.185 13.8461 184.295 14.1994 184.428 14.6411C185.397 17.4236 186.389 20.1619 187.403 22.856C188.461 25.506 189.563 28.2001 190.71 30.9384C191.062 31.6893 191.393 32.4401 191.702 33.1909C192.01 33.9418 192.319 34.6926 192.627 35.4434C193.024 35.3992 193.421 35.3551 193.818 35.3109C194.214 35.2667 194.611 35.2226 195.008 35.1784C195.361 35.1342 195.603 35.1122 195.735 35.1122C195.868 35.1122 195.978 35.1122 196.066 35.1122C196.154 35.1122 196.242 35.1122 196.33 35.1122C196.463 35.068 196.683 35.0459 196.992 35.0459Z" fill="black"/>
<path d="M78.5402 98.2585C78.5843 98.3468 78.6284 98.4131 78.6725 98.4572C78.7607 98.5456 78.7607 98.6118 78.6725 98.656C78.0994 99.3185 77.6365 99.9147 77.2838 100.445C76.9312 100.975 76.6005 101.372 76.2919 101.637C76.0274 101.946 75.7629 102.079 75.4984 102.035C75.2339 102.035 74.9033 101.792 74.5065 101.306C73.5807 99.8926 72.7652 98.391 72.0598 96.801C71.3985 95.2552 70.7152 93.7094 70.0099 92.1635C68.9078 89.3811 67.8938 86.5765 66.968 83.7499C66.0863 80.9232 65.3589 78.0303 64.7858 75.0712C64.3891 72.9954 64.0584 70.9196 63.7939 68.8438C63.0886 69.3738 62.3612 69.9038 61.6117 70.4337C60.9064 70.9196 60.2451 71.4275 59.6279 71.9575C59.3193 72.1783 59.0548 72.3771 58.8344 72.5537C58.6581 72.6862 58.5038 72.8187 58.3715 72.9512C58.2393 73.0396 58.085 73.15 57.9086 73.2825C57.7764 73.415 57.6 73.5695 57.3796 73.7462C57.6441 74.6737 57.9086 75.6012 58.1731 76.5287C58.4376 77.4562 58.7462 78.3837 59.0989 79.3112C59.6279 80.857 60.179 82.4028 60.7521 83.9486C61.3252 85.4944 61.9644 87.0182 62.6698 88.5198C62.6698 88.6082 62.6257 88.6965 62.5375 88.7848C62.6257 88.8732 62.6918 88.9615 62.7359 89.0498C62.8241 89.1823 62.9122 89.3148 63.0004 89.4473L63.0665 89.5136C63.1106 89.6019 62.9563 89.8006 62.6036 90.1098C62.251 90.419 61.8322 90.7502 61.3472 91.1035C60.9064 91.501 60.4655 91.8323 60.0247 92.0973C59.6279 92.3623 59.4075 92.4506 59.3634 92.3623C59.3634 92.3623 59.3855 92.3402 59.4296 92.296C59.3414 92.1194 59.2753 91.9648 59.2312 91.8323C59.2312 91.6998 59.1871 91.5452 59.0989 91.3685H59.0328C59.0328 91.236 59.0107 91.1256 58.9667 91.0373C58.6581 90.2865 58.3274 89.5577 57.9748 88.8511C57.6221 88.1886 57.2914 87.4819 56.9829 86.7311C56.2775 85.1853 55.5942 83.6615 54.9329 82.1599C54.2717 80.6582 53.6104 79.1345 52.9491 77.5887C52.8169 77.7212 52.6846 77.8758 52.5523 78.0524C52.376 78.1849 52.1997 78.3174 52.0233 78.4499C51.7147 78.7591 51.4943 79.002 51.3621 79.1787C51.2739 79.267 51.2078 79.3332 51.1637 79.3774C51.1196 79.3774 51.0755 79.4216 51.0314 79.5099L50.6347 79.9074C50.6787 79.9957 50.5685 80.1503 50.304 80.3712C50.0395 80.5478 49.7089 80.7686 49.3121 81.0336C48.9154 81.2986 48.5186 81.5636 48.1218 81.8286C47.7251 82.0495 47.3944 82.204 47.1299 82.2924C46.7332 82.5132 46.4907 82.5795 46.4025 82.4911C46.667 82.2703 46.8434 82.1599 46.9316 82.1599C46.9756 82.1157 47.0418 82.0495 47.1299 81.9611C47.703 81.2986 48.3643 80.6361 49.1137 79.9737C49.6868 79.3995 50.2599 78.8032 50.833 78.1849C51.3621 77.5666 51.9131 76.9483 52.4862 76.3299C52.1776 75.6233 51.8911 74.9387 51.6266 74.2762C51.3621 73.6137 51.0755 72.9291 50.7669 72.2225C49.6648 69.44 48.5847 66.6796 47.5267 63.9413C46.4246 61.1588 45.3665 58.3764 44.3526 55.5939C44.0881 54.9756 43.8456 54.3572 43.6252 53.7389C43.3607 53.1206 43.0962 52.5023 42.8317 51.8839C42.7435 51.6189 42.6774 51.4423 42.6333 51.3539C42.5892 51.2656 42.5451 51.1994 42.501 51.1552C42.4129 51.0669 42.3908 50.9785 42.4349 50.8902C43.008 50.316 43.6032 49.8081 44.2203 49.3665C44.8375 48.8806 45.4547 48.3727 46.0719 47.8427C46.3364 47.9752 46.5568 48.1298 46.7332 48.3065C46.9095 48.4831 47.1079 48.6819 47.3283 48.9027C47.4165 48.991 47.152 49.3002 46.5348 49.8302C46.7111 50.3602 46.8875 50.9123 47.0638 51.4864C47.1961 52.0164 47.3504 52.5464 47.5267 53.0764C48.3202 55.9914 49.224 58.818 50.2379 61.5563C51.2078 64.2946 52.2658 67.055 53.412 69.8375C53.2797 69.2192 53.1475 68.6229 53.0152 68.0488C52.883 67.4304 52.7728 66.8121 52.6846 66.1938C52.5083 65.2663 52.376 64.4934 52.2878 63.8751C52.1556 63.2567 52.0454 62.6605 51.9572 62.0863C51.869 61.468 51.8029 60.8497 51.7588 60.2313C51.6707 59.613 51.5604 58.8401 51.4282 57.9126C51.0755 55.5718 50.811 53.2531 50.6347 50.9564C50.4583 48.6156 50.3481 46.2527 50.304 43.8678C50.2159 43.8678 50.2599 43.7794 50.4363 43.6028V43.2053C50.3922 43.1611 50.5685 42.9844 50.9653 42.6753C51.318 42.3219 51.7368 41.9907 52.2217 41.6815C52.6626 41.3282 53.0814 41.0411 53.4781 40.8203C53.8749 40.5553 54.0953 40.4449 54.1394 40.489C54.0953 41.1074 54.1174 41.7036 54.2055 42.2778C54.2937 42.8519 54.3819 43.4261 54.47 44.0003C54.6464 45.1486 54.8447 46.2969 55.0652 47.4452C55.3297 48.5494 55.6383 49.6756 55.9909 50.8239C56.2995 51.8398 56.7183 52.8114 57.2474 53.7389C57.7764 54.6222 58.3495 55.5056 58.9667 56.3889C59.5398 57.0955 60.0467 57.8243 60.4876 58.5751C60.9725 59.3259 61.3913 60.1209 61.744 60.9601C62.2289 62.3734 62.3171 63.7426 62.0085 65.0676C61.9644 65.2 61.9203 65.3546 61.8763 65.5313C61.8322 65.6638 61.7881 65.8184 61.744 65.995C61.215 67.2759 60.5317 68.4904 59.6941 69.6388C58.8565 70.7429 57.9968 71.8029 57.1151 72.8187C57.1151 72.9071 57.1372 72.9733 57.1812 73.0175C58.0188 72.3108 58.8565 71.6262 59.6941 70.9637C60.5317 70.2571 61.3913 69.5504 62.273 68.8438L63.0665 68.2475C63.0665 68.2475 63.0886 68.2034 63.1327 68.115L63.331 67.9163C63.287 67.8721 63.331 67.7838 63.4633 67.6513C63.6396 67.5188 63.838 67.3642 64.0584 67.1875C64.323 66.9667 64.6095 66.7238 64.9181 66.4588C65.2708 66.1496 65.6014 65.8846 65.91 65.6638C66.2627 65.443 66.5713 65.2663 66.8358 65.1338C67.1003 65.0013 67.2546 64.9571 67.2987 65.0013C67.3427 66.2821 67.4089 67.585 67.497 68.91C67.5852 70.1908 67.6954 71.4717 67.8277 72.7525C68.1804 75.2699 68.6873 77.7433 69.3486 80.1724C70.0539 82.5574 70.8695 84.9424 71.7953 87.3273C71.9716 87.769 72.148 88.1886 72.3243 88.5861C72.5006 89.0277 72.677 89.4915 72.8533 89.9773C73.0297 90.3306 73.184 90.6619 73.3162 90.971C73.4485 91.2802 73.6028 91.6115 73.7791 91.9648C74.1318 91.6998 74.4404 91.479 74.7049 91.3023C74.9694 91.1256 75.1237 91.0815 75.1678 91.1698C75.2559 91.3906 75.3441 91.6115 75.4323 91.8323C75.5645 92.0531 75.6748 92.274 75.7629 92.4948C76.2038 93.3781 76.6226 94.2614 77.0193 95.1448C77.4602 96.0281 77.901 96.9114 78.3419 97.7947C78.386 97.9272 78.4521 98.0818 78.5402 98.2585ZM55.6603 59.1714C55.3517 58.7297 55.0652 58.3101 54.8007 57.9126C54.4921 57.5151 54.2276 57.0735 54.0071 56.5876C54.0953 57.3826 54.1835 58.0893 54.2716 58.7076C54.3598 59.2818 54.448 59.8559 54.5362 60.4301C54.5802 60.9601 54.6684 61.5343 54.8007 62.1526C54.8888 62.7709 54.999 63.4997 55.1313 64.3388C55.3517 65.4871 55.5721 66.6355 55.7926 67.7838C56.0571 68.8879 56.3436 70.0142 56.6522 71.1625C56.9608 70.7208 57.2253 70.2792 57.4457 69.8375C57.7103 69.3958 57.9527 68.9321 58.1731 68.4463C58.2172 68.2696 58.2613 68.115 58.3054 67.9825C58.3495 67.85 58.3936 67.6954 58.4376 67.5188C58.6581 66.9004 58.7462 66.26 58.7022 65.5975C58.6581 64.9351 58.5258 64.2946 58.3054 63.6763C57.9968 62.8372 57.6 62.0422 57.1151 61.2913C56.6743 60.5405 56.1893 59.8339 55.6603 59.1714Z" fill="black"/>
<path d="M91.3389 83.2861C91.5593 83.5953 91.6696 83.8161 91.6696 83.9486C91.7136 84.037 91.6034 84.1253 91.3389 84.2136C91.0744 84.3019 90.6336 84.4565 90.0164 84.6774C89.3992 84.854 88.5395 85.1632 87.4374 85.6048V85.6711H87.3713C87.2831 85.6711 87.239 85.6269 87.239 85.5386C87.239 85.4503 87.239 85.384 87.239 85.3399C87.1509 85.1632 87.1068 85.0307 87.1068 84.9424C87.0627 84.8099 86.9966 84.6553 86.9084 84.4786C86.9084 84.4344 86.9305 84.3903 86.9745 84.3461C86.3574 82.9328 85.7622 81.4974 85.1891 80.0399C84.6601 78.5382 84.1311 77.0587 83.6021 75.6012C83.558 75.5129 83.5139 75.4245 83.4698 75.3362C83.4698 75.2479 83.4478 75.1595 83.4037 75.0712C83.5359 76.0429 83.6682 76.9924 83.8004 77.9199C83.9327 78.8474 84.0429 79.797 84.1311 80.7686C84.1752 81.387 84.2192 82.0053 84.2633 82.6236C84.3074 83.242 84.3074 83.8603 84.2633 84.4786C84.2633 84.6994 84.2633 84.8982 84.2633 85.0749C84.2633 85.2074 84.2413 85.384 84.1972 85.6048C83.4919 86.0907 82.8085 86.5765 82.1473 87.0623C81.5301 87.5923 80.8468 88.0782 80.0973 88.5198C79.921 88.6523 79.7226 88.6523 79.5022 88.5198C79.2818 88.3873 79.1275 88.2769 79.0393 88.1886C78.5544 87.7027 78.1576 87.1948 77.849 86.6648C77.5404 86.0907 77.2098 85.5165 76.8571 84.9424C76.5044 84.324 76.1958 83.7499 75.9313 83.2199C75.0496 81.4974 74.2341 79.7307 73.4846 77.9199C72.7352 76.1091 72.0519 74.2762 71.4347 72.4212C71.082 71.4054 70.7514 70.3675 70.4428 69.3075C70.1342 68.2475 69.9579 67.1654 69.9138 66.0613C71.1041 65.3546 71.9417 64.8026 72.4266 64.4051C72.8674 64.0076 73.1981 63.7426 73.4185 63.6101C73.5948 63.4776 73.7712 63.4776 73.9475 63.6101C74.1239 63.6984 74.5206 63.8751 75.1378 64.1401C75.1819 64.1842 75.0937 64.3167 74.8733 64.5376C74.6088 64.7584 74.3002 64.9792 73.9475 65.2001C73.9475 65.5534 73.9696 65.9067 74.0136 66.26C74.0577 66.5692 74.1018 66.8563 74.1459 67.1213C74.19 67.4746 74.2561 67.7838 74.3443 68.0488C74.3884 68.3138 74.4545 68.5567 74.5427 68.7775C74.5868 68.9983 74.6529 69.2413 74.741 69.5063C74.7851 69.7713 74.8513 70.1025 74.9394 70.5C75.4684 72.3991 76.0636 74.2541 76.7249 76.0649C77.4302 77.8758 78.2678 79.6203 79.2377 81.2986C79.414 81.6078 79.5904 81.8949 79.7667 82.1599C79.943 82.4249 80.1194 82.712 80.2957 83.0211C80.3839 83.1095 80.428 83.1978 80.428 83.2861C80.4721 83.3303 80.5382 83.3965 80.6263 83.4849V82.5574C80.6263 81.0116 80.5602 79.4878 80.428 77.9862C80.2957 76.4404 80.1194 74.8945 79.8989 73.3487C79.5463 70.3896 79.0613 67.4525 78.4442 64.5376C77.8711 61.6226 77.2759 58.7076 76.6587 55.7926C76.5706 55.3951 76.4603 54.9976 76.3281 54.6002C76.2399 54.1585 76.1518 53.7389 76.0636 53.3414C75.9754 53.1648 75.9093 53.0102 75.8652 52.8777C75.8652 52.7452 75.8211 52.5906 75.733 52.4139C75.6889 52.3698 75.8652 52.2152 76.262 51.9502C76.7028 51.6852 77.1657 51.4202 77.6506 51.1552C78.1797 50.846 78.6646 50.6031 79.1054 50.4264C79.5463 50.2498 79.7887 50.1835 79.8328 50.2277C80.0092 51.4202 80.2296 52.5906 80.4941 53.7389C80.8027 54.8431 81.1113 55.9693 81.4199 57.1176C82.8747 62.8151 84.6601 68.38 86.7762 73.8125C87.3933 75.2258 88.0105 76.6612 88.6277 78.1187C89.2449 79.532 89.9282 80.9011 90.6776 82.2261H90.876C90.9201 82.3586 90.9862 82.5132 91.0744 82.6899C91.1185 82.7782 91.1405 82.8445 91.1405 82.8886C91.1405 82.9328 91.1626 82.999 91.2067 83.0874C91.2948 83.2199 91.3389 83.2861 91.3389 83.2861Z" fill="black"/>
<path d="M106.368 66.9225C106.412 67.0109 106.236 67.2096 105.839 67.5188C105.486 67.8279 105.067 68.1592 104.582 68.5125C104.142 68.8217 103.723 69.1088 103.326 69.3738C102.929 69.5946 102.709 69.6608 102.665 69.5725C102.577 69.5283 102.488 69.5063 102.4 69.5063C102.621 69.9921 102.775 70.5221 102.863 71.0962C102.995 71.6262 103.15 72.1341 103.326 72.62C103.767 74.2983 104.164 75.9987 104.516 77.7212C104.913 79.4437 105.133 81.1882 105.178 82.9549C105.178 82.999 105.155 83.2199 105.111 83.6174C105.111 83.9707 105.067 84.2799 104.979 84.5449L104.781 84.9424C104.12 85.384 103.546 85.8036 103.061 86.2011C102.577 86.5986 102.114 86.8857 101.673 87.0623C101.232 87.2832 100.791 87.3715 100.35 87.3273C99.9094 87.2832 99.4245 87.0403 98.8955 86.5986C98.6751 86.4219 98.4767 86.2673 98.3003 86.1348C98.1681 85.9582 98.0138 85.7815 97.8374 85.6048C97.617 85.384 97.3966 85.1632 97.1762 84.9424C96.9998 84.7215 96.8235 84.4786 96.6472 84.2136C95.501 82.8445 94.487 81.4091 93.6053 79.9074C92.7236 78.4058 91.9081 76.8599 91.1586 75.27C90.5414 75.5791 89.8802 75.8662 89.1748 76.1312C88.4695 76.352 88.0947 76.4183 88.0506 76.3299C88.4033 75.8883 88.8001 75.4687 89.2409 75.0712C89.6377 74.6737 90.0565 74.2983 90.4974 73.945C90.2769 73.4591 90.0785 73.0175 89.9022 72.62C89.7259 72.1783 89.5275 71.7367 89.3071 71.295C88.249 68.645 87.2571 65.995 86.3313 63.3451C85.3615 60.6509 84.6121 57.8905 84.083 55.0639C83.9949 54.7106 83.9287 54.3793 83.8846 54.0702C83.8406 53.7168 83.8406 53.3635 83.8846 53.0102C83.8846 52.9218 83.8846 52.8335 83.8846 52.7452C83.8406 52.6127 83.8626 52.5023 83.9508 52.4139C84.5239 52.0164 85.0088 51.641 85.4056 51.2877C85.8023 50.8902 86.1771 50.581 86.5297 50.3602C86.8824 50.0952 87.2351 49.9406 87.5878 49.8964C87.8964 49.8523 88.2931 49.9406 88.778 50.1614C89.5275 50.5589 90.2108 51.0669 90.828 51.6852C91.4011 52.2593 91.9301 52.8777 92.415 53.5402C93.1645 54.6002 93.8698 55.7043 94.5311 56.8526C95.1924 58.001 95.8095 59.1714 96.3826 60.3638C96.7353 61.0263 97.0219 61.7109 97.2423 62.4176C97.5068 63.0801 97.6611 63.7867 97.7052 64.5376C97.7493 64.6259 97.5509 64.8026 97.11 65.0676C96.7133 65.2884 96.2504 65.5313 95.7214 65.7963C95.1924 66.0171 94.7074 66.238 94.2666 66.4588C93.8257 66.6355 93.5833 66.6796 93.5392 66.5913C93.6714 65.8405 93.6274 65.1338 93.4069 64.4713C93.1865 63.7646 92.944 63.1022 92.6795 62.4838C92.1505 61.2472 91.5774 60.0768 90.9602 58.9726C90.299 57.8243 89.5716 56.7422 88.778 55.7264C88.6458 55.5497 88.5135 55.3951 88.3813 55.2626C88.249 55.1301 88.1168 54.9756 87.9845 54.7989C88.249 56.7864 88.6458 58.7518 89.1748 60.6951C89.6597 62.5942 90.2328 64.4713 90.8941 66.3263C91.1145 66.9004 91.335 67.4525 91.5554 67.9825C91.7758 68.5125 91.9962 69.0646 92.2167 69.6388C92.393 69.9921 92.5693 70.3675 92.7457 70.765C92.8779 71.1625 93.0543 71.5379 93.2747 71.8912C94.8176 70.8754 96.3826 69.97 97.9697 69.175C99.5567 68.38 101.254 67.7396 103.061 67.2538C103.59 67.1654 104.142 67.055 104.715 66.9225C105.288 66.7459 105.839 66.7459 106.368 66.9225ZM101.408 83.6174C101.452 82.0715 101.298 80.5478 100.945 79.0462C100.637 77.5445 100.24 76.0429 99.7551 74.5412C99.667 74.3204 99.5567 74.0112 99.4245 73.6137C99.2922 73.2162 99.1379 72.8187 98.9616 72.4212C98.7853 71.9796 98.5869 71.5821 98.3665 71.2287C98.146 70.8754 97.9036 70.6325 97.6391 70.5C97.4186 70.5883 97.2203 70.6767 97.0439 70.765C96.8676 70.8092 96.6912 70.8754 96.5149 70.9637C96.3826 71.0079 96.2504 71.0521 96.1181 71.0962C96.03 71.1404 95.9418 71.1846 95.8536 71.2287C95.501 71.4937 95.1483 71.7587 94.7956 72.0237C94.4429 72.2887 94.0902 72.5979 93.7376 72.9512C94.6193 74.6295 95.545 76.2637 96.5149 77.8537C97.5289 79.3995 98.675 80.8791 99.9535 82.2924C100.174 82.5132 100.394 82.712 100.615 82.8886C100.835 83.0653 101.056 83.264 101.276 83.4849C101.364 83.5732 101.408 83.6174 101.408 83.6174Z" fill="black"/>
<path d="M122.706 66.9225C122.75 67.0109 122.574 67.2096 122.177 67.5188C121.824 67.8279 121.405 68.1592 120.92 68.5125C120.48 68.8217 120.061 69.1088 119.664 69.3738C119.267 69.5946 119.047 69.6608 119.003 69.5725C118.915 69.5283 118.826 69.5063 118.738 69.5063C118.959 69.9921 119.113 70.5221 119.201 71.0962C119.333 71.6262 119.488 72.1341 119.664 72.62C120.105 74.2983 120.502 75.9987 120.854 77.7212C121.251 79.4437 121.471 81.1882 121.516 82.9549C121.516 82.999 121.494 83.2199 121.449 83.6174C121.449 83.9707 121.405 84.2799 121.317 84.5449L121.119 84.9424C120.458 85.384 119.884 85.8036 119.399 86.2011C118.915 86.5986 118.452 86.8857 118.011 87.0623C117.57 87.2832 117.129 87.3715 116.688 87.3273C116.247 87.2832 115.763 87.0403 115.233 86.5986C115.013 86.4219 114.815 86.2673 114.638 86.1348C114.506 85.9582 114.352 85.7815 114.175 85.6048C113.955 85.384 113.735 85.1632 113.514 84.9424C113.338 84.7215 113.162 84.4786 112.985 84.2136C111.839 82.8445 110.825 81.4091 109.943 79.9074C109.062 78.4058 108.246 76.8599 107.497 75.27C106.879 75.5791 106.218 75.8662 105.513 76.1312C104.807 76.352 104.433 76.4183 104.389 76.3299C104.741 75.8883 105.138 75.4687 105.579 75.0712C105.976 74.6737 106.395 74.2983 106.835 73.945C106.615 73.4591 106.417 73.0175 106.24 72.62C106.064 72.1783 105.865 71.7367 105.645 71.295C104.587 68.645 103.595 65.995 102.669 63.3451C101.699 60.6509 100.95 57.8905 100.421 55.0639C100.333 54.7106 100.267 54.3793 100.223 54.0702C100.179 53.7168 100.179 53.3635 100.223 53.0102C100.223 52.9218 100.223 52.8335 100.223 52.7452C100.179 52.6127 100.201 52.5023 100.289 52.4139C100.862 52.0164 101.347 51.641 101.744 51.2877C102.14 50.8902 102.515 50.581 102.868 50.3602C103.22 50.0952 103.573 49.9406 103.926 49.8964C104.234 49.8523 104.631 49.9406 105.116 50.1614C105.866 50.5589 106.549 51.0669 107.166 51.6852C107.739 52.2593 108.268 52.8777 108.753 53.5402C109.502 54.6002 110.208 55.7043 110.869 56.8526C111.53 58.001 112.148 59.1714 112.721 60.3638C113.073 61.0263 113.36 61.7109 113.58 62.4176C113.845 63.0801 113.999 63.7867 114.043 64.5376C114.087 64.6259 113.889 64.8026 113.448 65.0676C113.051 65.2884 112.588 65.5313 112.059 65.7963C111.53 66.0171 111.045 66.238 110.605 66.4588C110.164 66.6355 109.921 66.6796 109.877 66.5913C110.009 65.8405 109.965 65.1338 109.745 64.4713C109.525 63.7646 109.282 63.1022 109.018 62.4838C108.489 61.2472 107.915 60.0768 107.298 58.9726C106.637 57.8243 105.91 56.7422 105.116 55.7264C104.984 55.5497 104.852 55.3951 104.719 55.2626C104.587 55.1301 104.455 54.9756 104.323 54.7989C104.587 56.7864 104.984 58.7518 105.513 60.6951C105.998 62.5942 106.571 64.4713 107.232 66.3263C107.453 66.9004 107.673 67.4525 107.893 67.9825C108.114 68.5125 108.334 69.0646 108.555 69.6388C108.731 69.9921 108.907 70.3675 109.084 70.765C109.216 71.1625 109.392 71.5379 109.613 71.8912C111.156 70.8754 112.721 69.97 114.308 69.175C115.895 68.38 117.592 67.7396 119.399 67.2538C119.929 67.1654 120.48 67.055 121.053 66.9225C121.626 66.7459 122.177 66.7459 122.706 66.9225ZM117.746 83.6174C117.79 82.0715 117.636 80.5478 117.283 79.0462C116.975 77.5445 116.578 76.0429 116.093 74.5412C116.005 74.3204 115.895 74.0112 115.762 73.6137C115.63 73.2162 115.476 72.8187 115.3 72.4212C115.123 71.9796 114.925 71.5821 114.704 71.2287C114.484 70.8754 114.242 70.6325 113.977 70.5C113.757 70.5883 113.558 70.6767 113.382 70.765C113.206 70.8092 113.029 70.8754 112.853 70.9637C112.721 71.0079 112.588 71.0521 112.456 71.0962C112.368 71.1404 112.28 71.1846 112.192 71.2287C111.839 71.4937 111.486 71.7587 111.134 72.0237C110.781 72.2887 110.428 72.5979 110.076 72.9512C110.957 74.6295 111.883 76.2637 112.853 77.8537C113.867 79.3995 115.013 80.8791 116.292 82.2924C116.512 82.5132 116.732 82.712 116.953 82.8886C117.173 83.0653 117.394 83.264 117.614 83.4849C117.702 83.5732 117.746 83.6174 117.746 83.6174Z" fill="black"/>
<path d="M132.431 84.6774C132.563 85.0749 132.63 85.3398 132.63 85.4723C132.63 85.5607 132.475 85.649 132.167 85.7373C131.902 85.7815 131.461 85.8919 130.844 86.0686C130.227 86.2011 129.389 86.5103 128.331 86.9961C128.331 86.9961 128.309 86.9519 128.265 86.8636C127.957 86.9519 127.802 86.974 127.802 86.9298C127.802 86.9298 127.935 86.8636 128.199 86.7311C128.155 86.6869 128.133 86.6428 128.133 86.5986C128.133 86.5544 128.111 86.4882 128.067 86.3998C128.023 86.3115 128.001 86.2453 128.001 86.2011C128.001 86.1569 128.067 86.0686 128.199 85.9361C128.199 85.8036 128.155 85.6049 128.067 85.3399C127.89 84.7215 127.714 84.1253 127.538 83.5511C127.361 82.9328 127.163 82.3145 126.943 81.6961C126.193 79.4878 125.422 77.3237 124.628 75.2037C123.835 73.0396 122.997 70.8975 122.115 68.7775C121.234 66.79 120.374 64.8246 119.536 62.8813C118.655 60.8938 117.729 58.9064 116.759 56.9189C116.671 56.698 116.561 56.4772 116.428 56.2564C116.296 55.9914 116.186 55.7264 116.098 55.4614C116.054 55.3731 115.988 55.3068 115.899 55.2626C115.811 55.2185 115.811 55.1522 115.899 55.0639C116.737 54.4014 117.376 53.8714 117.817 53.4739C118.214 53.0322 118.544 52.7231 118.809 52.5464C119.029 52.3256 119.228 52.2373 119.404 52.2814C119.58 52.3256 119.845 52.5023 120.198 52.8114C120.418 52.9881 120.616 53.1648 120.793 53.3414C120.969 53.5181 121.168 53.6947 121.388 53.8714C121.432 53.9156 121.145 54.1806 120.528 54.6664V54.7989C121.278 56.8747 122.049 58.9284 122.843 60.9601C123.636 62.9476 124.452 64.9571 125.289 66.9888C126.171 69.1088 127.031 71.2287 127.868 73.3487C128.75 75.4687 129.632 77.5887 130.513 79.7087C130.866 80.5478 131.175 81.387 131.439 82.2261C131.748 83.0211 132.078 83.8382 132.431 84.6774Z" fill="black"/>
<path d="M148.248 77.2574C148.645 78.0083 148.953 78.7812 149.174 79.5762C149.394 80.3712 149.328 81.1661 148.975 81.9611C148.887 82.0495 148.799 82.1599 148.711 82.2924C148.667 82.4249 148.601 82.5574 148.512 82.6899C148.116 83.1315 147.807 83.4407 147.587 83.6174C147.41 83.794 147.19 83.9707 146.925 84.1474C146.661 84.2799 146.286 84.4786 145.801 84.7436C145.316 84.9644 144.545 85.3399 143.487 85.8698C143.399 85.9582 143.266 86.0023 143.09 86.0023C142.958 86.0023 142.825 86.0023 142.693 86.0023C142.164 86.0465 141.679 85.9582 141.238 85.7373C140.798 85.5165 140.335 85.2957 139.85 85.0749C137.866 83.6615 136.147 81.8507 134.692 79.6424C134.295 79.0241 133.987 78.3837 133.766 77.7212C133.502 77.0145 133.347 76.2858 133.303 75.535C133.303 75.4466 133.325 75.3804 133.369 75.3362C133.369 75.292 133.369 75.2258 133.369 75.1375C133.325 75.0491 133.524 74.8945 133.964 74.6737C134.361 74.4087 134.802 74.1437 135.287 73.8787C135.816 73.6137 136.301 73.415 136.742 73.2825C137.183 73.1058 137.425 73.0396 137.469 73.0837C137.425 73.1721 137.403 73.2383 137.403 73.2825C137.403 73.3266 137.381 73.3929 137.337 73.4812C137.249 74.1879 137.293 74.8945 137.469 75.6012C137.69 76.2637 137.976 76.9041 138.329 77.5224C138.417 77.6549 138.505 77.8095 138.593 77.9862C138.726 78.1187 138.836 78.2733 138.924 78.4499C140.114 80.1724 141.635 81.5857 143.487 82.6899C143.751 82.8224 144.016 82.9549 144.28 83.0874C144.589 83.1757 144.897 83.264 145.206 83.3524C145.471 82.6899 145.515 82.0274 145.338 81.3649C145.162 80.7024 144.92 80.062 144.611 79.4437C144.523 79.2228 144.413 79.0462 144.28 78.9137C144.192 78.737 144.104 78.5603 144.016 78.3837C143.266 77.2354 142.385 76.2195 141.371 75.3362C140.357 74.4529 139.343 73.5696 138.329 72.6862C136.786 71.3612 135.265 70.0583 133.766 68.7775C132.267 67.4525 130.812 66.0613 129.402 64.6038C128.432 63.4996 127.528 62.3734 126.691 61.2251C125.853 60.0768 125.148 58.8401 124.574 57.5151C124.354 56.8968 124.156 56.2785 123.979 55.6601C123.803 54.9976 123.847 54.3572 124.112 53.7389C124.817 53.3414 125.522 52.9439 126.228 52.5464C126.889 52.1048 127.572 51.7073 128.278 51.3539C128.366 51.3098 128.52 51.3098 128.74 51.3539C128.961 51.3539 129.093 51.3539 129.137 51.3539C129.843 51.4423 130.526 51.5748 131.187 51.7514C131.54 51.8398 131.826 51.906 132.047 51.9502C132.267 51.9943 132.554 52.1048 132.906 52.2814C134.141 52.7673 135.331 53.5181 136.477 54.5339C137.227 55.2847 137.954 56.0356 138.659 56.7864C139.409 57.5372 140.092 58.3543 140.709 59.2376C141.018 59.6793 141.305 60.143 141.569 60.6288C141.878 61.0705 142.12 61.5563 142.296 62.0863C142.341 62.1747 142.142 62.3513 141.701 62.6163C141.305 62.8813 140.842 63.1463 140.313 63.4113C139.828 63.6763 139.365 63.9192 138.924 64.1401C138.483 64.3167 138.241 64.3609 138.197 64.2726C138.108 63.7867 137.932 63.323 137.668 62.8813C137.447 62.3955 137.183 61.9097 136.874 61.4238C136.301 60.5405 135.662 59.7234 134.956 58.9726C134.295 58.2218 133.59 57.493 132.84 56.7864C132.091 56.1239 131.341 55.616 130.592 55.2626C129.798 54.8652 128.939 54.556 128.013 54.3352C128.101 54.556 128.167 54.7547 128.211 54.9314C128.256 55.1081 128.3 55.2626 128.344 55.3951C128.829 56.7643 129.49 58.023 130.327 59.1714C131.121 60.3197 131.981 61.4238 132.906 62.4838C134.185 64.0296 135.574 65.443 137.072 66.7238C138.615 68.0046 140.158 69.2854 141.701 70.5662C142.715 71.4496 143.729 72.3329 144.743 73.2162C145.801 74.0996 146.749 75.1154 147.587 76.2637C147.719 76.4404 147.829 76.617 147.917 76.7937C148.05 76.9262 148.16 77.0808 148.248 77.2574Z" fill="black"/>
<path d="M169.353 77.7874C169.397 77.8758 169.265 78.0524 168.956 78.3174C168.691 78.5383 168.361 78.8033 167.964 79.1124C167.567 79.4216 167.171 79.7087 166.774 79.9737C166.421 80.1945 166.157 80.327 165.98 80.3712C166.245 81.0778 166.509 81.7624 166.774 82.4249C167.082 83.0874 167.391 83.7499 167.7 84.4124C167.788 84.5449 167.854 84.6994 167.898 84.8761C167.986 85.0086 168.074 85.1411 168.162 85.2736C168.162 85.3178 168.207 85.4282 168.295 85.6048C168.471 85.5165 168.559 85.5165 168.559 85.6048C168.603 85.649 168.625 85.6932 168.625 85.7373C168.625 85.7815 168.647 85.8478 168.691 85.9361C168.824 86.2894 168.912 86.5323 168.956 86.6648C169 86.7973 168.934 86.8857 168.758 86.9298C168.625 87.0182 168.383 87.0844 168.03 87.1286C167.678 87.2169 167.193 87.3936 166.575 87.6586C165.694 88.3211 165.165 88.7407 164.988 88.9173C164.856 89.094 164.746 88.8732 164.658 88.2548C164.57 87.8132 164.459 87.5261 164.327 87.3936C164.283 87.2169 164.239 87.0623 164.195 86.9298C164.151 86.7973 164.107 86.6428 164.063 86.4661C163.71 85.4944 163.357 84.5228 163.005 83.5511C162.652 82.5795 162.299 81.6078 161.947 80.6362C161.153 80.7245 160.359 80.8349 159.566 80.9674C158.772 81.0999 158.001 81.2766 157.251 81.4974C157.516 82.1157 157.781 82.734 158.045 83.3524C158.354 83.9265 158.684 84.5007 159.037 85.0749C159.301 85.4282 159.5 85.649 159.632 85.7373C159.764 85.7815 159.764 85.8257 159.632 85.8698C159.5 85.914 159.213 86.0023 158.772 86.1348C158.332 86.2232 157.648 86.4882 156.722 86.9298C156.193 87.3273 155.819 87.6365 155.598 87.8573C155.422 88.1223 155.312 88.2769 155.268 88.3211C155.224 88.3652 155.224 88.3211 155.268 88.1886C155.312 88.1002 155.312 87.9236 155.268 87.6586C155.268 87.6586 155.246 87.6807 155.202 87.7248C155.202 87.6807 155.224 87.6365 155.268 87.5923C155.224 87.5482 155.202 87.4377 155.202 87.2611C154.893 86.5103 154.584 85.7374 154.276 84.9424C153.967 84.1474 153.659 83.3745 153.35 82.6236C153.085 82.712 152.821 82.8003 152.556 82.8886C152.292 82.977 152.005 83.0874 151.697 83.2199C151.52 83.3082 151.278 83.4407 150.969 83.6174C150.617 83.7499 150.507 83.772 150.639 83.6836C150.727 83.5953 150.815 83.5511 150.903 83.5511C150.991 83.507 151.08 83.4407 151.168 83.3524C150.551 83.6174 149.978 83.8382 149.449 84.0149C148.875 84.1915 148.567 84.2357 148.523 84.1474C148.743 83.9707 148.897 83.8603 148.986 83.8161C149.074 83.772 149.25 83.6836 149.515 83.5511L152.887 81.5636C152.755 81.1661 152.579 80.7466 152.358 80.3049C151.476 78.0524 150.595 75.822 149.713 73.6137C148.831 71.3612 147.972 69.1088 147.134 66.8563C146.561 65.3546 145.988 63.8751 145.415 62.4176C144.798 60.9159 144.247 59.4143 143.762 57.9126C143.718 57.8243 143.695 57.736 143.695 57.6476C143.695 57.5593 143.673 57.471 143.629 57.3826C143.629 57.2943 143.607 57.206 143.563 57.1176C143.519 57.0293 143.519 56.963 143.563 56.9189C144.136 56.5214 144.643 56.146 145.084 55.7926C145.481 55.3951 145.856 55.086 146.208 54.8652C146.517 54.6443 146.848 54.5118 147.2 54.4677C147.509 54.4235 147.884 54.5339 148.324 54.7989C148.368 54.8431 148.17 55.0418 147.729 55.3951V55.7926C148.038 57.3826 148.457 58.9284 148.986 60.4301C149.471 61.9317 149.955 63.4555 150.44 65.0013C151.19 67.2979 152.027 69.5504 152.953 71.7587C153.879 73.9229 154.827 76.1312 155.797 78.3837C155.929 78.6487 156.061 78.9358 156.193 79.2449C156.326 79.5099 156.458 79.7749 156.59 80.0399C156.811 79.9957 156.987 79.9516 157.119 79.9074C157.296 79.8632 157.494 79.797 157.714 79.7087C158.287 79.532 158.861 79.3774 159.434 79.2449C160.051 79.1124 160.668 78.9799 161.285 78.8474C161.065 78.2733 160.822 77.6991 160.558 77.1249C160.337 76.5508 160.117 75.9766 159.897 75.4025C158.839 72.7083 157.781 70.0142 156.722 67.32C155.664 64.6259 154.562 61.9317 153.416 59.2376C153.063 58.4426 152.733 57.6476 152.424 56.8526C152.116 56.0135 151.785 55.1964 151.432 54.4014C151.344 54.1806 151.256 53.8935 151.168 53.5402C151.124 53.4518 151.08 53.3635 151.036 53.2752C150.947 53.1427 150.947 53.0543 151.036 53.0102C151.653 52.4802 152.292 52.0164 152.953 51.6189C153.615 51.2214 154.276 50.7798 154.937 50.2939C155.157 50.4264 155.334 50.581 155.466 50.7577C155.642 50.9344 155.797 51.1331 155.929 51.3539C155.973 51.3981 155.731 51.6189 155.202 52.0164C155.29 52.2814 155.356 52.5464 155.4 52.8114C155.444 53.0764 155.51 53.3193 155.598 53.5402C155.731 53.9818 155.841 54.3572 155.929 54.6664C156.017 54.9314 156.105 55.1964 156.193 55.4614C156.282 55.7264 156.37 56.0135 156.458 56.3226C156.546 56.5876 156.656 56.941 156.789 57.3826C157.758 60.1651 158.75 62.9034 159.764 65.5975C160.822 68.2475 161.924 70.9417 163.071 73.68C163.423 74.4308 163.754 75.1816 164.063 75.9324C164.371 76.6833 164.68 77.4341 164.988 78.1849C165.385 78.1408 165.782 78.0966 166.179 78.0524C166.575 78.0083 166.972 77.9641 167.369 77.9199C167.722 77.8758 167.964 77.8537 168.096 77.8537C168.229 77.8537 168.339 77.8537 168.427 77.8537C168.515 77.8537 168.603 77.8537 168.691 77.8537C168.824 77.8095 169.044 77.7874 169.353 77.7874Z" fill="black"/>
<path d="M50.6577 108.538C50.7017 108.891 50.7017 109.311 50.6577 109.797C50.6577 110.282 50.6356 110.68 50.5915 110.989C50.5034 112.005 50.3491 112.999 50.1286 113.97C49.9523 114.898 49.7539 115.847 49.5335 116.819C48.9163 119.469 48.1889 122.075 47.3513 124.636C46.5137 127.154 45.6761 129.671 44.8385 132.189C44.5299 133.028 44.2433 133.845 43.9788 134.64C43.7584 135.435 43.4719 136.23 43.1192 137.025C43.0751 137.246 43.009 137.445 42.9208 137.621C42.8326 137.754 42.7665 137.886 42.7224 138.019C42.6783 138.151 42.6342 138.218 42.5902 138.218C41.973 138.703 41.3558 139.167 40.7386 139.609C40.1214 140.05 39.5042 140.514 38.8871 141C38.7107 140.735 38.6225 140.514 38.6225 140.337C38.5785 140.117 38.6005 139.763 38.6887 139.278C38.7768 138.836 38.865 138.505 38.9532 138.284C39.1736 137.621 39.3279 137.113 39.4161 136.76C39.5483 136.407 39.7467 135.899 40.0112 135.236C39.923 135.148 40.0994 134.949 40.5402 134.64C41.0252 134.331 41.5101 134 41.995 133.646C42.3036 132.807 42.5902 131.968 42.8547 131.129C43.1633 130.29 43.4498 129.428 43.7143 128.545C43.3176 128.898 42.9208 129.208 42.524 129.473C42.1714 129.693 41.973 129.76 41.9289 129.671C41.7085 129.053 41.4219 128.479 41.0692 127.949C40.7166 127.375 40.3859 126.778 40.0773 126.16C39.7687 125.586 39.4602 125.034 39.1516 124.504C38.8871 123.93 38.6225 123.378 38.358 122.848C37.9172 123.113 37.5425 123.356 37.2339 123.576C36.8812 123.753 36.6828 123.797 36.6387 123.709C36.7269 123.488 36.771 123.378 36.771 123.378C36.7269 123.334 36.7489 123.201 36.8371 122.98C36.9253 122.715 37.0135 122.45 37.1016 122.185C37.1457 121.92 37.2118 121.655 37.3 121.39C37.3 121.302 37.322 121.236 37.3661 121.191C37.3661 121.103 37.3661 121.015 37.3661 120.926C36.6167 119.381 35.8893 117.813 35.1839 116.223C34.4345 114.633 33.7292 113.021 33.0679 111.387C31.9217 108.604 30.7975 105.822 29.6954 103.039C28.5933 100.212 27.5353 97.3638 26.5213 94.4929C26.4331 94.2721 26.345 94.0292 26.2568 93.7642C26.1686 93.4992 26.0805 93.2563 25.9923 93.0355V92.9692C25.9923 92.925 25.9923 92.903 25.9923 92.903C25.9482 92.8588 25.9262 92.8146 25.9262 92.7705C25.838 92.4613 25.7498 92.1742 25.6617 91.9092C25.5735 91.6001 25.4853 91.2909 25.3972 90.9817C25.3531 90.8934 25.331 90.8051 25.331 90.7167C25.331 90.5842 25.309 90.4738 25.2649 90.3855C25.2649 90.3413 25.2429 90.2972 25.1988 90.253C25.1547 90.1647 25.1547 90.0984 25.1988 90.0542C25.7719 89.4801 26.367 88.9501 26.9842 88.4643C27.5573 87.9343 28.1524 87.4263 28.7696 86.9405L28.968 87.1393C29.0562 87.2718 29.1223 87.4705 29.1664 87.7355C29.2105 88.0005 29.2546 88.2213 29.2986 88.398C29.3868 88.7072 29.4529 89.0163 29.497 89.3255C29.497 89.6347 29.5411 89.9438 29.6293 90.253C29.5852 90.253 29.5631 90.2751 29.5631 90.3192C29.5191 90.3634 29.497 90.4076 29.497 90.4517C29.497 90.4959 29.475 90.5401 29.4309 90.5842C29.5191 90.8051 29.5852 91.048 29.6293 91.313C29.6293 91.5338 29.6734 91.7546 29.7615 91.9755C30.4669 94.6254 31.2825 97.2533 32.2082 99.8591C33.134 102.421 34.1039 104.982 35.1178 107.544C34.7651 105.292 34.4565 103.039 34.192 100.787C33.9275 98.49 33.7291 96.1933 33.5969 93.8967C33.5528 92.7484 33.5528 91.6001 33.5969 90.4517C33.641 89.3034 33.8394 88.1551 34.192 87.0068C34.3684 86.5651 34.5668 86.2118 34.7872 85.9468C35.0076 85.6376 35.2721 85.3726 35.5807 85.1518C35.8452 84.8868 36.1979 84.6218 36.6387 84.3568C37.0355 84.0476 37.5204 83.6722 38.0935 83.2306C38.1817 83.2306 38.2699 83.2526 38.358 83.2968C38.4021 83.341 38.4683 83.3631 38.5564 83.3631L38.6887 83.4956C38.6887 83.4956 38.7328 83.5397 38.8209 83.6281C39.2618 84.158 39.5704 84.7543 39.7467 85.4168C39.923 86.0793 40.1214 86.7418 40.3418 87.4043C40.8268 89.4359 41.1574 91.4676 41.3338 93.4992C41.5542 95.5309 41.7305 97.6067 41.8628 99.7266C41.9509 101.847 42.0171 103.989 42.0611 106.153C42.1493 108.273 42.1493 110.415 42.0611 112.579C42.0171 112.888 41.995 113.197 41.995 113.507C41.995 113.816 41.973 114.125 41.9289 114.434C42.2816 113.948 42.6122 113.507 42.9208 113.109C43.2294 112.667 43.56 112.226 43.9127 111.784C44.6621 110.901 45.4777 110.106 46.3594 109.399C47.2852 108.648 48.211 107.897 49.1367 107.147C49.4453 106.882 49.798 106.904 50.1948 107.213C50.2829 107.301 50.327 107.389 50.327 107.478C50.3711 107.566 50.4372 107.654 50.5254 107.743C50.6136 108.096 50.6577 108.361 50.6577 108.538ZM25.3972 90.1205V89.988C25.3972 89.988 25.3972 90.0322 25.3972 90.1205ZM38.8871 101.913C38.9752 103.326 39.0413 104.762 39.0854 106.219C39.1295 107.632 39.1075 109.046 39.0193 110.459C38.9311 109.973 38.843 109.487 38.7548 109.002C38.6225 108.516 38.5123 108.03 38.4242 107.544C37.9833 105.292 37.6086 103.039 37.3 100.787C36.9914 98.49 36.793 96.1713 36.7049 93.8305V91.6442C36.7049 91.2467 36.7049 90.8713 36.7049 90.518C36.7049 90.1205 36.7269 89.723 36.771 89.3255C36.8592 89.5905 36.9253 89.8113 36.9694 89.988C37.5866 91.9313 38.0274 93.8967 38.2919 95.8842C38.5123 97.8717 38.7107 99.8812 38.8871 101.913ZM46.4255 119.005C46.646 117.724 46.8664 116.421 47.0868 115.097C47.3513 113.772 47.3954 112.469 47.2191 111.188C47.1309 110.923 47.0868 110.724 47.0868 110.592C46.9986 110.415 46.9325 110.304 46.8884 110.26C45.2132 112.292 43.7804 114.456 42.5902 116.753C42.3257 117.239 42.0611 117.746 41.7966 118.276C41.5321 118.806 41.2897 119.336 41.0692 119.866C41.7746 121.236 42.502 122.472 43.2514 123.576C43.4719 123.93 43.6923 124.283 43.9127 124.636C44.1772 124.99 44.4197 125.343 44.6401 125.696C44.9928 124.592 45.3234 123.488 45.632 122.384C45.9406 121.28 46.2051 120.154 46.4255 119.005Z" fill="black"/>
<path d="M70.037 118.343C70.2133 119.624 70.3015 120.904 70.3015 122.185C70.3015 123.422 70.0811 124.658 69.6402 125.895C69.3757 126.425 69.1773 126.778 69.0451 126.955C68.9128 127.132 68.7145 127.286 68.4499 127.419C68.2295 127.551 67.8548 127.728 67.3258 127.949C66.8409 128.17 66.0473 128.567 64.9452 129.141C64.7689 129.23 64.5485 129.274 64.2839 129.274C64.0635 129.274 63.8651 129.23 63.6888 129.141C63.3361 129.053 63.0716 128.965 62.8953 128.876C62.7189 128.744 62.4765 128.567 62.1679 128.346C62.0356 128.258 61.9034 128.17 61.7711 128.081C61.6389 127.949 61.5066 127.816 61.3744 127.684C60.4486 126.845 59.611 125.917 58.8615 124.901C58.1562 123.841 57.4949 122.781 56.8777 121.721C56.481 121.015 56.1724 120.441 55.9519 119.999C55.6874 119.557 55.3788 118.961 55.0262 118.21C54.409 116.929 53.88 115.626 53.4391 114.302C52.9542 112.932 52.5354 111.541 52.1827 110.128C51.83 108.494 51.5435 106.859 51.3231 105.225C51.1026 103.591 51.1026 101.935 51.3231 100.257C51.4112 99.5941 51.5435 98.9317 51.7198 98.2692C51.8521 97.6067 52.0945 96.9663 52.4472 96.3479C53.0203 96.0388 53.5273 95.7075 53.9681 95.3542C54.409 95.0009 54.8498 94.7138 55.2907 94.4929C55.6874 94.228 56.1062 94.0734 56.5471 94.0292C56.9438 93.9409 57.4067 94.0071 57.9358 94.2279C58.2003 94.3604 58.4207 94.515 58.597 94.6917C58.8174 94.8684 59.0379 95.0671 59.2583 95.2879C59.3024 95.3763 59.1481 95.5529 58.7954 95.8179C58.4427 96.0388 58.0239 96.3038 57.539 96.6129C57.0541 96.8779 56.5912 97.1208 56.1503 97.3417C55.7095 97.5625 55.445 97.6729 55.3568 97.6729C55.3127 97.8054 55.2907 97.9379 55.2907 98.0704C55.2466 98.1587 55.2025 98.2692 55.1584 98.4017C54.8498 100.08 54.7837 101.736 54.96 103.37C55.0923 104.96 55.3348 106.594 55.6874 108.273C56.2605 111.055 57.1643 113.727 58.3986 116.289C58.7513 117.04 59.0379 117.636 59.2583 118.078C59.5228 118.475 59.8755 119.027 60.3163 119.734C60.9776 120.75 61.683 121.766 62.4324 122.781C63.1818 123.797 64.0415 124.703 65.0113 125.498C65.1436 125.586 65.2759 125.696 65.4081 125.829C65.5404 125.917 65.6947 126.006 65.871 126.094C65.9592 126.094 66.0473 126.138 66.1355 126.226C66.4 125.255 66.5323 124.283 66.5323 123.311C66.5763 122.296 66.5543 121.28 66.4661 120.264C66.2457 118.144 65.8049 116.134 65.1436 114.235C64.4823 112.292 63.7329 110.349 62.8953 108.405C62.2781 106.904 61.5287 105.446 60.647 104.033C59.8094 102.62 58.8174 101.317 57.6712 100.124C57.3186 99.815 57.1422 99.6604 57.1422 99.6604C57.0981 99.6604 56.9218 99.5279 56.6132 99.2629C56.5691 99.2187 56.7455 99.0642 57.1422 98.7992C57.4949 98.49 57.9137 98.1808 58.3986 97.8717C58.8836 97.5625 59.3244 97.3196 59.7212 97.1429C60.1179 96.9221 60.3384 96.8338 60.3825 96.8779C60.5588 97.0104 60.669 97.1208 60.7131 97.2092C60.8013 97.2533 60.8453 97.2975 60.8453 97.3417C60.8894 97.3858 60.9335 97.4521 60.9776 97.5404C61.0658 97.5846 61.198 97.695 61.3744 97.8717C62.3883 99.1967 63.292 100.588 64.0856 102.045C64.8791 103.503 65.6065 105.005 66.2678 106.55C67.1054 108.449 67.8548 110.371 68.5161 112.314C69.2214 114.257 69.7284 116.267 70.037 118.343Z" fill="black"/>
<path d="M96.5735 134.176C96.794 134.706 96.9262 135.038 96.9703 135.17C97.0144 135.347 96.9042 135.501 96.6397 135.634C96.4192 135.766 96.0004 135.943 95.3833 136.164C94.8102 136.429 94.0166 136.893 93.0027 137.555C92.9145 137.599 92.8263 137.533 92.7382 137.356C92.65 137.224 92.5178 137.025 92.3414 136.76C92.2092 136.539 92.0989 136.34 92.0108 136.164C91.9226 135.987 91.8124 135.81 91.6801 135.634C91.592 135.457 91.5038 135.258 91.4156 135.038C90.2254 132.608 89.1012 130.157 88.0432 127.684C87.0292 125.211 86.0594 122.693 85.1336 120.131C83.9874 117.084 82.8412 114.059 81.695 111.055C80.5929 108.008 79.4026 104.982 78.1241 101.979C78.0359 101.802 77.9919 101.714 77.9919 101.714V102.907C77.9919 105.866 78.1021 108.825 78.3225 111.784C78.587 114.699 79.0058 117.614 79.5789 120.529L80.1741 123.113C80.2622 123.466 80.3504 123.819 80.4386 124.173C80.5267 124.482 80.6149 124.813 80.7031 125.166C80.7912 125.255 80.8574 125.365 80.9014 125.498C80.9455 125.63 81.0117 125.741 81.0998 125.829C81.188 125.917 81.3203 126.094 81.4966 126.359C81.5407 126.447 81.3643 126.624 80.9676 126.889C80.6149 127.154 80.1961 127.419 79.7112 127.684C79.2262 127.949 78.7633 128.192 78.3225 128.413C77.9257 128.589 77.7053 128.633 77.6612 128.545C77.6171 128.457 77.5731 128.368 77.529 128.28C77.4849 128.148 77.4408 128.037 77.3967 127.949C76.515 126.05 75.7215 124.151 75.0161 122.251C74.2667 120.308 73.5173 118.365 72.7678 116.421C71.8861 114.169 71.0265 111.939 70.1889 109.73C69.3072 107.522 68.4475 105.292 67.6099 103.039C67.4777 102.642 67.3895 102.355 67.3454 102.178C67.2572 102.001 67.1691 101.736 67.0809 101.383C67.0809 101.339 67.0589 101.295 67.0148 101.25C66.9707 101.206 66.9487 101.162 66.9487 101.118C66.9046 101.118 66.8825 101.118 66.8825 101.118C66.8384 101.074 66.8384 101.052 66.8825 101.052C66.8825 100.963 66.9046 100.897 66.9487 100.853C67.6981 100.367 68.2932 99.9254 68.7341 99.5279C69.1749 99.1304 69.5496 98.8433 69.8582 98.6667C70.1227 98.4458 70.3873 98.3575 70.6518 98.4017C70.8722 98.4458 71.1367 98.6667 71.4453 99.0642C71.6657 99.3291 71.8861 99.5942 72.1066 99.8591C72.2829 100.124 72.4592 100.389 72.6356 100.654C72.6797 100.742 72.327 101.052 71.5775 101.582C72.0625 103.657 72.6576 105.711 73.363 107.743C74.0242 109.73 74.7296 111.718 75.479 113.705C75.3468 112.159 75.2366 110.636 75.1484 109.134C75.0161 107.632 74.9059 106.109 74.8178 104.563C74.7296 102.973 74.6635 101.383 74.6194 99.7929C74.5753 98.1587 74.6635 96.5688 74.8839 95.0229C74.8398 94.9346 75.0382 94.78 75.479 94.5592C75.8758 94.2942 76.3387 94.0513 76.8677 93.8305C77.3967 93.6096 77.8816 93.433 78.3225 93.3005C78.8074 93.1238 79.0719 93.0575 79.116 93.1017L78.9176 93.4992C78.9176 93.5875 78.8956 93.6759 78.8515 93.7642C79.0278 93.6317 79.1601 93.6096 79.2483 93.698C79.7332 94.7138 80.152 95.7738 80.5047 96.8779C80.8574 97.9379 81.21 98.9979 81.5627 100.058C82.5767 103.194 83.6126 106.307 84.6707 109.399C85.7728 112.447 86.897 115.494 88.0432 118.541C88.7926 120.441 89.5641 122.318 90.3576 124.173C91.1511 125.983 92.0108 127.794 92.9366 129.605C93.157 130.003 93.3333 130.334 93.4656 130.599C93.6419 130.864 93.7962 131.107 93.9285 131.328C94.0607 131.593 94.193 131.835 94.3252 132.056C94.5016 132.321 94.6999 132.63 94.9204 132.984C95.0526 133.205 95.1628 133.381 95.251 133.514C95.3833 133.69 95.5155 133.889 95.6478 134.11C95.6478 134.11 95.7359 134.198 95.9123 134.375C96.309 134.198 96.5295 134.132 96.5735 134.176Z" fill="black"/>
<path d="M107.721 127.088C107.765 127.176 107.611 127.375 107.258 127.684C106.906 127.993 106.487 128.324 106.002 128.678C105.561 128.987 105.142 129.274 104.745 129.539C104.349 129.76 104.128 129.826 104.084 129.738H97.6698C97.3171 129.738 96.8983 129.738 96.4134 129.738C95.9725 129.738 95.6419 129.583 95.4215 129.274C95.3774 129.186 95.3554 129.119 95.3554 129.075C95.3554 129.031 95.3333 128.987 95.2892 128.943C95.3333 128.413 95.5096 127.949 95.8182 127.551C96.1268 127.11 96.4354 126.668 96.744 126.226C97.4053 125.387 97.9784 124.548 98.4633 123.709C98.4633 123.665 98.4633 123.643 98.4633 123.643C98.5074 123.598 98.5294 123.554 98.5294 123.51C98.4854 123.245 98.1988 122.914 97.6698 122.516C97.1408 122.075 96.7881 121.744 96.6118 121.523C95.5097 120.374 94.4737 119.182 93.5038 117.945C92.4899 116.709 91.542 115.406 90.6603 114.037C90.4399 113.683 90.2415 113.352 90.0652 113.043C89.8889 112.734 89.7125 112.402 89.5362 112.049C88.5663 110.371 87.7067 108.648 86.9572 106.882C86.1637 105.071 85.4804 103.238 84.9073 101.383C84.6869 100.544 84.4885 99.7046 84.3122 98.8654C84.1358 97.9821 84.0697 97.0988 84.1138 96.2154C84.1138 96.1271 84.1138 96.0388 84.1138 95.9504C84.0697 95.8179 84.0917 95.7075 84.1799 95.6192C84.7971 95.1334 85.4584 94.6917 86.1637 94.2942C86.8691 93.8525 87.5524 93.4109 88.2136 92.9692H88.5443C88.9851 93.0575 89.448 93.3225 89.9329 93.7642C90.3738 94.2059 90.7705 94.5371 91.1232 94.7579C92.0931 95.5971 93.0189 96.4804 93.9006 97.4079C94.7823 98.2912 95.6199 99.2408 96.4134 100.257C96.8983 100.875 97.3612 101.515 97.8021 102.178C98.2429 102.796 98.6838 103.459 99.1246 104.165C99.1687 104.254 98.9703 104.43 98.5294 104.695C98.1327 104.96 97.6918 105.247 97.2069 105.557C96.722 105.822 96.2591 106.065 95.8182 106.285C95.3774 106.462 95.1349 106.506 95.0908 106.418C94.7823 105.667 94.4296 104.96 94.0328 104.298C93.6361 103.635 93.2173 102.995 92.7764 102.377C92.1151 101.493 91.4098 100.654 90.6603 99.8591C89.8668 99.0642 89.0292 98.2912 88.1475 97.5404C88.1916 97.8938 88.2357 98.225 88.2798 98.5342C88.3239 98.8433 88.39 99.1525 88.4782 99.4617C88.919 101.361 89.5141 103.216 90.2636 105.027C90.9689 106.793 91.8286 108.516 92.8425 110.194C93.0189 110.503 93.2173 110.812 93.4377 111.122C93.614 111.431 93.8124 111.74 94.0328 112.049C94.9145 113.418 95.8844 114.699 96.9424 115.891C98.0004 117.084 99.1246 118.21 100.315 119.27C100.535 119.579 100.91 119.889 101.439 120.198C102.012 120.507 102.365 120.838 102.497 121.191V121.589C102.497 121.766 102.475 121.898 102.431 121.986C102.343 122.251 102.211 122.516 102.034 122.781C101.858 123.002 101.704 123.223 101.571 123.444C101.439 123.665 101.351 123.797 101.307 123.841C101.263 123.886 101.219 123.93 101.175 123.974C101.13 123.974 101.086 124.018 101.042 124.106C100.998 124.151 100.91 124.283 100.778 124.504C100.557 124.857 100.293 125.233 99.9842 125.63C99.7197 125.983 99.5434 126.403 99.4552 126.889V126.955C99.5875 127.043 99.874 127.11 100.315 127.154C100.8 127.154 101.13 127.154 101.307 127.154H105.803C106.112 127.154 106.421 127.154 106.729 127.154C107.038 127.154 107.368 127.132 107.721 127.088Z" fill="black"/>
<path d="M130.35 126.69C130.395 126.778 130.24 126.955 129.888 127.22C129.535 127.485 129.138 127.772 128.697 128.081C128.256 128.346 127.838 128.589 127.441 128.81C127.088 128.987 126.89 129.053 126.846 129.009C125.92 128.346 124.972 127.728 124.002 127.154C123.077 126.58 122.107 126.028 121.093 125.498C117.654 123.598 114.282 121.611 110.975 119.535C110.623 119.359 110.38 119.226 110.248 119.138C110.116 119.049 110.005 118.983 109.917 118.939C109.785 118.851 109.675 118.784 109.587 118.74C109.454 118.652 109.234 118.519 108.925 118.343C108.617 118.166 108.33 118.011 108.066 117.879C107.757 117.702 107.493 117.504 107.272 117.283C107.184 117.239 107.074 117.15 106.942 117.018C106.897 116.929 106.853 116.885 106.809 116.885C106.765 116.841 106.743 116.775 106.743 116.686C106.523 116.201 106.523 115.715 106.743 115.229C106.964 114.699 107.14 114.213 107.272 113.772L111.438 103.635C111.879 102.443 112.32 101.25 112.761 100.058C113.202 98.8654 113.598 97.6729 113.951 96.4804C114.304 96.2596 114.678 95.9504 115.075 95.5529C115.516 95.1554 115.935 94.8021 116.332 94.4929C116.772 94.1838 117.147 93.985 117.456 93.8967C117.808 93.7642 118.073 93.8967 118.249 94.2942C118.337 94.3825 118.315 94.5371 118.183 94.7579C118.095 94.9788 118.073 95.1554 118.117 95.2879C118.161 95.3321 117.985 95.4867 117.588 95.7517C117.103 96.7675 116.662 97.8054 116.265 98.8654C115.869 99.8812 115.45 100.919 115.009 101.979C114.304 103.657 113.62 105.336 112.959 107.014C112.342 108.648 111.725 110.304 111.108 111.983C111.019 112.38 110.887 112.844 110.711 113.374C110.534 113.86 110.601 114.302 110.909 114.699C111.482 115.185 112.055 115.626 112.628 116.024C113.246 116.421 113.863 116.819 114.48 117.216C116.067 118.365 117.676 119.447 119.307 120.463C120.982 121.434 122.658 122.384 124.333 123.311C125.347 123.886 126.339 124.438 127.309 124.968C128.323 125.498 129.337 126.072 130.35 126.69Z" fill="black"/>
<path d="M147.187 84.953C147.319 85.7039 147.341 86.3222 147.253 86.808C147.209 87.1614 147.165 87.4926 147.121 87.8018C147.077 88.1109 147.077 88.4422 147.121 88.7955C147.165 88.8838 147.033 89.0163 146.724 89.193C146.46 89.3697 146.129 89.5684 145.732 89.7892C144.939 93.5875 144.101 97.3638 143.219 101.118C142.338 104.872 141.5 108.648 140.707 112.447C140.178 114.964 139.693 117.481 139.252 119.999C138.855 122.472 138.502 124.968 138.194 127.485C138.238 127.573 138.084 127.728 137.731 127.949C137.378 128.126 136.959 128.324 136.474 128.545C136.034 128.766 135.615 128.965 135.218 129.141C134.865 129.274 134.667 129.318 134.623 129.274C135.196 126.668 135.747 124.084 136.276 121.523C136.805 118.961 137.378 116.377 137.995 113.772C138.789 110.017 139.56 106.307 140.31 102.642C141.103 98.9317 141.721 95.1775 142.161 91.3792C142.25 90.5401 142.316 89.7009 142.36 88.8618C142.448 88.0226 142.514 87.1614 142.558 86.278C143.263 85.8805 143.859 85.483 144.344 85.0855C144.828 84.6439 145.247 84.3126 145.6 84.0918C145.997 83.871 146.305 83.8047 146.526 83.8931C146.79 83.9814 147.011 84.3347 147.187 84.953Z" fill="black"/>
<path d="M175.934 106.815C176.419 107.257 176.662 107.632 176.662 107.942C176.662 108.251 176.551 108.692 176.331 109.267C175.626 110.812 174.942 112.38 174.281 113.97C173.62 115.516 172.981 117.062 172.363 118.608C171.878 119.933 171.415 121.28 170.975 122.649C170.534 123.974 170.159 125.343 169.85 126.756C169.895 126.845 169.718 126.999 169.321 127.22C168.925 127.441 168.484 127.662 167.999 127.883C167.514 128.103 167.051 128.302 166.61 128.479C166.213 128.656 165.993 128.7 165.949 128.611C166.39 127.198 166.875 125.807 167.404 124.438C167.933 123.069 168.44 121.677 168.925 120.264L172.297 111.122C172.474 110.636 172.562 110.282 172.562 110.062C172.606 109.841 172.451 109.532 172.099 109.134C171.526 108.56 170.931 108.03 170.313 107.544C169.696 107.058 169.079 106.55 168.462 106.02C167.272 105.005 166.081 104.033 164.891 103.105C163.701 102.178 162.466 101.272 161.188 100.389C160.218 99.7708 159.226 99.1525 158.212 98.5342C157.198 97.9158 156.14 97.43 155.038 97.0767H154.84C154.619 96.9883 154.399 96.9442 154.178 96.9442C153.914 96.9442 153.671 96.9221 153.451 96.8779C153.407 96.8779 153.385 96.9 153.385 96.9442V96.8779H153.253C152.9 96.4804 152.856 96.105 153.12 95.7517C153.385 95.3984 153.782 95.0892 154.311 94.8242C154.796 94.5592 155.369 94.3604 156.03 94.2279C156.647 94.0955 157.154 94.0734 157.551 94.1617C157.639 94.1617 157.749 94.1838 157.882 94.2279C158.014 94.2721 158.146 94.3163 158.278 94.3604C158.366 94.3604 158.433 94.3825 158.477 94.4267C158.521 94.4267 158.587 94.4267 158.675 94.4267V94.4929C159.733 94.9788 160.747 95.5529 161.717 96.2154C162.687 96.8779 163.657 97.5404 164.626 98.2029C165.905 99.0862 167.139 100.014 168.33 100.985C169.564 101.913 170.798 102.84 172.033 103.768C172.65 104.298 173.289 104.806 173.95 105.292C174.656 105.733 175.317 106.241 175.934 106.815Z" fill="black"/>
</svg>
